<svg xmlns="http://www.w3.org/2000/svg" width="1200" height="630" viewBox="0 0 1200 630"><path fill="#fefbfb" d="M0 0h1200v630H0z"/><defs><clipPath id="a"><path d="M109 39h1048a4 4 0 0 1 4 4v496a4 4 0 0 1-4 4H109a4 4 0 0 1-4-4V43a4 4 0 0 1 4-4"/></clipPath></defs><g opacity=".9"><path fill="#ecebeb" d="M109 39h1048a4 4 0 0 1 4 4v496a4 4 0 0 1-4 4H109a4 4 0 0 1-4-4V43a4 4 0 0 1 4-4"/><path fill="none" stroke="#000" stroke-width="8" d="M106.172 40.172A4 4 0 0 1 109 39h1048a4 4 0 0 1 4 4v496a4 4 0 0 1-4 4H109a4 4 0 0 1-4-4V43a4 4 0 0 1 1.172-2.828" clip-path="url(#a)"/></g><defs><clipPath id="b"><path d="M76 63h1048a4 4 0 0 1 4 4v496a4 4 0 0 1-4 4H76a4 4 0 0 1-4-4V67a4 4 0 0 1 4-4"/></clipPath></defs><path fill="#fefbfb" d="M76 63h1048a4 4 0 0 1 4 4v496a4 4 0 0 1-4 4H76a4 4 0 0 1-4-4V67a4 4 0 0 1 4-4"/><path fill="none" stroke="#000" stroke-width="8" d="M73.172 64.172A4 4 0 0 1 76 63h1048a4 4 0 0 1 4 4v496a4 4 0 0 1-4 4H76a4 4 0 0 1-4-4V67a4 4 0 0 1 1.172-2.828" clip-path="url(#b)"/><clipPath id="c"><path d="M128 103h944v281H128z"/></clipPath><mask id="d"><path fill="#fff" d="M128 103h944v281H128z"/></mask><path d="M150.8 183.8q-10.1 0-15-6.8-4.8-6.8-4.8-19.2 0-12.4 4.8-19.2 4.9-6.8 15-6.8 3.8 0 6.8 1.1 3 1 5.2 2.9 2.1 1.9 3.5 4.5 1.4 2.7 2.2 6l-10 2.5q-.5-1.8-1.1-3.4-.5-1.5-1.4-2.6-.9-1-2.3-1.6-1.3-.7-3.2-.7-4.4 0-6.2 3.5-1.8 3.4-1.8 9.4v8.8q0 6.1 1.8 9.5 1.8 3.4 6.2 3.4 3.8 0 5.5-2.3 1.7-2.3 2.5-5.9l10 2.4q-.8 3.4-2.2 6-1.4 2.7-3.5 4.6-2.2 1.9-5.2 2.9t-6.8 1Zm25.7-.8v-8.3h8.6v-20.6h-8.6v-8.3h19.3v10.5h.5q.5-2 1.4-3.9.9-1.9 2.3-3.4t3.4-2.3q2-.9 4.7-.9h3.6v9.8h-8q-3.9 0-5.9 2.3-2 2.4-2 5.8v11H208v8.3h-31.5Zm60.5.8q-9.4 0-14.2-5.2-4.8-5.2-4.8-14.1 0-4.5 1.3-8.2 1.2-3.6 3.6-6.1 2.3-2.6 5.6-3.9 3.4-1.4 7.6-1.4 4.1 0 7.5 1.4 3.3 1.3 5.6 3.7 2.3 2.5 3.5 6 1.3 3.5 1.3 7.8v3.2h-25.4v.6q0 3.6 2.2 5.8 2.2 2.2 6.6 2.2 3.3 0 5.7-1.3 2.3-1.2 4.1-3.3l5.7 6.3q-2.1 2.6-6 4.6-3.9 1.9-9.9 1.9Zm-.9-31.2q-3.4 0-5.5 2.1-2 2.1-2 5.7v.6h15v-.6q0-3.7-2-5.7-2-2.1-5.5-2.1Zm62.7 30.4h-6.1q-3.3 0-5.4-1.7-2-1.7-2.3-4.9h-.4q-1 3.7-4 5.5-3 1.9-7.3 1.9-5.4 0-8.7-2.9-3.3-2.9-3.3-8.2 0-5.8 4.3-8.6 4.2-2.8 12.4-2.8h6v-1.9q0-3.3-1.5-5-1.6-1.7-5.2-1.7-3.4 0-5.5 1.3t-3.6 3.4l-5.8-5.2q1.8-3.2 5.8-5.2 4-2.1 10.3-2.1 7.6 0 11.9 3.5 4.3 3.5 4.3 10.6v16.2h4.1v7.8Zm-21.5-6.2q2.8 0 4.8-1.3 1.9-1.4 1.9-4V167h-5.7q-6.5 0-6.5 4.4v1.5q0 1.9 1.5 2.9t4 1ZM339 183h-13.7q-5.8 0-8.6-3.1-2.8-3-2.8-7.7v-18.1h-10.1v-8.3h6.6q2.4 0 3.4-.9 1-1 1-3.5v-8.7h9.8v13.1H339v8.3h-14.4v20.6H339v8.3Zm28.9-42q-3.6 0-5-1.4-1.4-1.5-1.4-3.6v-2.1q0-2.1 1.4-3.6 1.4-1.4 5-1.4t5 1.4q1.4 1.5 1.4 3.6v2.1q0 2.1-1.4 3.6-1.4 1.4-5 1.4Zm-17.1 42v-8.3h11.8v-20.6h-11.8v-8.3h22.4v28.9h11v8.3h-33.4Zm51.7 0h-10.6v-37.2h10.6v6.8h.5q.6-1.6 1.6-3 .9-1.4 2.2-2.4 1.4-1 3.1-1.7 1.8-.6 4-.6 2.7 0 4.9.9t3.8 2.7q1.6 1.8 2.5 4.4.9 2.6.9 6V183h-10.6v-22.7q0-7.2-6.3-7.2-1.2 0-2.4.4-1.2.3-2.1 1-1 .7-1.5 1.7-.6 1-.6 2.3V183Zm69.9 3.7q0 5.9-5 8.7-5 2.8-15.6 2.8-5.3 0-8.8-.6-3.5-.6-5.5-1.8-2.1-1.1-2.9-2.7-.8-1.6-.8-3.5 0-3.1 1.9-4.7 1.8-1.7 5.2-2.5v-.5q-2.4-.7-3.8-2t-1.4-3.8q0-2.7 1.9-4 1.8-1.3 4.8-2v-.5q-3.3-1.6-5.1-4.4-1.9-2.9-1.9-7 0-3.3 1.2-5.7 1.1-2.5 3.3-4.2 2.1-1.6 5-2.5 3-.9 6.7-.9 3.5 0 6.5.8v-2q0-2.1 1.5-3.6 1.5-1.4 4.2-1.4h6.6v7.7h-9v.7q3.1 1.6 4.7 4.4 1.7 2.7 1.7 6.7 0 3.2-1.1 5.7-1.2 2.4-3.3 4.1-2.2 1.7-5.2 2.6-3 .8-6.6.8-1.7 0-3.2-.1-1.5-.2-2.9-.6-.8.4-1.3 1.1-.6.6-.6 1.6 0 .9.5 1.4.4.5 1.2.8.7.2 1.7.3 1 .1 2.1.1h8.5q4 0 6.8.8t4.6 2.2q1.8 1.4 2.6 3.4.8 1.9.8 4.3Zm-10.1.8q0-1.5-1.2-2.3-1.1-.8-4.3-.8H444q-1.4 1.2-1.4 3 0 1.7 1.4 2.9 1.5 1.1 5 1.1h6.3q3.7 0 5.3-1 1.7-1 1.7-2.9Zm-10.7-22.8q3.2 0 4.7-1.6t1.5-4.1v-1.7q0-2.4-1.5-4t-4.7-1.6q-3.2 0-4.6 1.6-1.5 1.6-1.5 4v1.7q0 2.5 1.5 4.1 1.4 1.6 4.6 1.6ZM558 183h-6.1q-3.3 0-5.4-1.7-2-1.7-2.3-4.9h-.4q-1 3.7-4 5.5-3 1.9-7.3 1.9-5.4 0-8.7-2.9-3.3-2.9-3.3-8.2 0-5.8 4.3-8.6 4.2-2.8 12.4-2.8h6v-1.9q0-3.3-1.5-5-1.6-1.7-5.2-1.7-3.4 0-5.5 1.3t-3.6 3.4l-5.8-5.2q1.8-3.2 5.8-5.2 4-2.1 10.3-2.1 7.6 0 11.9 3.5 4.3 3.5 4.3 10.6v16.2h4.1v7.8Zm-21.5-6.2q2.8 0 4.8-1.3 1.9-1.4 1.9-4V167h-5.7q-6.5 0-6.5 4.4v1.5q0 1.9 1.5 2.9t4 1Zm83 6.2h-10.8v-50.3h19.4q3.7 0 6.6 1.1 2.8 1.1 4.8 3.2t3 5.1q1 2.9 1 6.6 0 3.7-1 6.6-1 3-3 5-2 2.1-4.8 3.2-2.9 1.2-6.6 1.2h-8.6V183Zm0-41.6V156h5.9q3.8 0 5.3-1.5 1.4-1.4 1.4-4.7v-2.2q0-3.3-1.4-4.8-1.5-1.4-5.3-1.4h-5.9Zm50.8-.4q-3.6 0-5-1.4-1.4-1.5-1.4-3.6v-2.1q0-2.1 1.4-3.6 1.4-1.4 5-1.4t5 1.4q1.4 1.5 1.4 3.6v2.1q0 2.1-1.4 3.6-1.4 1.4-5 1.4Zm-17.1 42v-8.3H665v-20.6h-11.8v-8.3h22.4v28.9h11v8.3h-33.4Zm107.5 0v-21.1h-12.6V183h-10.9v-50.3h10.9v20.4h12.6v-20.4h10.9V183h-10.9Zm36.9.8q-4.3 0-7.8-1.3-3.4-1.3-5.8-3.9-2.5-2.5-3.8-6.1-1.2-3.6-1.2-8.1 0-4.6 1.2-8.2 1.3-3.6 3.8-6.1 2.4-2.5 5.8-3.8 3.5-1.4 7.8-1.4t7.8 1.4q3.4 1.3 5.8 3.8 2.5 2.5 3.8 6.1 1.2 3.6 1.2 8.2 0 4.5-1.2 8.1-1.3 3.6-3.8 6.1-2.4 2.6-5.8 3.9-3.5 1.3-7.8 1.3Zm0-7.9q3.6 0 5.6-2.2 2-2.3 2-6.4v-5.9q0-4.1-2-6.3t-5.6-2.2q-3.6 0-5.6 2.2-2 2.2-2 6.3v5.9q0 4.1 2 6.4 2 2.2 5.6 2.2Zm26.5 7.1v-8.3h11.4V138h-11.4v-8.3h22v45h11.4v8.3h-33.4Zm60.9.8q-9.4 0-14.2-5.2-4.8-5.2-4.8-14.1 0-4.5 1.3-8.2 1.2-3.6 3.6-6.1 2.3-2.6 5.6-3.9 3.4-1.4 7.6-1.4 4.1 0 7.5 1.4 3.3 1.3 5.6 3.7 2.3 2.5 3.5 6 1.3 3.5 1.3 7.8v3.2h-25.4v.6q0 3.6 2.2 5.8 2.2 2.2 6.6 2.2 3.3 0 5.7-1.3 2.3-1.2 4.1-3.3l5.7 6.3q-2.1 2.6-6 4.6-3.9 1.9-9.9 1.9Zm-.9-31.2q-3.4 0-5.5 2.1-2 2.1-2 5.7v.6h15v-.6q0-3.7-2-5.7-2-2.1-5.5-2.1Zm-732.2 82q-3.6 0-5-1.4-1.4-1.5-1.4-3.6v-2.1q0-2.1 1.4-3.6 1.4-1.4 5-1.4t5 1.4q1.4 1.5 1.4 3.6v2.1q0 2.1-1.4 3.6-1.4 1.4-5 1.4Zm-17.1 42v-8.3h11.8v-20.6h-11.8v-8.3h22.4v28.9h11v8.3h-33.4Zm51.7 0h-10.6v-37.2h10.6v6.8h.5q.6-1.6 1.6-3 .9-1.4 2.2-2.4 1.4-1 3.1-1.7 1.8-.6 4-.6 2.7 0 4.9.9t3.8 2.7q1.6 1.8 2.5 4.4.9 2.6.9 6v24.1h-10.6v-22.7q0-7.2-6.3-7.2-1.2 0-2.4.4-1.2.3-2.1 1-1 .7-1.5 1.7-.6 1-.6 2.3v24.5Zm49.1.8q-6.2 0-10.8-1.9-4.6-1.8-6.9-5.1l6-5.5q2.2 2.4 5.1 3.7 2.9 1.3 6.6 1.3 3.2 0 5-.9 1.8-1 1.8-3 0-1.6-1.2-2.2-1.2-.6-3.4-1l-6-.9q-2.5-.4-4.7-1.2-2.1-.7-3.7-2t-2.5-3.2q-1-1.8-1-4.5 0-5.8 4.5-9.2 4.5-3.3 12.5-3.3 5.5 0 9.4 1.5 3.8 1.5 6.1 4.2l-5.3 6.1q-1.7-1.8-4.3-3.1-2.6-1.2-6.2-1.2-6.2 0-6.2 3.8 0 1.6 1.2 2.2 1.2.6 3.4 1l5.9.9q2.5.4 4.7 1.2 2.1.7 3.8 2 1.6 1.3 2.5 3.2.9 1.9.9 4.5 0 5.8-4.5 9.2-4.5 3.4-12.7 3.4Zm60.2-.8h-13.7q-5.8 0-8.6-3.1-2.8-3-2.8-7.7v-18.1h-10.1v-8.3h6.6q2.4 0 3.4-.9 1-1 1-3.5v-8.7h9.8v13.1h14.4v8.3h-14.4v20.6h14.4v8.3Zm46.2 0h-6.1q-3.3 0-5.4-1.7-2-1.7-2.3-4.9h-.4q-1 3.7-4 5.5-3 1.9-7.3 1.9-5.4 0-8.7-2.9-3.3-2.9-3.3-8.2 0-5.8 4.3-8.6 4.2-2.8 12.4-2.8h6V253q0-3.3-1.5-5-1.6-1.7-5.2-1.7-3.4 0-5.5 1.3t-3.6 3.4l-5.8-5.2q1.8-3.2 5.8-5.2 4-2.1 10.3-2.1 7.6 0 11.9 3.5 4.3 3.5 4.3 10.6v16.2h4.1v7.8Zm-21.5-6.2q2.8 0 4.8-1.3 1.9-1.4 1.9-4v-4.5h-5.7q-6.5 0-6.5 4.4v1.5q0 1.9 1.5 2.9t4 1Zm38.8 6.2h-10.6v-37.2h10.6v6.8h.5q.6-1.6 1.6-3 .9-1.4 2.2-2.4 1.4-1 3.1-1.7 1.8-.6 4-.6 2.7 0 4.9.9t3.8 2.7q1.6 1.8 2.5 4.4.9 2.6.9 6v24.1h-10.6v-22.7q0-7.2-6.3-7.2-1.2 0-2.4.4-1.2.3-2.1 1-1 .7-1.5 1.7-.6 1-.6 2.3v24.5Zm51 .8q-4.4 0-7.9-1.3t-5.9-3.9q-2.4-2.5-3.7-6.1-1.3-3.6-1.3-8.1 0-4.6 1.3-8.2 1.3-3.6 3.7-6.1 2.4-2.5 5.9-3.8 3.5-1.4 7.8-1.4 6.2 0 9.9 2.5t5.6 6.6l-8.2 4.5q-1-2.2-2.6-3.6-1.6-1.5-4.7-1.5-3.6 0-5.6 2.2-2 2.1-2 5.8v6q0 3.7 2 5.8 2 2.1 5.8 2.1 3.1 0 4.8-1.4 1.8-1.5 3-3.8l8.1 4.6q-2 4.1-5.9 6.6-3.8 2.5-10.1 2.5Zm42.7 0q-9.4 0-14.2-5.2-4.8-5.2-4.8-14.1 0-4.5 1.3-8.2 1.2-3.6 3.6-6.1 2.3-2.6 5.6-3.9 3.4-1.4 7.6-1.4 4.1 0 7.5 1.4 3.3 1.3 5.6 3.7 2.3 2.5 3.5 6 1.3 3.5 1.3 7.8v3.2h-25.4v.6q0 3.6 2.2 5.8 2.2 2.2 6.6 2.2 3.3 0 5.7-1.3 2.3-1.2 4.1-3.3l5.7 6.3q-2.1 2.6-6 4.6-3.9 1.9-9.9 1.9Zm-.9-31.2q-3.4 0-5.5 2.1-2 2.1-2 5.7v.6h15v-.6q0-3.7-2-5.7-2-2.1-5.5-2.1Zm69.6 30.4-4.4-37.2h8.9l2.6 30.1h.7l4.4-30.1h9.4l4.3 30.1h.7l2.8-30.1h8.4l-4.4 37.2h-12.7l-3.6-25.7h-.8l-3.6 25.7h-12.7Zm62.2-42q-3.6 0-5-1.4-1.4-1.5-1.4-3.6v-2.1q0-2.1 1.4-3.6 1.4-1.4 5-1.4t5 1.4q1.4 1.5 1.4 3.6v2.1q0 2.1-1.4 3.6-1.4 1.4-5 1.4Zm-17.1 42v-8.3h11.8v-20.6h-11.8v-8.3h22.4v28.9h11v8.3h-33.4Zm74.6 0h-13.7q-5.8 0-8.6-3.1-2.8-3-2.8-7.7v-18.1h-10.1v-8.3h6.6q2.4 0 3.4-.9 1-1 1-3.5v-8.7h9.8v13.1h14.4v8.3H627v20.6h14.4v8.3Zm9.7 0v-53.3h10.6v22.9h.5q.6-1.6 1.6-3 .9-1.4 2.2-2.4 1.4-1 3.1-1.7 1.8-.6 4-.6 2.7 0 4.9.9t3.8 2.7q1.6 1.8 2.5 4.4.9 2.6.9 6v24.1h-10.6v-22.7q0-7.2-6.3-7.2-1.2 0-2.4.4-1.2.3-2.1 1-1 .7-1.5 1.7-.6 1-.6 2.3v24.5h-10.6Zm124.5 0h-11.5l-3.1-12.1h-13.8l-3.1 12.1h-10.9l13.6-50.3H762l13.6 50.3Zm-16.3-20.9-4.9-19h-.6l-4.9 19h10.4Zm32 20.9h-10.6v-37.2h10.6v6.8h.5q.6-1.6 1.6-3 .9-1.4 2.2-2.4 1.4-1 3.1-1.7 1.8-.6 4-.6 2.7 0 4.9.9t3.8 2.7q1.6 1.8 2.5 4.4.9 2.6.9 6v24.1h-10.6v-22.7q0-7.2-6.3-7.2-1.2 0-2.4.4-1.2.3-2.1 1-1 .7-1.5 1.7-.6 1-.6 2.3v24.5Zm49.1.8q-6.2 0-10.8-1.9-4.6-1.8-6.9-5.1l6-5.5q2.2 2.4 5.1 3.7 2.9 1.3 6.6 1.3 3.2 0 5-.9 1.8-1 1.8-3 0-1.6-1.2-2.2-1.2-.6-3.4-1l-6-.9q-2.5-.4-4.7-1.2-2.1-.7-3.7-2t-2.5-3.2q-1-1.8-1-4.5 0-5.8 4.5-9.2 4.5-3.3 12.5-3.3 5.5 0 9.4 1.5 3.8 1.5 6.1 4.2l-5.3 6.1q-1.7-1.8-4.3-3.1-2.6-1.2-6.2-1.2-6.2 0-6.2 3.8 0 1.6 1.2 2.2 1.2.6 3.4 1l5.9.9q2.5.4 4.7 1.2 2.1.7 3.8 2 1.6 1.3 2.5 3.2.9 1.9.9 4.5 0 5.8-4.5 9.2-4.5 3.4-12.7 3.4Zm45.9-42.8q-3.6 0-5-1.4-1.4-1.5-1.4-3.6v-2.1q0-2.1 1.4-3.6 1.4-1.4 5-1.4t5 1.4q1.4 1.5 1.4 3.6v2.1q0 2.1-1.4 3.6-1.4 1.4-5 1.4Zm-17.1 42v-8.3H881v-20.6h-11.8v-8.3h22.4v28.9h11v8.3h-33.4Zm40.6 0v-53.3h10.7v22.9h.5q1.4-3.3 4-5.5t7-2.2q3.1 0 5.7 1.2 2.5 1.1 4.4 3.5 1.8 2.4 2.8 6.1 1.1 3.6 1.1 8.7 0 5-1.1 8.7-1 3.7-2.8 6-1.9 2.4-4.4 3.6-2.6 1.1-5.7 1.1-4.4 0-7-2.1-2.6-2.1-4-5.5h-.5v6.8h-10.7Zm17.6-7.5q3.6 0 5.6-2.2 1.9-2.2 1.9-6v-5.8q0-3.9-1.9-6.1-2-2.2-5.6-2.2-2.8 0-4.8 1.4-2.1 1.4-2.1 4.3v10.9q0 3 2.1 4.4 2 1.3 4.8 1.3Zm26.3 7.5v-8.3h11.4v-36.7h-11.4v-8.3h22v45h11.4v8.3h-33.4Zm60.9.8q-9.4 0-14.2-5.2-4.8-5.2-4.8-14.1 0-4.5 1.3-8.2 1.2-3.6 3.6-6.1 2.3-2.6 5.6-3.9 3.4-1.4 7.6-1.4 4.1 0 7.5 1.4 3.3 1.3 5.6 3.7 2.3 2.5 3.5 6 1.3 3.5 1.3 7.8v3.2h-25.4v.6q0 3.6 2.2 5.8 2.2 2.2 6.6 2.2 3.3 0 5.7-1.3 2.3-1.2 4.1-3.3l5.7 6.3q-2.1 2.6-6 4.6-3.9 1.9-9.9 1.9Zm-.9-31.2q-3.4 0-5.5 2.1-2 2.1-2 5.7v.6h15v-.6q0-3.7-2-5.7-2-2.1-5.5-2.1Zm-844.5 124h-6.1q-3.3 0-5.4-1.7-2-1.7-2.3-4.9h-.4q-1 3.7-4 5.5-3 1.9-7.3 1.9-5.4 0-8.7-2.9-3.3-2.9-3.3-8.2 0-5.8 4.3-8.6 4.2-2.8 12.4-2.8h6v-1.9q0-3.3-1.5-5-1.6-1.7-5.2-1.7-3.4 0-5.5 1.3t-3.6 3.4l-5.8-5.2q1.8-3.2 5.8-5.2 4-2.1 10.3-2.1 7.6 0 11.9 3.5 4.3 3.5 4.3 10.6v16.2h4.1v7.8Zm-21.5-6.2q2.8 0 4.8-1.3 1.9-1.4 1.9-4v-4.5h-5.7q-6.5 0-6.5 4.4v1.5q0 1.9 1.5 2.9t4 1Zm38.8 6.2h-10.6V333h10.6v6.8h.5q.6-1.6 1.6-3 .9-1.4 2.2-2.4 1.4-1 3.1-1.7 1.8-.6 4-.6 2.7 0 4.9.9t3.8 2.7q1.6 1.8 2.5 4.4.9 2.6.9 6v24.1h-10.6v-22.7q0-7.2-6.3-7.2-1.2 0-2.4.4-1.2.3-2.1 1-1 .7-1.5 1.7-.6 1-.6 2.3v24.5Zm56.2 0v-6.8h-.5q-1.4 3.4-4 5.5t-7 2.1q-3.1 0-5.7-1.1-2.5-1.2-4.4-3.6-1.8-2.3-2.8-6-1.1-3.7-1.1-8.7 0-5.1 1.1-8.7 1-3.7 2.8-6.1 1.9-2.4 4.4-3.5 2.6-1.2 5.7-1.2 2.2 0 3.9.6 1.8.6 3.1 1.6t2.3 2.4q1 1.4 1.7 3.1h.5v-22.9h10.7v53.3h-10.7Zm-6.9-7.5q2.8 0 4.8-1.3 2.1-1.4 2.1-4.4v-10.9q0-2.9-2.1-4.3-2-1.4-4.8-1.4-3.6 0-5.6 2.2-1.9 2.2-1.9 6.1v5.8q0 3.8 1.9 6 2 2.2 5.6 2.2Zm69.6 7.5v-50.3h16.2q10.2 0 15.1 6.5t4.9 18.6q0 12.2-4.9 18.7t-15.1 6.5h-16.2Zm10.7-8.5h4.8q4.8 0 7-3.1 2.3-3.1 2.3-9v-9.2q0-5.8-2.3-8.9-2.2-3.1-7-3.1h-4.8v33.3Zm49.5 9.3q-4.3 0-7.8-1.3-3.4-1.3-5.8-3.9-2.5-2.5-3.8-6.1-1.2-3.6-1.2-8.1 0-4.6 1.2-8.2 1.3-3.6 3.8-6.1 2.4-2.5 5.8-3.8 3.5-1.4 7.8-1.4t7.8 1.4q3.4 1.3 5.8 3.8 2.5 2.5 3.8 6.1 1.2 3.6 1.2 8.2 0 4.5-1.2 8.1-1.3 3.6-3.8 6.1-2.4 2.6-5.8 3.9-3.5 1.3-7.8 1.3Zm0-7.9q3.6 0 5.6-2.2 2-2.3 2-6.4v-5.9q0-4.1-2-6.3t-5.6-2.2q-3.6 0-5.6 2.2-2 2.2-2 6.3v5.9q0 4.1 2 6.4 2 2.2 5.6 2.2Zm44.7 7.9q-4.4 0-7.9-1.3t-5.9-3.9q-2.4-2.5-3.7-6.1-1.3-3.6-1.3-8.1 0-4.6 1.3-8.2 1.3-3.6 3.7-6.1 2.4-2.5 5.9-3.8 3.5-1.4 7.8-1.4 6.2 0 9.9 2.5t5.6 6.6l-8.2 4.5q-1-2.2-2.6-3.6-1.6-1.5-4.7-1.5-3.6 0-5.6 2.2-2 2.1-2 5.8v6q0 3.7 2 5.8 2 2.1 5.8 2.1 3.1 0 4.8-1.4 1.8-1.5 3-3.8l8.1 4.6q-2 4.1-5.9 6.6-3.8 2.5-10.1 2.5Zm24.8-.8v-53.3h10.6v30.2h.5l5-5.8 7.8-8.3h12.2l-14.4 14.7 15.9 22.5h-12.6l-10.8-16.5-3.6 3.6v12.9h-10.6Zm61.1.8q-9.4 0-14.2-5.2-4.8-5.2-4.8-14.1 0-4.5 1.3-8.2 1.2-3.6 3.6-6.1 2.3-2.6 5.6-3.9 3.4-1.4 7.6-1.4 4.1 0 7.5 1.4 3.3 1.3 5.6 3.7 2.3 2.5 3.5 6 1.3 3.5 1.3 7.8v3.2h-25.4v.6q0 3.6 2.2 5.8 2.2 2.2 6.6 2.2 3.3 0 5.7-1.3 2.3-1.2 4.1-3.3l5.7 6.3q-2.1 2.6-6 4.6-3.9 1.9-9.9 1.9Zm-.9-31.2q-3.4 0-5.5 2.1-2 2.1-2 5.7v.6h15v-.6q0-3.7-2-5.7-2-2.1-5.5-2.1Zm26.8 30.4v-8.3h8.6v-20.6h-8.6V333h19.3v10.5h.5q.5-2 1.4-3.9.9-1.9 2.3-3.4t3.4-2.3q2-.9 4.7-.9h3.6v9.8h-8q-3.9 0-5.9 2.3-2 2.4-2 5.8v11h12.2v8.3h-31.5Z" clip-path="url(#c)" mask="url(#d)"/><path d="M130.7 520.3v-20.7h2.2v8.6h.1q1.4-2.7 4.5-2.7 2.6 0 4.1 2 1.5 2 1.5 5.5 0 3.6-1.5 5.6-1.5 2-4.1 2-3.1 0-4.5-2.7h-.1v2.4h-2.2Zm5.9-1.7q2 0 3-1.2 1.1-1.2 1.1-3.1v-2.5q0-1.9-1.1-3.1-1-1.2-3-1.2-.8 0-1.4.2-.7.2-1.2.5-.5.4-.8 1-.3.5-.3 1.2v5.3q0 .7.3 1.2.3.6.8.9.5.4 1.2.6.6.2 1.4.2Zm18.8-6.7 2.5-6.1h2.2l-7.2 17.6q-.2.7-.5 1.1-.3.5-.7.8-.5.3-1 .4-.6.2-1.4.2h-2.2V524h3.4l1.6-4-5.8-14.2h2.3l2.4 6.1 2.2 5.5h.1l2.1-5.5Z"/><clipPath id="e"><path d="M178 489h168v36H178z"/></clipPath><mask id="f"><path fill="#fff" d="M178 489h168v36H178z"/></mask><path d="M194.1 504h-5.6v16.1h-4.2V504h-5.6v-3.5h15.4v3.5Zm10-.2q-1.4 0-1.9-.6-.6-.6-.6-1.4v-.8q0-.8.6-1.4.5-.5 1.9-.5t1.9.5q.6.6.6 1.4v.8q0 .8-.6 1.4-.5.6-1.9.6Zm-6.7 16.3v-3.2h4.6v-8h-4.6v-3.3h8.8v11.3h4.2v3.2h-13Zm18.4 0h-3.4v-14.5h3.4v2.2h.2q.3-1 .9-1.8.7-.7 1.8-.7 2.1 0 2.6 2.5h.2q.1-.5.4-1 .2-.4.6-.8.4-.3.9-.5t1.1-.2q3.1 0 3.1 4.5v10.3h-3.4v-9.9q0-1-.3-1.4-.4-.4-.9-.4-.6 0-.9.3-.4.4-.4 1.1v10.3h-3.4v-9.9q0-1-.3-1.4-.3-.4-.9-.4-.5 0-.9.3-.4.4-.4 1.1v10.3Zm36.2 0h-5.3l-1.2-19.6h3.6l.6 11.8.1 3.6h.3l1.7-11.1h3.8l1.6 11.1h.3l.2-3.5.5-11.9h3.5l-1.2 19.6h-5.3l-1.5-10.8h-.2l-1.5 10.8Zm26 0h-2.4q-1.3 0-2-.7-.8-.6-1-1.9h-.1q-.4 1.5-1.6 2.2-1.1.7-2.8.7-2.1 0-3.4-1.1-1.2-1.1-1.2-3.2 0-2.3 1.6-3.3 1.7-1.1 4.9-1.1h2.3v-.8q0-1.3-.6-1.9-.6-.7-2.1-.7-1.3 0-2.1.5t-1.4 1.4l-2.3-2.1q.8-1.2 2.3-2 1.6-.8 4-.8 3 0 4.7 1.4 1.6 1.3 1.6 4.1v6.3h1.6v3Zm-8.3-2.4q1.1 0 1.8-.5.8-.6.8-1.6v-1.7h-2.2q-2.6 0-2.6 1.7v.6q0 .7.6 1.1.6.4 1.6.4Zm24 2.4h-5.4q-2.2 0-3.3-1.2-1.1-1.2-1.1-3v-7H280v-3.3h2.5q.9 0 1.3-.3.4-.4.4-1.4v-3.4h3.8v5.1h5.7v3.3H288v8h5.7v3.2Zm10.1.3q-2.4 0-4.2-.7-1.7-.7-2.6-2l2.3-2.1q.8.9 2 1.4 1.1.5 2.6.5 1.2 0 1.9-.4.7-.3.7-1.1 0-.6-.5-.9-.5-.2-1.3-.4l-2.3-.3q-1-.2-1.8-.5-.9-.2-1.5-.8-.6-.5-1-1.2-.3-.7-.3-1.7 0-2.3 1.7-3.6 1.7-1.3 4.9-1.3 2.1 0 3.6.6t2.4 1.6l-2.1 2.4q-.6-.7-1.6-1.2t-2.5-.5q-2.4 0-2.4 1.5 0 .6.5.9.5.2 1.3.3l2.3.4q1 .1 1.8.4.9.3 1.5.8t1 1.3q.4.7.4 1.7 0 2.3-1.8 3.6-1.7 1.3-5 1.3Zm17 0q-1.7 0-3-.5-1.4-.5-2.3-1.5-.9-1-1.4-2.4-.6-1.4-.6-3.1 0-1.8.6-3.2.5-1.4 1.4-2.4.9-1 2.3-1.5 1.3-.5 3-.5t3 .5q1.4.5 2.3 1.5.9 1 1.4 2.4.6 1.4.6 3.2 0 1.7-.6 3.1-.5 1.4-1.4 2.4-.9 1-2.3 1.5-1.3.5-3 .5Zm0-3.1q1.4 0 2.2-.8.8-.9.8-2.5v-2.3q0-1.6-.8-2.4-.8-.9-2.2-.9-1.4 0-2.2.9-.8.8-.8 2.4v2.3q0 1.6.8 2.5.8.8 2.2.8Zm14.4 2.8H331v-14.5h4.2v2.7h.1l.6-1.2q.4-.5.9-.9t1.2-.7q.7-.2 1.6-.2 1 0 1.9.4.9.3 1.5 1t.9 1.7q.4 1 .4 2.3v9.4h-4.2v-8.8q0-2.8-2.4-2.8-.5 0-.9.1-.5.2-.9.4-.3.3-.5.7-.2.4-.2.9v9.5Z" clip-path="url(#e)" mask="url(#f)"/><clipPath id="g"><path d="M786 489h286v36H786z"/></clipPath><mask id="h"><path fill="#fff" d="M786 489h286v36H786z"/></mask><path d="M802.1 504h-5.6v16.1h-4.2V504h-5.6v-3.5h15.4v3.5Zm10-.2q-1.4 0-2-.6-.5-.6-.5-1.4v-.8q0-.8.5-1.4.6-.5 2-.5t1.9.5q.6.6.6 1.4v.8q0 .8-.6 1.4-.5.6-1.9.6Zm-6.7 16.3v-3.2h4.6v-8h-4.6v-3.3h8.8v11.3h4.2v3.2h-13Zm18.4 0h-3.4v-14.5h3.4v2.2h.2q.3-1 .9-1.8.7-.7 1.8-.7 2.1 0 2.6 2.5h.2q.1-.5.4-1 .2-.4.6-.8.4-.3.9-.5t1.1-.2q3.1 0 3.1 4.5v10.3h-3.4v-9.9q0-1-.3-1.4-.4-.4-.9-.4-.6 0-.9.3-.4.4-.4 1.1v10.3h-3.4v-9.9q0-1-.3-1.4-.3-.4-.9-.4-.5 0-.9.3-.4.4-.4 1.1v10.3Zm36.2 0h-5.3l-1.2-19.6h3.6l.6 11.8.1 3.6h.3l1.7-11.1h3.8l1.6 11.1h.3l.2-3.5.5-11.9h3.5l-1.2 19.6h-5.3l-1.5-10.8h-.2l-1.5 10.8Zm26 0h-2.4q-1.3 0-2-.7-.8-.6-1-1.9h-.1q-.4 1.5-1.6 2.2-1.1.7-2.8.7-2.1 0-3.4-1.1-1.2-1.1-1.2-3.2 0-2.3 1.6-3.3 1.7-1.1 4.9-1.1h2.3v-.8q0-1.3-.6-1.9-.6-.7-2.1-.7-1.3 0-2.1.5t-1.4 1.4l-2.3-2.1q.8-1.2 2.3-2 1.6-.8 4-.8 3 0 4.7 1.4 1.6 1.3 1.6 4.1v6.3h1.6v3Zm-8.3-2.4q1.1 0 1.8-.5.8-.6.8-1.6v-1.7h-2.2q-2.6 0-2.6 1.7v.6q0 .7.6 1.1.6.4 1.6.4Zm24 2.4h-5.4q-2.2 0-3.3-1.2-1.1-1.2-1.1-3v-7H888v-3.3h2.5q.9 0 1.3-.3.4-.4.4-1.4v-3.4h3.8v5.1h5.7v3.3H896v8h5.7v3.2Zm10.1.3q-2.4 0-4.2-.7-1.7-.7-2.6-2l2.3-2.1q.8.9 2 1.4 1.1.5 2.6.5 1.2 0 1.9-.4.7-.3.7-1.1 0-.6-.5-.9-.5-.2-1.3-.4l-2.3-.3q-1-.2-1.8-.5-.9-.2-1.5-.8-.6-.5-1-1.2-.3-.7-.3-1.7 0-2.3 1.7-3.6 1.7-1.3 4.9-1.3 2.1 0 3.6.6t2.4 1.6l-2.1 2.4q-.6-.7-1.6-1.2t-2.5-.5q-2.4 0-2.4 1.5 0 .6.5.9.5.2 1.3.3l2.3.4q1 .1 1.8.4.9.3 1.5.8t1 1.3q.4.7.4 1.7 0 2.3-1.8 3.6-1.7 1.3-5 1.3Zm17 0q-1.7 0-3-.5-1.4-.5-2.3-1.5-.9-1-1.4-2.4-.6-1.4-.6-3.1 0-1.8.6-3.2.5-1.4 1.4-2.4.9-1 2.3-1.5 1.3-.5 3-.5t3 .5q1.4.5 2.3 1.5.9 1 1.4 2.4.6 1.4.6 3.2 0 1.7-.6 3.1-.5 1.4-1.4 2.4-.9 1-2.3 1.5-1.3.5-3 .5Zm0-3.1q1.4 0 2.2-.8.8-.9.8-2.5v-2.3q0-1.6-.8-2.4-.8-.9-2.2-.9-1.4 0-2.2.9-.8.8-.8 2.4v2.3q0 1.6.8 2.5.8.8 2.2.8Zm14.4 2.8H939v-14.5h4.2v2.7h.1l.6-1.2q.4-.5.9-.9t1.2-.7q.7-.2 1.6-.2 1 0 1.9.4.9.3 1.5 1t.9 1.7q.4 1 .4 2.3v9.4h-4.2v-8.8q0-2.8-2.4-2.8-.5 0-.9.1-.5.2-.9.4-.3.3-.5.7-.2.4-.2.9v9.5Zm21-11.6h-3.6v-9.1h3.6v9.1Zm14.8 11.9q-2.4 0-4.2-.7-1.7-.7-2.6-2l2.3-2.1q.8.9 2 1.4 1.1.5 2.6.5 1.2 0 1.9-.4.7-.3.7-1.1 0-.6-.5-.9-.5-.2-1.3-.4l-2.3-.3q-1-.2-1.8-.5-.9-.2-1.5-.8-.6-.5-1-1.2-.3-.7-.3-1.7 0-2.3 1.7-3.6 1.7-1.3 4.9-1.3 2.1 0 3.6.6t2.4 1.6l-2.1 2.4q-.6-.7-1.6-1.2t-2.5-.5q-2.4 0-2.4 1.5 0 .6.5.9.5.2 1.3.3l2.3.4q1 .1 1.8.4.9.3 1.5.8t1 1.3q.4.7.4 1.7 0 2.3-1.8 3.6-1.7 1.3-5 1.3Zm27.6-.3v-19.6h6.8q2.9 0 4.4 1.4 1.6 1.4 1.6 3.9 0 1.6-.9 2.6-.8 1-2.3 1.5v.1q1.8.5 2.8 1.6 1 1.1 1 3.1 0 2.5-1.6 3.9-1.5 1.5-4.3 1.5h-7.5Zm4-2.9h2.2q1.5 0 2.2-.6.7-.5.7-1.8v-.8q0-1.4-.7-1.9t-2.2-.5h-2.2v5.6Zm0-8.4h1.6q1.5 0 2.2-.5.7-.4.7-1.7v-.9q0-1.3-.7-1.7-.7-.5-2.2-.5h-1.6v5.3Zm12.5 11.3v-3.2h4.4v-14.3h-4.4v-3.2h8.6v17.5h4.4v3.2h-13Zm23.3.3q-1.7 0-3-.5-1.4-.5-2.3-1.5-.9-1-1.4-2.4-.6-1.4-.6-3.1 0-1.8.6-3.2.5-1.4 1.4-2.4.9-1 2.3-1.5 1.3-.5 3-.5t3 .5q1.4.5 2.3 1.5.9 1 1.4 2.4.6 1.4.6 3.2 0 1.7-.6 3.1-.5 1.4-1.4 2.4-.9 1-2.3 1.5-1.3.5-3 .5Zm0-3.1q1.4 0 2.2-.8.8-.9.8-2.5v-2.3q0-1.6-.8-2.4-.8-.9-2.2-.9-1.4 0-2.2.9-.8.8-.8 2.4v2.3q0 1.6.8 2.5.8.8 2.2.8Zm24.7 4.2q0 2.3-1.9 3.4t-6.1 1.1q-2.1 0-3.4-.2-1.3-.2-2.1-.7-.8-.4-1.2-1.1-.3-.6-.3-1.3 0-1.2.7-1.9.8-.6 2.1-.9v-.2q-.9-.3-1.5-.8-.5-.5-.5-1.5t.7-1.5q.7-.5 1.9-.8v-.2q-1.3-.6-2-1.7t-.7-2.7q0-1.3.4-2.3.5-.9 1.3-1.6.8-.6 2-1 1.1-.3 2.5-.3t2.6.3v-.8q0-.8.6-1.4.6-.5 1.6-.5h2.5v3h-3.4v.2q1.1.7 1.8 1.7.7 1.1.7 2.7 0 1.2-.5 2.2-.4.9-1.3 1.6-.8.6-2 1-1.1.3-2.6.3-.6 0-1.2-.1-.6 0-1.1-.2-.3.2-.5.5-.2.2-.2.6 0 .3.1.5.2.2.5.3.3.1.7.1.4.1.8.1h3.3q1.5 0 2.6.3t1.8.9q.7.5 1 1.3.3.7.3 1.6Zm-3.9.4q0-.6-.4-.9-.5-.3-1.8-.3h-4.9q-.6.4-.6 1.1 0 .7.6 1.1.6.5 2 .5h2.4q1.4 0 2.1-.4.6-.4.6-1.1Zm-4.2-8.9q1.3 0 1.9-.6.5-.7.5-1.6v-.7q0-.9-.5-1.5-.6-.7-1.9-.7-1.2 0-1.8.7-.5.6-.5 1.5v.7q0 .9.5 1.6.6.6 1.8.6Z" clip-path="url(#g)" mask="url(#h)"/></svg>