<svg width="1200" height="630" viewBox="0 0 1200 630" xmlns="http://www.w3.org/2000/svg"><mask id="satori_om-id"><rect x="0" y="0" width="1200" height="630" fill="#fff"/></mask><rect x="0" y="0" width="1200" height="630" fill="#fefbfb"/><defs><clipPath id="satori_bc-id-0"><path x="105" y="39" width="1056" height="504" d="M109,39 h1048 a4,4 0 0 1 4,4 v496 a4,4 0 0 1 -4,4 h-1048 a4,4 0 0 1 -4,-4 v-496 a4,4 0 0 1 4,-4"/></clipPath></defs><mask id="satori_om-id-0"><rect x="109" y="43" width="1048" height="496" fill="#fff"/><path width="1056" height="504" fill="none" stroke="#000" stroke-width="8" d="M106.172,40.172 A4,4 0 0 1 109,39 h1048 a4,4 0 0 1 4,4 v496 a4,4 0 0 1 -4,4 h-1048 a4,4 0 0 1 -4,-4 v-496 A4,4 0 0 1 106.172,40.172"/></mask><g opacity="0.9"><path x="105" y="39" width="1056" height="504" fill="#ecebeb" d="M109,39 h1048 a4,4 0 0 1 4,4 v496 a4,4 0 0 1 -4,4 h-1048 a4,4 0 0 1 -4,-4 v-496 a4,4 0 0 1 4,-4"/><path width="1056" height="504" clip-path="url(#satori_bc-id-0)" fill="none" stroke="#000" stroke-width="8" d="M106.172,40.172 A4,4 0 0 1 109,39 h1048 a4,4 0 0 1 4,4 v496 a4,4 0 0 1 -4,4 h-1048 a4,4 0 0 1 -4,-4 v-496 A4,4 0 0 1 106.172,40.172"/></g><defs><clipPath id="satori_bc-id-1"><path x="72" y="63" width="1056" height="504" d="M76,63 h1048 a4,4 0 0 1 4,4 v496 a4,4 0 0 1 -4,4 h-1048 a4,4 0 0 1 -4,-4 v-496 a4,4 0 0 1 4,-4"/></clipPath></defs><mask id="satori_om-id-1"><rect x="76" y="67" width="1048" height="496" fill="#fff"/><path width="1056" height="504" fill="none" stroke="#000" stroke-width="8" d="M73.172,64.172 A4,4 0 0 1 76,63 h1048 a4,4 0 0 1 4,4 v496 a4,4 0 0 1 -4,4 h-1048 a4,4 0 0 1 -4,-4 v-496 A4,4 0 0 1 73.172,64.172"/></mask><path x="72" y="63" width="1056" height="504" fill="#fefbfb" d="M76,63 h1048 a4,4 0 0 1 4,4 v496 a4,4 0 0 1 -4,4 h-1048 a4,4 0 0 1 -4,-4 v-496 a4,4 0 0 1 4,-4"/><path width="1056" height="504" clip-path="url(#satori_bc-id-1)" fill="none" stroke="#000" stroke-width="8" d="M73.172,64.172 A4,4 0 0 1 76,63 h1048 a4,4 0 0 1 4,4 v496 a4,4 0 0 1 -4,4 h-1048 a4,4 0 0 1 -4,-4 v-496 A4,4 0 0 1 73.172,64.172"/><mask id="satori_om-id-1-0"><rect x="128" y="87" width="944" height="446" fill="#fff"/></mask><clipPath id="satori_cp-id-1-0-0"><rect x="128" y="103" width="944" height="281"/></clipPath><mask id="satori_om-id-1-0-0"><rect x="128" y="103" width="944" height="281" fill="#fff"/></mask><path fill="black" d="M150.8 183.8L150.8 183.8Q140.7 183.8 135.8 177.0Q131.0 170.2 131.0 157.8L131.0 157.8Q131.0 145.4 135.8 138.6Q140.7 131.8 150.8 131.8L150.8 131.8Q154.6 131.8 157.6 132.9Q160.6 133.9 162.8 135.8Q164.9 137.7 166.3 140.3Q167.7 143.0 168.5 146.3L168.5 146.3L158.5 148.8Q158.0 147.0 157.4 145.4Q156.9 143.9 156.0 142.8Q155.1 141.8 153.7 141.2Q152.4 140.5 150.5 140.5L150.5 140.5Q146.1 140.5 144.3 144.0Q142.5 147.4 142.5 153.4L142.5 153.4L142.5 162.2Q142.5 168.3 144.3 171.7Q146.1 175.1 150.5 175.1L150.5 175.1Q154.3 175.1 156.0 172.8Q157.7 170.5 158.5 166.9L158.5 166.9L168.5 169.3Q167.7 172.7 166.3 175.3Q164.9 178.0 162.8 179.9Q160.6 181.8 157.6 182.8Q154.6 183.8 150.8 183.8ZM176.5 183.0L176.5 174.7L185.1 174.7L185.1 154.1L176.5 154.1L176.5 145.8L195.8 145.8L195.8 156.3L196.3 156.3Q196.8 154.3 197.7 152.4Q198.6 150.5 200.0 149.0Q201.4 147.5 203.4 146.7Q205.4 145.8 208.1 145.8L208.1 145.8L211.7 145.8L211.7 155.6L203.7 155.6Q199.8 155.6 197.8 157.9Q195.8 160.3 195.8 163.7L195.8 163.7L195.8 174.7L208.0 174.7L208.0 183.0L176.5 183.0ZM237.0 183.8L237.0 183.8Q227.6 183.8 222.8 178.6Q218.0 173.4 218.0 164.5L218.0 164.5Q218.0 160.0 219.3 156.3Q220.5 152.7 222.9 150.2Q225.2 147.6 228.5 146.3Q231.9 144.9 236.1 144.9L236.1 144.9Q240.2 144.9 243.6 146.3Q246.9 147.6 249.2 150.0Q251.5 152.5 252.7 156.0Q254.0 159.5 254.0 163.8L254.0 163.8L254.0 167.0L228.6 167.0L228.6 167.6Q228.6 171.2 230.8 173.4Q233.0 175.6 237.4 175.6L237.4 175.6Q240.7 175.6 243.1 174.3Q245.4 173.1 247.2 171.0L247.2 171.0L252.9 177.3Q250.8 179.9 246.9 181.9Q243.0 183.8 237.0 183.8ZM236.1 152.6L236.1 152.6Q232.7 152.6 230.6 154.7Q228.6 156.8 228.6 160.4L228.6 160.4L228.6 161.0L243.6 161.0L243.6 160.4Q243.6 156.7 241.6 154.7Q239.6 152.6 236.1 152.6ZM298.8 183.0L292.7 183.0Q289.4 183.0 287.3 181.3Q285.3 179.6 285.0 176.4L285.0 176.4L284.6 176.4Q283.6 180.1 280.6 181.9Q277.6 183.8 273.3 183.8L273.3 183.8Q267.9 183.8 264.6 180.9Q261.3 178.0 261.3 172.7L261.3 172.7Q261.3 166.9 265.6 164.1Q269.8 161.3 278.0 161.3L278.0 161.3L284.0 161.3L284.0 159.4Q284.0 156.1 282.5 154.4Q280.9 152.7 277.3 152.7L277.3 152.7Q273.9 152.7 271.8 154.0Q269.7 155.3 268.2 157.4L268.2 157.4L262.4 152.2Q264.2 149.0 268.2 147.0Q272.2 144.9 278.5 144.9L278.5 144.9Q286.1 144.9 290.4 148.4Q294.7 151.9 294.7 159.0L294.7 159.0L294.7 175.2L298.8 175.2L298.8 183.0ZM277.3 176.8L277.3 176.8Q280.1 176.8 282.1 175.5Q284.0 174.1 284.0 171.5L284.0 171.5L284.0 167.0L278.3 167.0Q271.8 167.0 271.8 171.4L271.8 171.4L271.8 172.9Q271.8 174.8 273.3 175.8Q274.8 176.8 277.3 176.8ZM339.0 183.0L325.3 183.0Q319.5 183.0 316.7 179.9Q313.9 176.9 313.9 172.2L313.9 172.2L313.9 154.1L303.8 154.1L303.8 145.8L310.4 145.8Q312.8 145.8 313.8 144.9Q314.8 143.9 314.8 141.4L314.8 141.4L314.8 132.7L324.6 132.7L324.6 145.8L339.0 145.8L339.0 154.1L324.6 154.1L324.6 174.7L339.0 174.7L339.0 183.0ZM367.9 141.0L367.9 141.0Q364.3 141.0 362.9 139.6Q361.5 138.1 361.5 136.0L361.5 136.0L361.5 133.9Q361.5 131.8 362.9 130.3Q364.3 128.9 367.9 128.9L367.9 128.9Q371.5 128.9 372.9 130.3Q374.3 131.8 374.3 133.9L374.3 133.9L374.3 136.0Q374.3 138.1 372.9 139.6Q371.5 141.0 367.9 141.0ZM350.8 183.0L350.8 174.7L362.6 174.7L362.6 154.1L350.8 154.1L350.8 145.8L373.2 145.8L373.2 174.7L384.2 174.7L384.2 183.0L350.8 183.0ZM402.5 183.0L391.9 183.0L391.9 145.8L402.5 145.8L402.5 152.6L403.0 152.6Q403.6 151.0 404.6 149.6Q405.5 148.2 406.8 147.2Q408.2 146.2 409.9 145.5Q411.7 144.9 413.9 144.9L413.9 144.9Q416.6 144.9 418.8 145.8Q421.0 146.7 422.6 148.5Q424.2 150.3 425.1 152.9Q426.0 155.5 426.0 158.9L426.0 158.9L426.0 183.0L415.4 183.0L415.4 160.3Q415.4 153.1 409.1 153.1L409.1 153.1Q407.9 153.1 406.7 153.5Q405.5 153.8 404.6 154.5Q403.6 155.2 403.1 156.2Q402.5 157.2 402.5 158.5L402.5 158.5L402.5 183.0ZM472.4 186.7L472.4 186.7Q472.4 192.6 467.4 195.4Q462.4 198.2 451.8 198.2L451.8 198.2Q446.5 198.2 443.0 197.6Q439.5 197.0 437.5 195.8Q435.4 194.7 434.6 193.1Q433.8 191.5 433.8 189.6L433.8 189.6Q433.8 186.5 435.7 184.9Q437.5 183.2 440.9 182.4L440.9 182.4L440.9 181.9Q438.5 181.2 437.1 179.9Q435.7 178.6 435.7 176.1L435.7 176.1Q435.7 173.4 437.6 172.1Q439.4 170.8 442.4 170.1L442.4 170.1L442.4 169.6Q439.1 168.0 437.3 165.2Q435.4 162.3 435.4 158.2L435.4 158.2Q435.4 154.9 436.6 152.5Q437.7 150.0 439.9 148.3Q442.0 146.7 444.9 145.8Q447.9 144.9 451.6 144.9L451.6 144.9Q455.1 144.9 458.1 145.7L458.1 145.7L458.1 143.7Q458.1 141.6 459.6 140.1Q461.1 138.7 463.8 138.7L463.8 138.7L470.4 138.7L470.4 146.4L461.4 146.4L461.4 147.1Q464.5 148.7 466.1 151.5Q467.8 154.2 467.8 158.2L467.8 158.2Q467.8 161.4 466.7 163.9Q465.5 166.3 463.4 168.0Q461.2 169.7 458.2 170.6Q455.2 171.4 451.6 171.4L451.6 171.4Q449.9 171.4 448.4 171.3Q446.9 171.1 445.5 170.7L445.5 170.7Q444.7 171.1 444.2 171.8Q443.6 172.4 443.6 173.4L443.6 173.4Q443.6 174.3 444.1 174.8Q444.5 175.3 445.3 175.6Q446.0 175.8 447.0 175.9Q448.0 176.0 449.1 176.0L449.1 176.0L457.6 176.0Q461.6 176.0 464.4 176.8Q467.2 177.6 469.0 179.0Q470.8 180.4 471.6 182.4Q472.4 184.3 472.4 186.7ZM462.3 187.5L462.3 187.5Q462.3 186.0 461.1 185.2Q460.0 184.4 456.8 184.4L456.8 184.4L444.0 184.4Q442.6 185.6 442.6 187.4L442.6 187.4Q442.6 189.1 444.0 190.3Q445.5 191.4 449.0 191.4L449.0 191.4L455.3 191.4Q459.0 191.4 460.6 190.4Q462.3 189.4 462.3 187.5ZM451.6 164.7L451.6 164.7Q454.8 164.7 456.3 163.1Q457.8 161.5 457.8 159.0L457.8 159.0L457.8 157.3Q457.8 154.9 456.3 153.3Q454.8 151.7 451.6 151.7L451.6 151.7Q448.4 151.7 447.0 153.3Q445.5 154.9 445.5 157.3L445.5 157.3L445.5 159.0Q445.5 161.5 447.0 163.1Q448.4 164.7 451.6 164.7Z M558.0 183.0L551.9 183.0Q548.6 183.0 546.5 181.3Q544.5 179.6 544.2 176.4L544.2 176.4L543.8 176.4Q542.8 180.1 539.8 181.9Q536.8 183.8 532.5 183.8L532.5 183.8Q527.1 183.8 523.8 180.9Q520.5 178.0 520.5 172.7L520.5 172.7Q520.5 166.9 524.8 164.1Q529.0 161.3 537.2 161.3L537.2 161.3L543.2 161.3L543.2 159.4Q543.2 156.1 541.7 154.4Q540.1 152.7 536.5 152.7L536.5 152.7Q533.1 152.7 531.0 154.0Q528.9 155.3 527.4 157.4L527.4 157.4L521.6 152.2Q523.4 149.0 527.4 147.0Q531.4 144.9 537.7 144.9L537.7 144.9Q545.3 144.9 549.6 148.4Q553.9 151.9 553.9 159.0L553.9 159.0L553.9 175.2L558.0 175.2L558.0 183.0ZM536.5 176.8L536.5 176.8Q539.3 176.8 541.3 175.5Q543.2 174.1 543.2 171.5L543.2 171.5L543.2 167.0L537.5 167.0Q531.0 167.0 531.0 171.4L531.0 171.4L531.0 172.9Q531.0 174.8 532.5 175.8Q534.0 176.8 536.5 176.8Z M619.5 183.0L608.7 183.0L608.7 132.7L628.1 132.7Q631.8 132.7 634.7 133.8Q637.5 134.9 639.5 137.0Q641.5 139.1 642.5 142.1Q643.5 145.0 643.5 148.7L643.5 148.7Q643.5 152.4 642.5 155.3Q641.5 158.3 639.5 160.3Q637.5 162.4 634.7 163.5Q631.8 164.7 628.1 164.7L628.1 164.7L619.5 164.7L619.5 183.0ZM619.5 141.4L619.5 156.0L625.4 156.0Q629.2 156.0 630.7 154.5Q632.1 153.1 632.1 149.8L632.1 149.8L632.1 147.6Q632.1 144.3 630.7 142.8Q629.2 141.4 625.4 141.4L625.4 141.4L619.5 141.4ZM670.3 141.0L670.3 141.0Q666.7 141.0 665.3 139.6Q663.9 138.1 663.9 136.0L663.9 136.0L663.9 133.9Q663.9 131.8 665.3 130.3Q666.7 128.9 670.3 128.9L670.3 128.9Q673.9 128.9 675.3 130.3Q676.7 131.8 676.7 133.9L676.7 133.9L676.7 136.0Q676.7 138.1 675.3 139.6Q673.9 141.0 670.3 141.0ZM653.2 183.0L653.2 174.7L665.0 174.7L665.0 154.1L653.2 154.1L653.2 145.8L675.6 145.8L675.6 174.7L686.6 174.7L686.6 183.0L653.2 183.0Z M760.7 183.0L760.7 161.9L748.1 161.9L748.1 183.0L737.2 183.0L737.2 132.7L748.1 132.7L748.1 153.1L760.7 153.1L760.7 132.7L771.6 132.7L771.6 183.0L760.7 183.0ZM797.6 183.8L797.6 183.8Q793.3 183.8 789.8 182.5Q786.4 181.2 784.0 178.6Q781.5 176.1 780.2 172.5Q779.0 168.9 779.0 164.4L779.0 164.4Q779.0 159.8 780.2 156.2Q781.5 152.6 784.0 150.1Q786.4 147.6 789.8 146.3Q793.3 144.9 797.6 144.9L797.6 144.9Q801.9 144.9 805.4 146.3Q808.8 147.6 811.2 150.1Q813.7 152.6 815.0 156.2Q816.2 159.8 816.2 164.4L816.2 164.4Q816.2 168.9 815.0 172.5Q813.7 176.1 811.2 178.6Q808.8 181.2 805.4 182.5Q801.9 183.8 797.6 183.8ZM797.6 175.9L797.6 175.9Q801.2 175.9 803.2 173.7Q805.2 171.4 805.2 167.3L805.2 167.3L805.2 161.4Q805.2 157.3 803.2 155.1Q801.2 152.9 797.6 152.9L797.6 152.9Q794 152.9 792.0 155.1Q790.0 157.3 790.0 161.4L790.0 161.4L790.0 167.3Q790.0 171.4 792.0 173.7Q794 175.9 797.6 175.9ZM824.1 183.0L824.1 174.7L835.5 174.7L835.5 138.0L824.1 138.0L824.1 129.7L846.1 129.7L846.1 174.7L857.5 174.7L857.5 183.0L824.1 183.0ZM885.0 183.8L885.0 183.8Q875.6 183.8 870.8 178.6Q866.0 173.4 866.0 164.5L866.0 164.5Q866.0 160.0 867.3 156.3Q868.5 152.7 870.9 150.2Q873.2 147.6 876.5 146.3Q879.9 144.9 884.1 144.9L884.1 144.9Q888.2 144.9 891.6 146.3Q894.9 147.6 897.2 150.0Q899.5 152.5 900.7 156.0Q902.0 159.5 902.0 163.8L902.0 163.8L902.0 167.0L876.6 167.0L876.6 167.6Q876.6 171.2 878.8 173.4Q881.0 175.6 885.4 175.6L885.4 175.6Q888.7 175.6 891.1 174.3Q893.4 173.1 895.2 171.0L895.2 171.0L900.9 177.3Q898.8 179.9 894.9 181.9Q891.0 183.8 885.0 183.8ZM884.1 152.6L884.1 152.6Q880.7 152.6 878.6 154.7Q876.6 156.8 876.6 160.4L876.6 160.4L876.6 161.0L891.6 161.0L891.6 160.4Q891.6 156.7 889.6 154.7Q887.6 152.6 884.1 152.6Z M151.9 234.6L151.9 234.6Q148.3 234.6 146.9 233.2Q145.5 231.7 145.5 229.6L145.5 229.6L145.5 227.5Q145.5 225.4 146.9 223.9Q148.3 222.5 151.9 222.5L151.9 222.5Q155.5 222.5 156.9 223.9Q158.3 225.4 158.3 227.5L158.3 227.5L158.3 229.6Q158.3 231.7 156.9 233.2Q155.5 234.6 151.9 234.6ZM134.8 276.6L134.8 268.3L146.6 268.3L146.6 247.7L134.8 247.7L134.8 239.4L157.2 239.4L157.2 268.3L168.2 268.3L168.2 276.6L134.8 276.6ZM186.5 276.6L175.9 276.6L175.9 239.4L186.5 239.4L186.5 246.2L187.0 246.2Q187.6 244.6 188.6 243.2Q189.5 241.8 190.8 240.8Q192.2 239.8 193.9 239.1Q195.7 238.5 197.9 238.5L197.9 238.5Q200.6 238.5 202.8 239.4Q205.0 240.3 206.6 242.1Q208.2 243.9 209.1 246.5Q210.0 249.1 210.0 252.5L210.0 252.5L210.0 276.6L199.4 276.6L199.4 253.9Q199.4 246.7 193.1 246.7L193.1 246.7Q191.9 246.7 190.7 247.1Q189.5 247.4 188.6 248.1Q187.6 248.8 187.1 249.8Q186.5 250.8 186.5 252.1L186.5 252.1L186.5 276.6ZM235.6 277.4L235.6 277.4Q229.4 277.4 224.8 275.5Q220.2 273.7 217.9 270.4L217.9 270.4L223.9 264.9Q226.1 267.3 229.0 268.6Q231.9 269.9 235.6 269.9L235.6 269.9Q238.8 269.9 240.6 269.0Q242.4 268.0 242.4 266.0L242.4 266.0Q242.4 264.4 241.2 263.8Q240.0 263.2 237.8 262.8L237.8 262.8L231.8 261.9Q229.3 261.5 227.1 260.7Q225.0 260.0 223.4 258.7Q221.8 257.4 220.9 255.5Q219.9 253.7 219.9 251.0L219.9 251.0Q219.9 245.2 224.4 241.8Q228.9 238.5 236.9 238.5L236.9 238.5Q242.4 238.5 246.3 240.0Q250.1 241.5 252.4 244.2L252.4 244.2L247.1 250.3Q245.4 248.5 242.8 247.2Q240.2 246.0 236.6 246.0L236.6 246.0Q230.4 246.0 230.4 249.8L230.4 249.8Q230.4 251.4 231.6 252.0Q232.8 252.6 235.0 253.0L235.0 253.0L240.9 253.9Q243.4 254.3 245.6 255.1Q247.7 255.8 249.4 257.1Q251.0 258.4 251.9 260.3Q252.8 262.2 252.8 264.8L252.8 264.8Q252.8 270.6 248.3 274.0Q243.8 277.4 235.6 277.4ZM295.8 276.6L282.1 276.6Q276.3 276.6 273.5 273.5Q270.7 270.5 270.7 265.8L270.7 265.8L270.7 247.7L260.6 247.7L260.6 239.4L267.2 239.4Q269.6 239.4 270.6 238.5Q271.6 237.5 271.6 235.0L271.6 235.0L271.6 226.3L281.4 226.3L281.4 239.4L295.8 239.4L295.8 247.7L281.4 247.7L281.4 268.3L295.8 268.3L295.8 276.6ZM342.0 276.6L335.9 276.6Q332.6 276.6 330.5 274.9Q328.5 273.2 328.2 270.0L328.2 270.0L327.8 270.0Q326.8 273.7 323.8 275.5Q320.8 277.4 316.5 277.4L316.5 277.4Q311.1 277.4 307.8 274.5Q304.5 271.6 304.5 266.3L304.5 266.3Q304.5 260.5 308.8 257.7Q313.0 254.9 321.2 254.9L321.2 254.9L327.2 254.9L327.2 253.0Q327.2 249.7 325.7 248.0Q324.1 246.3 320.5 246.3L320.5 246.3Q317.1 246.3 315.0 247.6Q312.9 248.9 311.4 251.0L311.4 251.0L305.6 245.8Q307.4 242.6 311.4 240.6Q315.4 238.5 321.7 238.5L321.7 238.5Q329.3 238.5 333.6 242.0Q337.9 245.5 337.9 252.6L337.9 252.6L337.9 268.8L342.0 268.8L342.0 276.6ZM320.5 270.4L320.5 270.4Q323.3 270.4 325.3 269.1Q327.2 267.7 327.2 265.1L327.2 265.1L327.2 260.6L321.5 260.6Q315.0 260.6 315.0 265.0L315.0 265.0L315.0 266.5Q315.0 268.4 316.5 269.4Q318.0 270.4 320.5 270.4ZM359.3 276.6L348.7 276.6L348.7 239.4L359.3 239.4L359.3 246.2L359.8 246.2Q360.4 244.6 361.4 243.2Q362.3 241.8 363.6 240.8Q365.0 239.8 366.7 239.1Q368.5 238.5 370.7 238.5L370.7 238.5Q373.4 238.5 375.6 239.4Q377.8 240.3 379.4 242.1Q381.0 243.9 381.9 246.5Q382.8 249.1 382.8 252.5L382.8 252.5L382.8 276.6L372.2 276.6L372.2 253.9Q372.2 246.7 365.9 246.7L365.9 246.7Q364.7 246.7 363.5 247.1Q362.3 247.4 361.4 248.1Q360.4 248.8 359.9 249.8Q359.3 250.8 359.3 252.1L359.3 252.1L359.3 276.6ZM410.3 277.4L410.3 277.4Q405.9 277.4 402.4 276.1Q398.9 274.8 396.5 272.2Q394.1 269.7 392.8 266.1Q391.5 262.5 391.5 258.0L391.5 258.0Q391.5 253.4 392.8 249.8Q394.1 246.2 396.5 243.7Q398.9 241.2 402.4 239.9Q405.9 238.5 410.2 238.5L410.2 238.5Q416.4 238.5 420.1 241.0Q423.8 243.5 425.7 247.6L425.7 247.6L417.5 252.1Q416.5 249.9 414.9 248.5Q413.3 247.0 410.2 247.0L410.2 247.0Q406.6 247.0 404.6 249.2Q402.6 251.3 402.6 255.0L402.6 255.0L402.6 261.0Q402.6 264.7 404.6 266.8Q406.6 268.9 410.4 268.9L410.4 268.9Q413.5 268.9 415.2 267.5Q417.0 266.0 418.2 263.7L418.2 263.7L426.3 268.3Q424.3 272.4 420.4 274.9Q416.6 277.4 410.3 277.4ZM453.0 277.4L453.0 277.4Q443.6 277.4 438.8 272.2Q434.0 267.0 434.0 258.1L434.0 258.1Q434.0 253.6 435.3 249.9Q436.5 246.3 438.9 243.8Q441.2 241.2 444.5 239.9Q447.9 238.5 452.1 238.5L452.1 238.5Q456.2 238.5 459.6 239.9Q462.9 241.2 465.2 243.6Q467.5 246.1 468.7 249.6Q470.0 253.1 470.0 257.4L470.0 257.4L470.0 260.6L444.6 260.6L444.6 261.2Q444.6 264.8 446.8 267.0Q449.0 269.2 453.4 269.2L453.4 269.2Q456.7 269.2 459.1 267.9Q461.4 266.7 463.2 264.6L463.2 264.6L468.9 270.9Q466.8 273.5 462.9 275.5Q459.0 277.4 453.0 277.4ZM452.1 246.2L452.1 246.2Q448.7 246.2 446.6 248.3Q444.6 250.4 444.6 254.0L444.6 254.0L444.6 254.6L459.6 254.6L459.6 254.0Q459.6 250.3 457.6 248.3Q455.6 246.2 452.1 246.2Z M521.7 276.6L517.3 239.4L526.2 239.4L528.8 269.5L529.5 269.5L533.9 239.4L543.3 239.4L547.6 269.5L548.3 269.5L551.1 239.4L559.5 239.4L555.1 276.6L542.4 276.6L538.8 250.9L538.0 250.9L534.4 276.6L521.7 276.6ZM583.9 234.6L583.9 234.6Q580.3 234.6 578.9 233.2Q577.5 231.7 577.5 229.6L577.5 229.6L577.5 227.5Q577.5 225.4 578.9 223.9Q580.3 222.5 583.9 222.5L583.9 222.5Q587.5 222.5 588.9 223.9Q590.3 225.4 590.3 227.5L590.3 227.5L590.3 229.6Q590.3 231.7 588.9 233.2Q587.5 234.6 583.9 234.6ZM566.8 276.6L566.8 268.3L578.6 268.3L578.6 247.7L566.8 247.7L566.8 239.4L589.2 239.4L589.2 268.3L600.2 268.3L600.2 276.6L566.8 276.6ZM641.4 276.6L627.7 276.6Q621.9 276.6 619.1 273.5Q616.3 270.5 616.3 265.8L616.3 265.8L616.3 247.7L606.2 247.7L606.2 239.4L612.8 239.4Q615.2 239.4 616.2 238.5Q617.2 237.5 617.2 235.0L617.2 235.0L617.2 226.3L627.0 226.3L627.0 239.4L641.4 239.4L641.4 247.7L627.0 247.7L627.0 268.3L641.4 268.3L641.4 276.6ZM651.1 276.6L651.1 223.3L661.7 223.3L661.7 246.2L662.2 246.2Q662.8 244.6 663.8 243.2Q664.7 241.8 666.0 240.8Q667.4 239.8 669.1 239.1Q670.9 238.5 673.1 238.5L673.1 238.5Q675.8 238.5 678.0 239.4Q680.2 240.3 681.8 242.1Q683.4 243.9 684.3 246.5Q685.2 249.1 685.2 252.5L685.2 252.5L685.2 276.6L674.6 276.6L674.6 253.9Q674.6 246.7 668.3 246.7L668.3 246.7Q667.1 246.7 665.9 247.1Q664.7 247.4 663.8 248.1Q662.8 248.8 662.3 249.8Q661.7 250.8 661.7 252.1L661.7 252.1L661.7 276.6L651.1 276.6Z M775.6 276.6L764.1 276.6L761.0 264.5L747.2 264.5L744.1 276.6L733.2 276.6L746.8 226.3L762.0 226.3L775.6 276.6ZM759.3 255.7L754.4 236.7L753.8 236.7L748.9 255.7L759.3 255.7ZM791.3 276.6L780.7 276.6L780.7 239.4L791.3 239.4L791.3 246.2L791.8 246.2Q792.4 244.6 793.4 243.2Q794.3 241.8 795.6 240.8Q797.0 239.8 798.7 239.1Q800.5 238.5 802.7 238.5L802.7 238.5Q805.4 238.5 807.6 239.4Q809.8 240.3 811.4 242.1Q813.0 243.9 813.9 246.5Q814.8 249.1 814.8 252.5L814.8 252.5L814.8 276.6L804.2 276.6L804.2 253.9Q804.2 246.7 797.9 246.7L797.9 246.7Q796.7 246.7 795.5 247.1Q794.3 247.4 793.4 248.1Q792.4 248.8 791.9 249.8Q791.3 250.8 791.3 252.1L791.3 252.1L791.3 276.6ZM840.4 277.4L840.4 277.4Q834.2 277.4 829.6 275.5Q825.0 273.7 822.7 270.4L822.7 270.4L828.7 264.9Q830.9 267.3 833.8 268.6Q836.7 269.9 840.4 269.9L840.4 269.9Q843.6 269.9 845.4 269.0Q847.2 268.0 847.2 266.0L847.2 266.0Q847.2 264.4 846.0 263.8Q844.8 263.2 842.6 262.8L842.6 262.8L836.6 261.9Q834.1 261.5 831.9 260.7Q829.8 260.0 828.2 258.7Q826.6 257.4 825.7 255.5Q824.7 253.7 824.7 251.0L824.7 251.0Q824.7 245.2 829.2 241.8Q833.7 238.5 841.7 238.5L841.7 238.5Q847.2 238.5 851.1 240.0Q854.9 241.5 857.2 244.2L857.2 244.2L851.9 250.3Q850.2 248.5 847.6 247.2Q845.0 246.0 841.4 246.0L841.4 246.0Q835.2 246.0 835.2 249.8L835.2 249.8Q835.2 251.4 836.4 252.0Q837.6 252.6 839.8 253.0L839.8 253.0L845.7 253.9Q848.2 254.3 850.4 255.1Q852.5 255.8 854.2 257.1Q855.8 258.4 856.7 260.3Q857.6 262.2 857.6 264.8L857.6 264.8Q857.6 270.6 853.1 274.0Q848.6 277.4 840.4 277.4ZM886.3 234.6L886.3 234.6Q882.7 234.6 881.3 233.2Q879.9 231.7 879.9 229.6L879.9 229.6L879.9 227.5Q879.9 225.4 881.3 223.9Q882.7 222.5 886.3 222.5L886.3 222.5Q889.9 222.5 891.3 223.9Q892.7 225.4 892.7 227.5L892.7 227.5L892.7 229.6Q892.7 231.7 891.3 233.2Q889.9 234.6 886.3 234.6ZM869.2 276.6L869.2 268.3L881.0 268.3L881.0 247.7L869.2 247.7L869.2 239.4L891.6 239.4L891.6 268.3L902.6 268.3L902.6 276.6L869.2 276.6ZM909.8 276.6L909.8 223.3L920.5 223.3L920.5 246.2L921.0 246.2Q922.4 242.9 925.0 240.7Q927.6 238.5 932.0 238.5L932.0 238.5Q935.1 238.5 937.7 239.7Q940.2 240.8 942.1 243.2Q943.9 245.6 944.9 249.3Q946.0 252.9 946.0 258.0L946.0 258.0Q946.0 263.0 944.9 266.7Q943.9 270.4 942.1 272.7Q940.2 275.1 937.7 276.3Q935.1 277.4 932.0 277.4L932.0 277.4Q927.6 277.4 925.0 275.3Q922.4 273.2 921.0 269.8L921.0 269.8L920.5 269.8L920.5 276.6L909.8 276.6ZM927.4 269.1L927.4 269.1Q931.0 269.1 933.0 266.9Q934.9 264.7 934.9 260.9L934.9 260.9L934.9 255.1Q934.9 251.2 933.0 249.0Q931.0 246.8 927.4 246.8L927.4 246.8Q924.6 246.8 922.6 248.2Q920.5 249.6 920.5 252.5L920.5 252.5L920.5 263.4Q920.5 266.4 922.6 267.8Q924.6 269.1 927.4 269.1ZM953.7 276.6L953.7 268.3L965.1 268.3L965.1 231.6L953.7 231.6L953.7 223.3L975.7 223.3L975.7 268.3L987.1 268.3L987.1 276.6L953.7 276.6ZM1014.6 277.4L1014.6 277.4Q1005.2 277.4 1000.4 272.2Q995.6 267.0 995.6 258.1L995.6 258.1Q995.6 253.6 996.9 249.9Q998.1 246.3 1000.5 243.8Q1002.8 241.2 1006.1 239.9Q1009.5 238.5 1013.7 238.5L1013.7 238.5Q1017.8 238.5 1021.2 239.9Q1024.5 241.2 1026.8 243.6Q1029.1 246.1 1030.3 249.6Q1031.6 253.1 1031.6 257.4L1031.6 257.4L1031.6 260.6L1006.2 260.6L1006.2 261.2Q1006.2 264.8 1008.4 267.0Q1010.6 269.2 1015.0 269.2L1015.0 269.2Q1018.3 269.2 1020.7 267.9Q1023.0 266.7 1024.8 264.6L1024.8 264.6L1030.5 270.9Q1028.4 273.5 1024.5 275.5Q1020.6 277.4 1014.6 277.4ZM1013.7 246.2L1013.7 246.2Q1010.3 246.2 1008.2 248.3Q1006.2 250.4 1006.2 254.0L1006.2 254.0L1006.2 254.6L1021.2 254.6L1021.2 254.0Q1021.2 250.3 1019.2 248.3Q1017.2 246.2 1013.7 246.2Z M169.2 370.2L163.1 370.2Q159.8 370.2 157.7 368.5Q155.7 366.8 155.4 363.6L155.4 363.6L155 363.6Q154.0 367.3 151.0 369.1Q148.0 371.0 143.7 371.0L143.7 371.0Q138.3 371.0 135.0 368.1Q131.7 365.2 131.7 359.9L131.7 359.9Q131.7 354.1 136.0 351.3Q140.2 348.5 148.4 348.5L148.4 348.5L154.4 348.5L154.4 346.6Q154.4 343.3 152.9 341.6Q151.3 339.9 147.7 339.9L147.7 339.9Q144.3 339.9 142.2 341.2Q140.1 342.5 138.6 344.6L138.6 344.6L132.8 339.4Q134.6 336.2 138.6 334.2Q142.6 332.1 148.9 332.1L148.9 332.1Q156.5 332.1 160.8 335.6Q165.1 339.1 165.1 346.2L165.1 346.2L165.1 362.4L169.2 362.4L169.2 370.2ZM147.7 364.0L147.7 364.0Q150.5 364.0 152.5 362.7Q154.4 361.3 154.4 358.7L154.4 358.7L154.4 354.2L148.7 354.2Q142.2 354.2 142.2 358.6L142.2 358.6L142.2 360.1Q142.2 362.0 143.7 363.0Q145.2 364.0 147.7 364.0ZM186.5 370.2L175.9 370.2L175.9 333.0L186.5 333.0L186.5 339.8L187.0 339.8Q187.6 338.2 188.6 336.8Q189.5 335.4 190.8 334.4Q192.2 333.4 193.9 332.7Q195.7 332.1 197.9 332.1L197.9 332.1Q200.6 332.1 202.8 333.0Q205.0 333.9 206.6 335.7Q208.2 337.5 209.1 340.1Q210.0 342.7 210.0 346.1L210.0 346.1L210.0 370.2L199.4 370.2L199.4 347.5Q199.4 340.3 193.1 340.3L193.1 340.3Q191.9 340.3 190.7 340.7Q189.5 341.0 188.6 341.7Q187.6 342.4 187.1 343.4Q186.5 344.4 186.5 345.7L186.5 345.7L186.5 370.2ZM242.7 370.2L242.7 363.4L242.2 363.4Q240.8 366.8 238.2 368.9Q235.6 371.0 231.2 371.0L231.2 371.0Q228.1 371.0 225.5 369.9Q223.0 368.7 221.1 366.3Q219.3 364.0 218.3 360.3Q217.2 356.6 217.2 351.6L217.2 351.6Q217.2 346.5 218.3 342.9Q219.3 339.2 221.1 336.8Q223.0 334.4 225.5 333.3Q228.1 332.1 231.2 332.1L231.2 332.1Q233.4 332.1 235.1 332.7Q236.9 333.3 238.2 334.3Q239.5 335.3 240.5 336.7Q241.5 338.1 242.2 339.8L242.2 339.8L242.7 339.8L242.7 316.9L253.4 316.9L253.4 370.2L242.7 370.2ZM235.8 362.7L235.8 362.7Q238.6 362.7 240.6 361.4Q242.7 360.0 242.7 357.0L242.7 357.0L242.7 346.1Q242.7 343.2 240.6 341.8Q238.6 340.4 235.8 340.4L235.8 340.4Q232.2 340.4 230.2 342.6Q228.3 344.8 228.3 348.7L228.3 348.7L228.3 354.5Q228.3 358.3 230.2 360.5Q232.2 362.7 235.8 362.7Z M305.4 370.2L305.4 319.9L321.6 319.9Q331.8 319.9 336.7 326.4Q341.6 332.9 341.6 345.0L341.6 345.0Q341.6 357.2 336.7 363.7Q331.8 370.2 321.6 370.2L321.6 370.2L305.4 370.2ZM316.1 361.7L320.9 361.7Q325.7 361.7 327.9 358.6Q330.2 355.5 330.2 349.6L330.2 349.6L330.2 340.4Q330.2 334.6 327.9 331.5Q325.7 328.4 320.9 328.4L320.9 328.4L316.1 328.4L316.1 361.7ZM365.6 371.0L365.6 371.0Q361.3 371.0 357.8 369.7Q354.4 368.4 352.0 365.8Q349.5 363.3 348.2 359.7Q347.0 356.1 347.0 351.6L347.0 351.6Q347.0 347.0 348.2 343.4Q349.5 339.8 352.0 337.3Q354.4 334.8 357.8 333.5Q361.3 332.1 365.6 332.1L365.6 332.1Q369.9 332.1 373.4 333.5Q376.8 334.8 379.2 337.3Q381.7 339.8 383.0 343.4Q384.2 347.0 384.2 351.6L384.2 351.6Q384.2 356.1 383.0 359.7Q381.7 363.3 379.2 365.8Q376.8 368.4 373.4 369.7Q369.9 371.0 365.6 371.0ZM365.6 363.1L365.6 363.1Q369.2 363.1 371.2 360.9Q373.2 358.6 373.2 354.5L373.2 354.5L373.2 348.6Q373.2 344.5 371.2 342.3Q369.2 340.1 365.6 340.1L365.6 340.1Q362 340.1 360.0 342.3Q358.0 344.5 358.0 348.6L358.0 348.6L358.0 354.5Q358.0 358.6 360.0 360.9Q362 363.1 365.6 363.1ZM410.3 371.0L410.3 371.0Q405.9 371.0 402.4 369.7Q398.9 368.4 396.5 365.8Q394.1 363.3 392.8 359.7Q391.5 356.1 391.5 351.6L391.5 351.6Q391.5 347.0 392.8 343.4Q394.1 339.8 396.5 337.3Q398.9 334.8 402.4 333.5Q405.9 332.1 410.2 332.1L410.2 332.1Q416.4 332.1 420.1 334.6Q423.8 337.1 425.7 341.2L425.7 341.2L417.5 345.7Q416.5 343.5 414.9 342.1Q413.3 340.6 410.2 340.6L410.2 340.6Q406.6 340.6 404.6 342.8Q402.6 344.9 402.6 348.6L402.6 348.6L402.6 354.6Q402.6 358.3 404.6 360.4Q406.6 362.5 410.4 362.5L410.4 362.5Q413.5 362.5 415.2 361.1Q417.0 359.6 418.2 357.3L418.2 357.3L426.3 361.9Q424.3 366.0 420.4 368.5Q416.6 371.0 410.3 371.0ZM435.1 370.2L435.1 316.9L445.7 316.9L445.7 347.1L446.2 347.1L451.2 341.3L459.0 333.0L471.2 333.0L456.8 347.7L472.7 370.2L460.1 370.2L449.3 353.7L445.7 357.3L445.7 370.2L435.1 370.2ZM496.2 371.0L496.2 371.0Q486.8 371.0 482.0 365.8Q477.2 360.6 477.2 351.7L477.2 351.7Q477.2 347.2 478.5 343.5Q479.7 339.9 482.1 337.4Q484.4 334.8 487.7 333.5Q491.1 332.1 495.3 332.1L495.3 332.1Q499.4 332.1 502.8 333.5Q506.1 334.8 508.4 337.2Q510.7 339.7 511.9 343.2Q513.2 346.7 513.2 351.0L513.2 351.0L513.2 354.2L487.8 354.2L487.8 354.8Q487.8 358.4 490.0 360.6Q492.2 362.8 496.6 362.8L496.6 362.8Q499.9 362.8 502.3 361.5Q504.6 360.3 506.4 358.2L506.4 358.2L512.1 364.5Q510.0 367.1 506.1 369.1Q502.2 371.0 496.2 371.0ZM495.3 339.8L495.3 339.8Q491.9 339.8 489.8 341.9Q487.8 344.0 487.8 347.6L487.8 347.6L487.8 348.2L502.8 348.2L502.8 347.6Q502.8 343.9 500.8 341.9Q498.8 339.8 495.3 339.8ZM522.1 370.2L522.1 361.9L530.7 361.9L530.7 341.3L522.1 341.3L522.1 333.0L541.4 333.0L541.4 343.5L541.9 343.5Q542.4 341.5 543.3 339.6Q544.2 337.7 545.6 336.2Q547.0 334.7 549.0 333.9Q551 333.0 553.7 333.0L553.7 333.0L557.3 333.0L557.3 342.8L549.3 342.8Q545.4 342.8 543.4 345.1Q541.4 347.5 541.4 350.9L541.4 350.9L541.4 361.9L553.6 361.9L553.6 370.2L522.1 370.2Z " clip-path="url(#satori_cp-id-1-0-0)" mask="url(#satori_om-id-1-0-0)"/><mask id="satori_om-id-1-0-1"><rect x="128" y="489" width="944" height="36" fill="#fff"/></mask><mask id="satori_om-id-1-0-1-0"><rect x="128" y="489" width="219" height="36" fill="#fff"/></mask><path fill="black" d="M130.7 520.3L130.7 499.6L132.9 499.6L132.9 508.2L133.0 508.2Q134.4 505.5 137.5 505.5L137.5 505.5Q140.1 505.5 141.6 507.5Q143.1 509.5 143.1 513.0L143.1 513.0Q143.1 516.6 141.6 518.6Q140.1 520.6 137.5 520.6L137.5 520.6Q134.4 520.6 133.0 517.9L133.0 517.9L132.9 517.9L132.9 520.3L130.7 520.3ZM136.6 518.6L136.6 518.6Q138.6 518.6 139.6 517.4Q140.7 516.2 140.7 514.3L140.7 514.3L140.7 511.8Q140.7 509.9 139.6 508.7Q138.6 507.5 136.6 507.5L136.6 507.5Q135.8 507.5 135.2 507.7Q134.5 507.9 134.0 508.2Q133.5 508.6 133.2 509.2Q132.9 509.7 132.9 510.4L132.9 510.4L132.9 515.7Q132.9 516.4 133.2 516.9Q133.5 517.5 134.0 517.8Q134.5 518.2 135.2 518.4Q135.8 518.6 136.6 518.6ZM155.4 511.9L157.9 505.8L160.1 505.8L152.9 523.4Q152.7 524.1 152.4 524.5Q152.1 525.0 151.7 525.3Q151.2 525.6 150.7 525.7Q150.1 525.9 149.3 525.9L149.3 525.9L147.1 525.9L147.1 524.0L150.5 524.0L152.1 520.0L146.3 505.8L148.6 505.8L151.0 511.9L153.2 517.4L153.3 517.4L155.4 511.9Z "/><mask id="satori_om-id-1-0-1-0-1"><rect x="162" y="489" width="17" height="36" fill="#fff"/></mask><clipPath id="satori_cp-id-1-0-1-0-2"><rect x="178" y="489" width="168" height="36"/></clipPath><mask id="satori_om-id-1-0-1-0-2"><rect x="178" y="489" width="168" height="36" fill="#fff"/></mask><path fill="black" d="M194.1 504.0L188.5 504.0L188.5 520.1L184.3 520.1L184.3 504.0L178.7 504.0L178.7 500.5L194.1 500.5L194.1 504.0ZM204.1 503.8L204.1 503.8Q202.7 503.8 202.2 503.2Q201.6 502.6 201.6 501.8L201.6 501.8L201.6 501.0Q201.6 500.2 202.2 499.6Q202.7 499.1 204.1 499.1L204.1 499.1Q205.5 499.1 206.0 499.6Q206.6 500.2 206.6 501.0L206.6 501.0L206.6 501.8Q206.6 502.6 206.0 503.2Q205.5 503.8 204.1 503.8ZM197.4 520.1L197.4 516.9L202.0 516.9L202.0 508.9L197.4 508.9L197.4 505.6L206.2 505.6L206.2 516.9L210.4 516.9L210.4 520.1L197.4 520.1ZM215.8 520.1L212.4 520.1L212.4 505.6L215.8 505.6L215.8 507.8L216.0 507.8Q216.3 506.8 216.9 506.0Q217.6 505.3 218.7 505.3L218.7 505.3Q220.8 505.3 221.3 507.8L221.3 507.8L221.5 507.8Q221.6 507.3 221.9 506.8Q222.1 506.4 222.5 506.0Q222.9 505.7 223.4 505.5Q223.9 505.3 224.5 505.3L224.5 505.3Q227.6 505.3 227.6 509.8L227.6 509.8L227.6 520.1L224.2 520.1L224.2 510.2Q224.2 509.2 223.9 508.8Q223.5 508.4 223.0 508.4L223.0 508.4Q222.4 508.4 222.1 508.7Q221.7 509.1 221.7 509.8L221.7 509.8L221.7 520.1L218.3 520.1L218.3 510.2Q218.3 509.2 218.0 508.8Q217.7 508.4 217.1 508.4L217.1 508.4Q216.6 508.4 216.2 508.7Q215.8 509.1 215.8 509.8L215.8 509.8L215.8 520.1Z M252.0 520.1L246.7 520.1L245.5 500.5L249.1 500.5L249.7 512.3L249.8 515.9L250.1 515.9L251.8 504.8L255.6 504.8L257.2 515.9L257.5 515.9L257.7 512.4L258.2 500.5L261.7 500.5L260.5 520.1L255.2 520.1L253.7 509.3L253.5 509.3L252.0 520.1ZM278.0 520.1L275.6 520.1Q274.3 520.1 273.6 519.4Q272.8 518.8 272.6 517.5L272.6 517.5L272.5 517.5Q272.1 519.0 270.9 519.7Q269.8 520.4 268.1 520.4L268.1 520.4Q266.0 520.4 264.7 519.3Q263.5 518.2 263.5 516.1L263.5 516.1Q263.5 513.8 265.1 512.8Q266.8 511.7 270.0 511.7L270.0 511.7L272.3 511.7L272.3 510.9Q272.3 509.6 271.7 509.0Q271.1 508.3 269.6 508.3L269.6 508.3Q268.3 508.3 267.5 508.8Q266.7 509.3 266.1 510.2L266.1 510.2L263.8 508.1Q264.6 506.9 266.1 506.1Q267.7 505.3 270.1 505.3L270.1 505.3Q273.1 505.3 274.8 506.7Q276.4 508.0 276.4 510.8L276.4 510.8L276.4 517.1L278.0 517.1L278.0 520.1ZM269.7 517.7L269.7 517.7Q270.8 517.7 271.5 517.2Q272.3 516.6 272.3 515.6L272.3 515.6L272.3 513.9L270.1 513.9Q267.5 513.9 267.5 515.6L267.5 515.6L267.5 516.2Q267.5 516.9 268.1 517.3Q268.7 517.7 269.7 517.7ZM293.7 520.1L288.3 520.1Q286.1 520.1 285.0 518.9Q283.9 517.7 283.9 515.9L283.9 515.9L283.9 508.9L280.0 508.9L280.0 505.6L282.5 505.6Q283.4 505.6 283.8 505.3Q284.2 504.9 284.2 503.9L284.2 503.9L284.2 500.5L288.0 500.5L288.0 505.6L293.7 505.6L293.7 508.9L288.0 508.9L288.0 516.9L293.7 516.9L293.7 520.1ZM303.8 520.4L303.8 520.4Q301.4 520.4 299.6 519.7Q297.9 519.0 297.0 517.7L297.0 517.7L299.3 515.6Q300.1 516.5 301.3 517.0Q302.4 517.5 303.9 517.5L303.9 517.5Q305.1 517.5 305.8 517.1Q306.5 516.8 306.5 516.0L306.5 516.0Q306.5 515.4 306.0 515.1Q305.5 514.9 304.7 514.7L304.7 514.7L302.4 514.4Q301.4 514.2 300.6 513.9Q299.7 513.7 299.1 513.1Q298.5 512.6 298.1 511.9Q297.8 511.2 297.8 510.2L297.8 510.2Q297.8 507.9 299.5 506.6Q301.2 505.3 304.4 505.3L304.4 505.3Q306.5 505.3 308.0 505.9Q309.5 506.5 310.4 507.5L310.4 507.5L308.3 509.9Q307.7 509.2 306.7 508.7Q305.7 508.2 304.2 508.2L304.2 508.2Q301.8 508.2 301.8 509.7L301.8 509.7Q301.8 510.3 302.3 510.6Q302.8 510.8 303.6 510.9L303.6 510.9L305.9 511.3Q306.9 511.4 307.7 511.7Q308.6 512.0 309.2 512.5Q309.8 513.0 310.2 513.8Q310.6 514.5 310.6 515.5L310.6 515.5Q310.6 517.8 308.8 519.1Q307.1 520.4 303.8 520.4ZM320.8 520.4L320.8 520.4Q319.1 520.4 317.8 519.9Q316.4 519.4 315.5 518.4Q314.6 517.4 314.1 516.0Q313.5 514.6 313.5 512.9L313.5 512.9Q313.5 511.1 314.1 509.7Q314.6 508.3 315.5 507.3Q316.4 506.3 317.8 505.8Q319.1 505.3 320.8 505.3L320.8 505.3Q322.5 505.3 323.8 505.8Q325.2 506.3 326.1 507.3Q327.0 508.3 327.5 509.7Q328.1 511.1 328.1 512.9L328.1 512.9Q328.1 514.6 327.5 516.0Q327.0 517.4 326.1 518.4Q325.2 519.4 323.8 519.9Q322.5 520.4 320.8 520.4ZM320.8 517.3L320.8 517.3Q322.2 517.3 323.0 516.5Q323.8 515.6 323.8 514.0L323.8 514.0L323.8 511.7Q323.8 510.1 323.0 509.3Q322.2 508.4 320.8 508.4L320.8 508.4Q319.4 508.4 318.6 509.3Q317.8 510.1 317.8 511.7L317.8 511.7L317.8 514.0Q317.8 515.6 318.6 516.5Q319.4 517.3 320.8 517.3ZM335.2 520.1L331.0 520.1L331.0 505.6L335.2 505.6L335.2 508.3L335.3 508.3Q335.6 507.7 335.9 507.1Q336.3 506.6 336.8 506.2Q337.3 505.8 338.0 505.5Q338.7 505.3 339.6 505.3L339.6 505.3Q340.6 505.3 341.5 505.7Q342.4 506.0 343.0 506.7Q343.6 507.4 343.9 508.4Q344.3 509.4 344.3 510.7L344.3 510.7L344.3 520.1L340.1 520.1L340.1 511.3Q340.1 508.5 337.7 508.5L337.7 508.5Q337.2 508.5 336.8 508.6Q336.3 508.8 335.9 509.0Q335.6 509.3 335.4 509.7Q335.2 510.1 335.2 510.6L335.2 510.6L335.2 520.1Z " clip-path="url(#satori_cp-id-1-0-1-0-2)" mask="url(#satori_om-id-1-0-1-0-2)"/><clipPath id="satori_cp-id-1-0-1-1"><rect x="786" y="489" width="286" height="36"/></clipPath><mask id="satori_om-id-1-0-1-1"><rect x="786" y="489" width="286" height="36" fill="#fff"/></mask><path fill="black" d="M802.1 504.0L796.5 504.0L796.5 520.1L792.3 520.1L792.3 504.0L786.7 504.0L786.7 500.5L802.1 500.5L802.1 504.0ZM812.1 503.8L812.1 503.8Q810.7 503.8 810.1 503.2Q809.6 502.6 809.6 501.8L809.6 501.8L809.6 501.0Q809.6 500.2 810.1 499.6Q810.7 499.1 812.1 499.1L812.1 499.1Q813.5 499.1 814.0 499.6Q814.6 500.2 814.6 501.0L814.6 501.0L814.6 501.8Q814.6 502.6 814.0 503.2Q813.5 503.8 812.1 503.8ZM805.4 520.1L805.4 516.9L810.0 516.9L810.0 508.9L805.4 508.9L805.4 505.6L814.2 505.6L814.2 516.9L818.4 516.9L818.4 520.1L805.4 520.1ZM823.8 520.1L820.4 520.1L820.4 505.6L823.8 505.6L823.8 507.8L824.0 507.8Q824.3 506.8 824.9 506.0Q825.6 505.3 826.7 505.3L826.7 505.3Q828.8 505.3 829.3 507.8L829.3 507.8L829.5 507.8Q829.6 507.3 829.9 506.8Q830.1 506.4 830.5 506.0Q830.9 505.7 831.4 505.5Q831.9 505.3 832.5 505.3L832.5 505.3Q835.6 505.3 835.6 509.8L835.6 509.8L835.6 520.1L832.2 520.1L832.2 510.2Q832.2 509.2 831.9 508.8Q831.5 508.4 831.0 508.4L831.0 508.4Q830.4 508.4 830.1 508.7Q829.7 509.1 829.7 509.8L829.7 509.8L829.7 520.1L826.3 520.1L826.3 510.2Q826.3 509.2 826.0 508.8Q825.7 508.4 825.1 508.4L825.1 508.4Q824.6 508.4 824.2 508.7Q823.8 509.1 823.8 509.8L823.8 509.8L823.8 520.1Z M860.0 520.1L854.7 520.1L853.5 500.5L857.1 500.5L857.7 512.3L857.8 515.9L858.1 515.9L859.8 504.8L863.6 504.8L865.2 515.9L865.5 515.9L865.7 512.4L866.2 500.5L869.7 500.5L868.5 520.1L863.2 520.1L861.7 509.3L861.5 509.3L860.0 520.1ZM886.0 520.1L883.6 520.1Q882.3 520.1 881.6 519.4Q880.8 518.8 880.6 517.5L880.6 517.5L880.5 517.5Q880.1 519.0 878.9 519.7Q877.8 520.4 876.1 520.4L876.1 520.4Q874.0 520.4 872.7 519.3Q871.5 518.2 871.5 516.1L871.5 516.1Q871.5 513.8 873.1 512.8Q874.8 511.7 878.0 511.7L878.0 511.7L880.3 511.7L880.3 510.9Q880.3 509.6 879.7 509.0Q879.1 508.3 877.6 508.3L877.6 508.3Q876.3 508.3 875.5 508.8Q874.7 509.3 874.1 510.2L874.1 510.2L871.8 508.1Q872.6 506.9 874.1 506.1Q875.7 505.3 878.1 505.3L878.1 505.3Q881.1 505.3 882.8 506.7Q884.4 508.0 884.4 510.8L884.4 510.8L884.4 517.1L886.0 517.1L886.0 520.1ZM877.7 517.7L877.7 517.7Q878.8 517.7 879.5 517.2Q880.3 516.6 880.3 515.6L880.3 515.6L880.3 513.9L878.1 513.9Q875.5 513.9 875.5 515.6L875.5 515.6L875.5 516.2Q875.5 516.9 876.1 517.3Q876.7 517.7 877.7 517.7ZM901.7 520.1L896.3 520.1Q894.1 520.1 893.0 518.9Q891.9 517.7 891.9 515.9L891.9 515.9L891.9 508.9L888.0 508.9L888.0 505.6L890.5 505.6Q891.4 505.6 891.8 505.3Q892.2 504.9 892.2 503.9L892.2 503.9L892.2 500.5L896.0 500.5L896.0 505.6L901.7 505.6L901.7 508.9L896.0 508.9L896.0 516.9L901.7 516.9L901.7 520.1ZM911.8 520.4L911.8 520.4Q909.4 520.4 907.6 519.7Q905.9 519.0 905.0 517.7L905.0 517.7L907.3 515.6Q908.1 516.5 909.3 517.0Q910.4 517.5 911.9 517.5L911.9 517.5Q913.1 517.5 913.8 517.1Q914.5 516.8 914.5 516.0L914.5 516.0Q914.5 515.4 914.0 515.1Q913.5 514.9 912.7 514.7L912.7 514.7L910.4 514.4Q909.4 514.2 908.6 513.9Q907.7 513.7 907.1 513.1Q906.5 512.6 906.1 511.9Q905.8 511.2 905.8 510.2L905.8 510.2Q905.8 507.9 907.5 506.6Q909.2 505.3 912.4 505.3L912.4 505.3Q914.5 505.3 916.0 505.9Q917.5 506.5 918.4 507.5L918.4 507.5L916.3 509.9Q915.7 509.2 914.7 508.7Q913.7 508.2 912.2 508.2L912.2 508.2Q909.8 508.2 909.8 509.7L909.8 509.7Q909.8 510.3 910.3 510.6Q910.8 510.8 911.6 510.9L911.6 510.9L913.9 511.3Q914.9 511.4 915.7 511.7Q916.6 512.0 917.2 512.5Q917.8 513.0 918.2 513.8Q918.6 514.5 918.6 515.5L918.6 515.5Q918.6 517.8 916.8 519.1Q915.1 520.4 911.8 520.4ZM928.8 520.4L928.8 520.4Q927.1 520.4 925.8 519.9Q924.4 519.4 923.5 518.4Q922.6 517.4 922.1 516.0Q921.5 514.6 921.5 512.9L921.5 512.9Q921.5 511.1 922.1 509.7Q922.6 508.3 923.5 507.3Q924.4 506.3 925.8 505.8Q927.1 505.3 928.8 505.3L928.8 505.3Q930.5 505.3 931.8 505.8Q933.2 506.3 934.1 507.3Q935.0 508.3 935.5 509.7Q936.1 511.1 936.1 512.9L936.1 512.9Q936.1 514.6 935.5 516.0Q935.0 517.4 934.1 518.4Q933.2 519.4 931.8 519.9Q930.5 520.4 928.8 520.4ZM928.8 517.3L928.8 517.3Q930.2 517.3 931.0 516.5Q931.8 515.6 931.8 514.0L931.8 514.0L931.8 511.7Q931.8 510.1 931.0 509.3Q930.2 508.4 928.8 508.4L928.8 508.4Q927.4 508.4 926.6 509.3Q925.8 510.1 925.8 511.7L925.8 511.7L925.8 514.0Q925.8 515.6 926.6 516.5Q927.4 517.3 928.8 517.3ZM943.2 520.1L939.0 520.1L939.0 505.6L943.2 505.6L943.2 508.3L943.3 508.3Q943.6 507.7 943.9 507.1Q944.3 506.6 944.8 506.2Q945.3 505.8 946.0 505.5Q946.7 505.3 947.6 505.3L947.6 505.3Q948.6 505.3 949.5 505.7Q950.4 506.0 951.0 506.7Q951.6 507.4 951.9 508.4Q952.3 509.4 952.3 510.7L952.3 510.7L952.3 520.1L948.1 520.1L948.1 511.3Q948.1 508.5 945.7 508.5L945.7 508.5Q945.2 508.5 944.8 508.6Q944.3 508.8 943.9 509.0Q943.6 509.3 943.4 509.7Q943.2 510.1 943.2 510.6L943.2 510.6L943.2 520.1ZM964.2 508.5L960.6 508.5L960.6 499.4L964.2 499.4L964.2 508.5ZM979.0 520.4L979.0 520.4Q976.6 520.4 974.8 519.7Q973.1 519.0 972.2 517.7L972.2 517.7L974.5 515.6Q975.3 516.5 976.5 517.0Q977.6 517.5 979.1 517.5L979.1 517.5Q980.3 517.5 981.0 517.1Q981.7 516.8 981.7 516.0L981.7 516.0Q981.7 515.4 981.2 515.1Q980.7 514.9 979.9 514.7L979.9 514.7L977.6 514.4Q976.6 514.2 975.8 513.9Q974.9 513.7 974.3 513.1Q973.7 512.6 973.3 511.9Q973.0 511.2 973.0 510.2L973.0 510.2Q973.0 507.9 974.7 506.6Q976.4 505.3 979.6 505.3L979.6 505.3Q981.7 505.3 983.2 505.9Q984.7 506.5 985.6 507.5L985.6 507.5L983.5 509.9Q982.9 509.2 981.9 508.7Q980.9 508.2 979.4 508.2L979.4 508.2Q977.0 508.2 977.0 509.7L977.0 509.7Q977.0 510.3 977.5 510.6Q978.0 510.8 978.8 510.9L978.8 510.9L981.1 511.3Q982.1 511.4 982.9 511.7Q983.8 512.0 984.4 512.5Q985.0 513.0 985.4 513.8Q985.8 514.5 985.8 515.5L985.8 515.5Q985.8 517.8 984.0 519.1Q982.3 520.4 979.0 520.4Z M1006.6 520.1L1006.6 500.5L1013.4 500.5Q1016.3 500.5 1017.8 501.9Q1019.4 503.3 1019.4 505.8L1019.4 505.8Q1019.4 507.4 1018.5 508.4Q1017.7 509.4 1016.2 509.9L1016.2 509.9L1016.2 510.0Q1018.0 510.5 1019.0 511.6Q1020.0 512.7 1020.0 514.7L1020.0 514.7Q1020.0 517.2 1018.4 518.6Q1016.9 520.1 1014.1 520.1L1014.1 520.1L1006.6 520.1ZM1010.6 517.2L1012.8 517.2Q1014.3 517.2 1015.0 516.6Q1015.7 516.1 1015.7 514.8L1015.7 514.8L1015.7 514.0Q1015.7 512.6 1015.0 512.1Q1014.3 511.6 1012.8 511.6L1012.8 511.6L1010.6 511.6L1010.6 517.2ZM1010.6 508.8L1012.2 508.8Q1013.7 508.8 1014.4 508.3Q1015.1 507.9 1015.1 506.6L1015.1 506.6L1015.1 505.7Q1015.1 504.4 1014.4 504.0Q1013.7 503.5 1012.2 503.5L1012.2 503.5L1010.6 503.5L1010.6 508.8ZM1023.1 520.1L1023.1 516.9L1027.5 516.9L1027.5 502.6L1023.1 502.6L1023.1 499.4L1031.7 499.4L1031.7 516.9L1036.1 516.9L1036.1 520.1L1023.1 520.1ZM1046.4 520.4L1046.4 520.4Q1044.7 520.4 1043.4 519.9Q1042.0 519.4 1041.1 518.4Q1040.2 517.4 1039.7 516.0Q1039.1 514.6 1039.1 512.9L1039.1 512.9Q1039.1 511.1 1039.7 509.7Q1040.2 508.3 1041.1 507.3Q1042.0 506.3 1043.4 505.8Q1044.7 505.3 1046.4 505.3L1046.4 505.3Q1048.1 505.3 1049.4 505.8Q1050.8 506.3 1051.7 507.3Q1052.6 508.3 1053.1 509.7Q1053.7 511.1 1053.7 512.9L1053.7 512.9Q1053.7 514.6 1053.1 516.0Q1052.6 517.4 1051.7 518.4Q1050.8 519.4 1049.4 519.9Q1048.1 520.4 1046.4 520.4ZM1046.4 517.3L1046.4 517.3Q1047.8 517.3 1048.6 516.5Q1049.4 515.6 1049.4 514.0L1049.4 514.0L1049.4 511.7Q1049.4 510.1 1048.6 509.3Q1047.8 508.4 1046.4 508.4L1046.4 508.4Q1045 508.4 1044.2 509.3Q1043.4 510.1 1043.4 511.7L1043.4 511.7L1043.4 514.0Q1043.4 515.6 1044.2 516.5Q1045 517.3 1046.4 517.3ZM1071.1 521.5L1071.1 521.5Q1071.1 523.8 1069.2 524.9Q1067.3 526.0 1063.1 526.0L1063.1 526.0Q1061.0 526.0 1059.7 525.8Q1058.4 525.6 1057.6 525.1Q1056.8 524.7 1056.4 524.0Q1056.1 523.4 1056.1 522.7L1056.1 522.7Q1056.1 521.5 1056.8 520.8Q1057.6 520.2 1058.9 519.9L1058.9 519.9L1058.9 519.7Q1058.0 519.4 1057.4 518.9Q1056.9 518.4 1056.9 517.4L1056.9 517.4Q1056.9 516.4 1057.6 515.9Q1058.3 515.4 1059.5 515.1L1059.5 515.1L1059.5 514.9Q1058.2 514.3 1057.5 513.2Q1056.8 512.1 1056.8 510.5L1056.8 510.5Q1056.8 509.2 1057.2 508.2Q1057.7 507.3 1058.5 506.6Q1059.3 506.0 1060.5 505.6Q1061.6 505.3 1063.0 505.3L1063.0 505.3Q1064.4 505.3 1065.6 505.6L1065.6 505.6L1065.6 504.8Q1065.6 504.0 1066.2 503.4Q1066.8 502.9 1067.8 502.9L1067.8 502.9L1070.3 502.9L1070.3 505.9L1066.9 505.9L1066.9 506.1Q1068.0 506.8 1068.7 507.8Q1069.4 508.9 1069.4 510.5L1069.4 510.5Q1069.4 511.7 1068.9 512.7Q1068.5 513.6 1067.6 514.3Q1066.8 514.9 1065.6 515.3Q1064.5 515.6 1063.0 515.6L1063.0 515.6Q1062.4 515.6 1061.8 515.5Q1061.2 515.5 1060.7 515.3L1060.7 515.3Q1060.4 515.5 1060.2 515.8Q1060.0 516.0 1060.0 516.4L1060.0 516.4Q1060.0 516.7 1060.1 516.9Q1060.3 517.1 1060.6 517.2Q1060.9 517.3 1061.3 517.3Q1061.7 517.4 1062.1 517.4L1062.1 517.4L1065.4 517.4Q1066.9 517.4 1068.0 517.7Q1069.1 518.0 1069.8 518.6Q1070.5 519.1 1070.8 519.9Q1071.1 520.6 1071.1 521.5ZM1067.2 521.9L1067.2 521.9Q1067.2 521.3 1066.8 521.0Q1066.3 520.7 1065.0 520.7L1065.0 520.7L1060.1 520.7Q1059.5 521.1 1059.5 521.8L1059.5 521.8Q1059.5 522.5 1060.1 522.9Q1060.7 523.4 1062.1 523.4L1062.1 523.4L1064.5 523.4Q1065.9 523.4 1066.6 523.0Q1067.2 522.6 1067.2 521.9ZM1063.0 513.0L1063.0 513.0Q1064.3 513.0 1064.9 512.4Q1065.4 511.7 1065.4 510.8L1065.4 510.8L1065.4 510.1Q1065.4 509.2 1064.9 508.6Q1064.3 507.9 1063.0 507.9L1063.0 507.9Q1061.8 507.9 1061.2 508.6Q1060.7 509.2 1060.7 510.1L1060.7 510.1L1060.7 510.8Q1060.7 511.7 1061.2 512.4Q1061.8 513.0 1063.0 513.0Z " clip-path="url(#satori_cp-id-1-0-1-1)" mask="url(#satori_om-id-1-0-1-1)"/></svg>