<svg width="1200" height="630" viewBox="0 0 1200 630" xmlns="http://www.w3.org/2000/svg"><mask id="satori_om-id"><rect x="0" y="0" width="1200" height="630" fill="#fff"/></mask><rect x="0" y="0" width="1200" height="630" fill="#fefbfb"/><defs><clipPath id="satori_bc-id-0"><path x="105" y="39" width="1056" height="504" d="M109,39 h1048 a4,4 0 0 1 4,4 v496 a4,4 0 0 1 -4,4 h-1048 a4,4 0 0 1 -4,-4 v-496 a4,4 0 0 1 4,-4"/></clipPath></defs><mask id="satori_om-id-0"><rect x="109" y="43" width="1048" height="496" fill="#fff"/><path width="1056" height="504" fill="none" stroke="#000" stroke-width="8" d="M106.172,40.172 A4,4 0 0 1 109,39 h1048 a4,4 0 0 1 4,4 v496 a4,4 0 0 1 -4,4 h-1048 a4,4 0 0 1 -4,-4 v-496 A4,4 0 0 1 106.172,40.172"/></mask><g opacity="0.9"><path x="105" y="39" width="1056" height="504" fill="#ecebeb" d="M109,39 h1048 a4,4 0 0 1 4,4 v496 a4,4 0 0 1 -4,4 h-1048 a4,4 0 0 1 -4,-4 v-496 a4,4 0 0 1 4,-4"/><path width="1056" height="504" clip-path="url(#satori_bc-id-0)" fill="none" stroke="#000" stroke-width="8" d="M106.172,40.172 A4,4 0 0 1 109,39 h1048 a4,4 0 0 1 4,4 v496 a4,4 0 0 1 -4,4 h-1048 a4,4 0 0 1 -4,-4 v-496 A4,4 0 0 1 106.172,40.172"/></g><defs><clipPath id="satori_bc-id-1"><path x="72" y="63" width="1056" height="504" d="M76,63 h1048 a4,4 0 0 1 4,4 v496 a4,4 0 0 1 -4,4 h-1048 a4,4 0 0 1 -4,-4 v-496 a4,4 0 0 1 4,-4"/></clipPath></defs><mask id="satori_om-id-1"><rect x="76" y="67" width="1048" height="496" fill="#fff"/><path width="1056" height="504" fill="none" stroke="#000" stroke-width="8" d="M73.172,64.172 A4,4 0 0 1 76,63 h1048 a4,4 0 0 1 4,4 v496 a4,4 0 0 1 -4,4 h-1048 a4,4 0 0 1 -4,-4 v-496 A4,4 0 0 1 73.172,64.172"/></mask><path x="72" y="63" width="1056" height="504" fill="#fefbfb" d="M76,63 h1048 a4,4 0 0 1 4,4 v496 a4,4 0 0 1 -4,4 h-1048 a4,4 0 0 1 -4,-4 v-496 a4,4 0 0 1 4,-4"/><path width="1056" height="504" clip-path="url(#satori_bc-id-1)" fill="none" stroke="#000" stroke-width="8" d="M73.172,64.172 A4,4 0 0 1 76,63 h1048 a4,4 0 0 1 4,4 v496 a4,4 0 0 1 -4,4 h-1048 a4,4 0 0 1 -4,-4 v-496 A4,4 0 0 1 73.172,64.172"/><mask id="satori_om-id-1-0"><rect x="128" y="87" width="944" height="446" fill="#fff"/></mask><clipPath id="satori_cp-id-1-0-0"><rect x="128" y="103" width="944" height="281"/></clipPath><mask id="satori_om-id-1-0-0"><rect x="128" y="103" width="944" height="281" fill="#fff"/></mask><path fill="black" d="M159.0 183.0L159.0 160.6L159.6 146.5L159.0 146.5L149.6 172.4L140.2 146.5L139.6 146.5L140.2 160.6L140.2 183.0L130.8 183.0L130.8 132.7L143.6 132.7L149.7 149.6L150.3 149.6L156.5 132.7L168.4 132.7L168.4 183.0L159.0 183.0ZM195.1 141.0L195.1 141.0Q191.5 141.0 190.1 139.6Q188.7 138.1 188.7 136.0L188.7 136.0L188.7 133.9Q188.7 131.8 190.1 130.3Q191.5 128.9 195.1 128.9L195.1 128.9Q198.7 128.9 200.1 130.3Q201.5 131.8 201.5 133.9L201.5 133.9L201.5 136.0Q201.5 138.1 200.1 139.6Q198.7 141.0 195.1 141.0ZM178.0 183.0L178.0 174.7L189.8 174.7L189.8 154.1L178.0 154.1L178.0 145.8L200.4 145.8L200.4 174.7L211.4 174.7L211.4 183.0L178.0 183.0ZM256.4 186.7L256.4 186.7Q256.4 192.6 251.4 195.4Q246.4 198.2 235.8 198.2L235.8 198.2Q230.5 198.2 227.0 197.6Q223.5 197.0 221.5 195.8Q219.4 194.7 218.6 193.1Q217.8 191.5 217.8 189.6L217.8 189.6Q217.8 186.5 219.7 184.9Q221.5 183.2 224.9 182.4L224.9 182.4L224.9 181.9Q222.5 181.2 221.1 179.9Q219.7 178.6 219.7 176.1L219.7 176.1Q219.7 173.4 221.6 172.1Q223.4 170.8 226.4 170.1L226.4 170.1L226.4 169.6Q223.1 168.0 221.3 165.2Q219.4 162.3 219.4 158.2L219.4 158.2Q219.4 154.9 220.6 152.5Q221.7 150.0 223.9 148.3Q226.0 146.7 228.9 145.8Q231.9 144.9 235.6 144.9L235.6 144.9Q239.1 144.9 242.1 145.7L242.1 145.7L242.1 143.7Q242.1 141.6 243.6 140.1Q245.1 138.7 247.8 138.7L247.8 138.7L254.4 138.7L254.4 146.4L245.4 146.4L245.4 147.1Q248.5 148.7 250.1 151.5Q251.8 154.2 251.8 158.2L251.8 158.2Q251.8 161.4 250.7 163.9Q249.5 166.3 247.4 168.0Q245.2 169.7 242.2 170.6Q239.2 171.4 235.6 171.4L235.6 171.4Q233.9 171.4 232.4 171.3Q230.9 171.1 229.5 170.7L229.5 170.7Q228.7 171.1 228.2 171.8Q227.6 172.4 227.6 173.4L227.6 173.4Q227.6 174.3 228.1 174.8Q228.5 175.3 229.3 175.6Q230.0 175.8 231.0 175.9Q232.0 176.0 233.1 176.0L233.1 176.0L241.6 176.0Q245.6 176.0 248.4 176.8Q251.2 177.6 253.0 179.0Q254.8 180.4 255.6 182.4Q256.4 184.3 256.4 186.7ZM246.3 187.5L246.3 187.5Q246.3 186.0 245.1 185.2Q244.0 184.4 240.8 184.4L240.8 184.4L228.0 184.4Q226.6 185.6 226.6 187.4L226.6 187.4Q226.6 189.1 228.0 190.3Q229.5 191.4 233.0 191.4L233.0 191.4L239.3 191.4Q243.0 191.4 244.6 190.4Q246.3 189.4 246.3 187.5ZM235.6 164.7L235.6 164.7Q238.8 164.7 240.3 163.1Q241.8 161.5 241.8 159.0L241.8 159.0L241.8 157.3Q241.8 154.9 240.3 153.3Q238.8 151.7 235.6 151.7L235.6 151.7Q232.4 151.7 231.0 153.3Q229.5 154.9 229.5 157.3L229.5 157.3L229.5 159.0Q229.5 161.5 231.0 163.1Q232.4 164.7 235.6 164.7ZM262.9 183.0L262.9 174.7L271.5 174.7L271.5 154.1L262.9 154.1L262.9 145.8L282.2 145.8L282.2 156.3L282.7 156.3Q283.2 154.3 284.1 152.4Q285.0 150.5 286.4 149.0Q287.8 147.5 289.8 146.7Q291.8 145.8 294.5 145.8L294.5 145.8L298.1 145.8L298.1 155.6L290.1 155.6Q286.2 155.6 284.2 157.9Q282.2 160.3 282.2 163.7L282.2 163.7L282.2 174.7L294.4 174.7L294.4 183.0L262.9 183.0ZM342.0 183.0L335.9 183.0Q332.6 183.0 330.5 181.3Q328.5 179.6 328.2 176.4L328.2 176.4L327.8 176.4Q326.8 180.1 323.8 181.9Q320.8 183.8 316.5 183.8L316.5 183.8Q311.1 183.8 307.8 180.9Q304.5 178.0 304.5 172.7L304.5 172.7Q304.5 166.9 308.8 164.1Q313.0 161.3 321.2 161.3L321.2 161.3L327.2 161.3L327.2 159.4Q327.2 156.1 325.7 154.4Q324.1 152.7 320.5 152.7L320.5 152.7Q317.1 152.7 315.0 154.0Q312.9 155.3 311.4 157.4L311.4 157.4L305.6 152.2Q307.4 149.0 311.4 147.0Q315.4 144.9 321.7 144.9L321.7 144.9Q329.3 144.9 333.6 148.4Q337.9 151.9 337.9 159.0L337.9 159.0L337.9 175.2L342.0 175.2L342.0 183.0ZM320.5 176.8L320.5 176.8Q323.3 176.8 325.3 175.5Q327.2 174.1 327.2 171.5L327.2 171.5L327.2 167.0L321.5 167.0Q315.0 167.0 315.0 171.4L315.0 171.4L315.0 172.9Q315.0 174.8 316.5 175.8Q318.0 176.8 320.5 176.8ZM382.2 183.0L368.5 183.0Q362.7 183.0 359.9 179.9Q357.1 176.9 357.1 172.2L357.1 172.2L357.1 154.1L347.0 154.1L347.0 145.8L353.6 145.8Q356.0 145.8 357.0 144.9Q358.0 143.9 358.0 141.4L358.0 141.4L358.0 132.7L367.8 132.7L367.8 145.8L382.2 145.8L382.2 154.1L367.8 154.1L367.8 174.7L382.2 174.7L382.2 183.0ZM411.1 141.0L411.1 141.0Q407.5 141.0 406.1 139.6Q404.7 138.1 404.7 136.0L404.7 136.0L404.7 133.9Q404.7 131.8 406.1 130.3Q407.5 128.9 411.1 128.9L411.1 128.9Q414.7 128.9 416.1 130.3Q417.5 131.8 417.5 133.9L417.5 133.9L417.5 136.0Q417.5 138.1 416.1 139.6Q414.7 141.0 411.1 141.0ZM394.0 183.0L394.0 174.7L405.8 174.7L405.8 154.1L394.0 154.1L394.0 145.8L416.4 145.8L416.4 174.7L427.4 174.7L427.4 183.0L394.0 183.0ZM445.7 183.0L435.1 183.0L435.1 145.8L445.7 145.8L445.7 152.6L446.2 152.6Q446.8 151.0 447.8 149.6Q448.7 148.2 450.0 147.2Q451.4 146.2 453.1 145.5Q454.9 144.9 457.1 144.9L457.1 144.9Q459.8 144.9 462.0 145.8Q464.2 146.7 465.8 148.5Q467.4 150.3 468.3 152.9Q469.2 155.5 469.2 158.9L469.2 158.9L469.2 183.0L458.6 183.0L458.6 160.3Q458.6 153.1 452.3 153.1L452.3 153.1Q451.1 153.1 449.9 153.5Q448.7 153.8 447.8 154.5Q446.8 155.2 446.3 156.2Q445.7 157.2 445.7 158.5L445.7 158.5L445.7 183.0ZM515.6 186.7L515.6 186.7Q515.6 192.6 510.6 195.4Q505.6 198.2 495.0 198.2L495.0 198.2Q489.7 198.2 486.2 197.6Q482.7 197.0 480.7 195.8Q478.6 194.7 477.8 193.1Q477.0 191.5 477.0 189.6L477.0 189.6Q477.0 186.5 478.9 184.9Q480.7 183.2 484.1 182.4L484.1 182.4L484.1 181.9Q481.7 181.2 480.3 179.9Q478.9 178.6 478.9 176.1L478.9 176.1Q478.9 173.4 480.8 172.1Q482.6 170.8 485.6 170.1L485.6 170.1L485.6 169.6Q482.3 168.0 480.5 165.2Q478.6 162.3 478.6 158.2L478.6 158.2Q478.6 154.9 479.8 152.5Q480.9 150.0 483.1 148.3Q485.2 146.7 488.1 145.8Q491.1 144.9 494.8 144.9L494.8 144.9Q498.3 144.9 501.3 145.7L501.3 145.7L501.3 143.7Q501.3 141.6 502.8 140.1Q504.3 138.7 507.0 138.7L507.0 138.7L513.6 138.7L513.6 146.4L504.6 146.4L504.6 147.1Q507.7 148.7 509.3 151.5Q511.0 154.2 511.0 158.2L511.0 158.2Q511.0 161.4 509.9 163.9Q508.7 166.3 506.6 168.0Q504.4 169.7 501.4 170.6Q498.4 171.4 494.8 171.4L494.8 171.4Q493.1 171.4 491.6 171.3Q490.1 171.1 488.7 170.7L488.7 170.7Q487.9 171.1 487.4 171.8Q486.8 172.4 486.8 173.4L486.8 173.4Q486.8 174.3 487.3 174.8Q487.7 175.3 488.5 175.6Q489.2 175.8 490.2 175.9Q491.2 176.0 492.3 176.0L492.3 176.0L500.8 176.0Q504.8 176.0 507.6 176.8Q510.4 177.6 512.2 179.0Q514.0 180.4 514.8 182.4Q515.6 184.3 515.6 186.7ZM505.5 187.5L505.5 187.5Q505.5 186.0 504.3 185.2Q503.2 184.4 500.0 184.4L500.0 184.4L487.2 184.4Q485.8 185.6 485.8 187.4L485.8 187.4Q485.8 189.1 487.2 190.3Q488.7 191.4 492.2 191.4L492.2 191.4L498.5 191.4Q502.2 191.4 503.8 190.4Q505.5 189.4 505.5 187.5ZM494.8 164.7L494.8 164.7Q498.0 164.7 499.5 163.1Q501.0 161.5 501.0 159.0L501.0 159.0L501.0 157.3Q501.0 154.9 499.5 153.3Q498.0 151.7 494.8 151.7L494.8 151.7Q491.6 151.7 490.2 153.3Q488.7 154.9 488.7 157.3L488.7 157.3L488.7 159.0Q488.7 161.5 490.2 163.1Q491.6 164.7 494.8 164.7Z M570.7 183.0L562.2 183.0L562.2 145.8L570.7 145.8L570.7 151.3L571.2 151.3Q572.1 148.7 573.7 146.8Q575.3 144.9 578.3 144.9L578.3 144.9Q583.7 144.9 584.9 151.3L584.9 151.3L585.3 151.3Q585.8 150.0 586.4 148.8Q587.1 147.7 588.0 146.8Q588.9 145.9 590.2 145.4Q591.5 144.9 593.3 144.9L593.3 144.9Q601.0 144.9 601.0 156.4L601.0 156.4L601.0 183.0L592.5 183.0L592.5 157.5Q592.5 154.9 591.6 153.8Q590.7 152.8 589.2 152.8L589.2 152.8Q587.9 152.8 586.9 153.7Q585.9 154.6 585.9 156.5L585.9 156.5L585.9 183.0L577.3 183.0L577.3 157.5Q577.3 154.9 576.5 153.8Q575.6 152.8 574.2 152.8L574.2 152.8Q572.7 152.8 571.7 153.7Q570.7 154.6 570.7 156.5L570.7 156.5L570.7 183.0ZM628.6 161.4L634.2 145.8L645.0 145.8L627.5 188.9Q625.9 193.0 623.1 195.2Q620.4 197.4 615.7 197.4L615.7 197.4L608.3 197.4L608.3 189.1L617.2 189.1L619.5 182.7L604.6 145.8L616.0 145.8L621.4 161.4L624.8 172.2L625.4 172.2L628.6 161.4Z M145.6 276.6L131.9 276.6L128.8 226.3L138.1 226.3L139.5 256.4L140.0 265.9L140.6 265.9L144.9 237.2L154.6 237.2L159.0 265.9L159.6 265.9L160.0 256.7L161.5 226.3L170.4 226.3L167.3 276.6L153.6 276.6L150.0 248.8L149.2 248.8L145.6 276.6ZM192.8 277.4L192.8 277.4Q188.5 277.4 185.0 276.1Q181.6 274.8 179.2 272.2Q176.7 269.7 175.4 266.1Q174.2 262.5 174.2 258.0L174.2 258.0Q174.2 253.4 175.4 249.8Q176.7 246.2 179.2 243.7Q181.6 241.2 185.0 239.9Q188.5 238.5 192.8 238.5L192.8 238.5Q197.1 238.5 200.6 239.9Q204.0 241.2 206.4 243.7Q208.9 246.2 210.2 249.8Q211.4 253.4 211.4 258.0L211.4 258.0Q211.4 262.5 210.2 266.1Q208.9 269.7 206.4 272.2Q204.0 274.8 200.6 276.1Q197.1 277.4 192.8 277.4ZM192.8 269.5L192.8 269.5Q196.4 269.5 198.4 267.3Q200.4 265.0 200.4 260.9L200.4 260.9L200.4 255.0Q200.4 250.9 198.4 248.7Q196.4 246.5 192.8 246.5L192.8 246.5Q189.2 246.5 187.2 248.7Q185.2 250.9 185.2 255.0L185.2 255.0L185.2 260.9Q185.2 265.0 187.2 267.3Q189.2 269.5 192.8 269.5ZM219.7 276.6L219.7 268.3L228.3 268.3L228.3 247.7L219.7 247.7L219.7 239.4L239.0 239.4L239.0 249.9L239.5 249.9Q240.0 247.9 240.9 246.0Q241.8 244.1 243.2 242.6Q244.6 241.1 246.6 240.3Q248.6 239.4 251.3 239.4L251.3 239.4L254.9 239.4L254.9 249.2L246.9 249.2Q243.0 249.2 241.0 251.5Q239.0 253.9 239.0 257.3L239.0 257.3L239.0 268.3L251.2 268.3L251.2 276.6L219.7 276.6ZM285.9 276.6L285.9 269.8L285.4 269.8Q284.0 273.2 281.4 275.3Q278.8 277.4 274.4 277.4L274.4 277.4Q271.3 277.4 268.7 276.3Q266.2 275.1 264.3 272.7Q262.5 270.4 261.5 266.7Q260.4 263.0 260.4 258.0L260.4 258.0Q260.4 252.9 261.5 249.3Q262.5 245.6 264.3 243.2Q266.2 240.8 268.7 239.7Q271.3 238.5 274.4 238.5L274.4 238.5Q276.6 238.5 278.3 239.1Q280.1 239.7 281.4 240.7Q282.7 241.7 283.7 243.1Q284.7 244.5 285.4 246.2L285.4 246.2L285.9 246.2L285.9 223.3L296.6 223.3L296.6 276.6L285.9 276.6ZM279.0 269.1L279.0 269.1Q281.8 269.1 283.8 267.8Q285.9 266.4 285.9 263.4L285.9 263.4L285.9 252.5Q285.9 249.6 283.8 248.2Q281.8 246.8 279.0 246.8L279.0 246.8Q275.4 246.8 273.4 249.0Q271.5 251.2 271.5 255.1L271.5 255.1L271.5 260.9Q271.5 264.7 273.4 266.9Q275.4 269.1 279.0 269.1ZM305.0 291.0L305.0 239.4L315.7 239.4L315.7 246.2L316.2 246.2Q317.6 242.9 320.2 240.7Q322.8 238.5 327.2 238.5L327.2 238.5Q330.3 238.5 332.9 239.7Q335.4 240.8 337.3 243.2Q339.1 245.6 340.1 249.3Q341.2 252.9 341.2 258.0L341.2 258.0Q341.2 263.0 340.1 266.7Q339.1 270.4 337.3 272.7Q335.4 275.1 332.9 276.3Q330.3 277.4 327.2 277.4L327.2 277.4Q322.8 277.4 320.2 275.3Q317.6 273.2 316.2 269.8L316.2 269.8L315.7 269.8L315.7 291.0L305.0 291.0ZM322.6 269.1L322.6 269.1Q326.2 269.1 328.2 266.9Q330.1 264.7 330.1 260.9L330.1 260.9L330.1 255.1Q330.1 251.2 328.2 249.0Q326.2 246.8 322.6 246.8L322.6 246.8Q319.8 246.8 317.8 248.2Q315.7 249.6 315.7 252.5L315.7 252.5L315.7 263.4Q315.7 266.4 317.8 267.8Q319.8 269.1 322.6 269.1ZM349.3 276.6L349.3 268.3L357.9 268.3L357.9 247.7L349.3 247.7L349.3 239.4L368.6 239.4L368.6 249.9L369.1 249.9Q369.6 247.9 370.5 246.0Q371.4 244.1 372.8 242.6Q374.2 241.1 376.2 240.3Q378.2 239.4 380.9 239.4L380.9 239.4L384.5 239.4L384.5 249.2L376.5 249.2Q372.6 249.2 370.6 251.5Q368.6 253.9 368.6 257.3L368.6 257.3L368.6 268.3L380.8 268.3L380.8 276.6L349.3 276.6ZM409.8 277.4L409.8 277.4Q400.4 277.4 395.6 272.2Q390.8 267.0 390.8 258.1L390.8 258.1Q390.8 253.6 392.1 249.9Q393.3 246.3 395.7 243.8Q398.0 241.2 401.3 239.9Q404.7 238.5 408.9 238.5L408.9 238.5Q413.0 238.5 416.4 239.9Q419.7 241.2 422.0 243.6Q424.3 246.1 425.5 249.6Q426.8 253.1 426.8 257.4L426.8 257.4L426.8 260.6L401.4 260.6L401.4 261.2Q401.4 264.8 403.6 267.0Q405.8 269.2 410.2 269.2L410.2 269.2Q413.5 269.2 415.9 267.9Q418.2 266.7 420.0 264.6L420.0 264.6L425.7 270.9Q423.6 273.5 419.7 275.5Q415.8 277.4 409.8 277.4ZM408.9 246.2L408.9 246.2Q405.5 246.2 403.4 248.3Q401.4 250.4 401.4 254.0L401.4 254.0L401.4 254.6L416.4 254.6L416.4 254.0Q416.4 250.3 414.4 248.3Q412.4 246.2 408.9 246.2ZM451.6 277.4L451.6 277.4Q445.4 277.4 440.8 275.5Q436.2 273.7 433.9 270.4L433.9 270.4L439.9 264.9Q442.1 267.3 445.0 268.6Q447.9 269.9 451.6 269.9L451.6 269.9Q454.8 269.9 456.6 269.0Q458.4 268.0 458.4 266.0L458.4 266.0Q458.4 264.4 457.2 263.8Q456.0 263.2 453.8 262.8L453.8 262.8L447.8 261.9Q445.3 261.5 443.1 260.7Q441.0 260.0 439.4 258.7Q437.8 257.4 436.9 255.5Q435.9 253.7 435.9 251.0L435.9 251.0Q435.9 245.2 440.4 241.8Q444.9 238.5 452.9 238.5L452.9 238.5Q458.4 238.5 462.3 240.0Q466.1 241.5 468.4 244.2L468.4 244.2L463.1 250.3Q461.4 248.5 458.8 247.2Q456.2 246.0 452.6 246.0L452.6 246.0Q446.4 246.0 446.4 249.8L446.4 249.8Q446.4 251.4 447.6 252.0Q448.8 252.6 451.0 253.0L451.0 253.0L456.9 253.9Q459.4 254.3 461.6 255.1Q463.7 255.8 465.4 257.1Q467.0 258.4 467.9 260.3Q468.8 262.2 468.8 264.8L468.8 264.8Q468.8 270.6 464.3 274.0Q459.8 277.4 451.6 277.4ZM494.8 277.4L494.8 277.4Q488.6 277.4 484.0 275.5Q479.4 273.7 477.1 270.4L477.1 270.4L483.1 264.9Q485.3 267.3 488.2 268.6Q491.1 269.9 494.8 269.9L494.8 269.9Q498.0 269.9 499.8 269.0Q501.6 268.0 501.6 266.0L501.6 266.0Q501.6 264.4 500.4 263.8Q499.2 263.2 497.0 262.8L497.0 262.8L491.0 261.9Q488.5 261.5 486.3 260.7Q484.2 260.0 482.6 258.7Q481.0 257.4 480.1 255.5Q479.1 253.7 479.1 251.0L479.1 251.0Q479.1 245.2 483.6 241.8Q488.1 238.5 496.1 238.5L496.1 238.5Q501.6 238.5 505.5 240.0Q509.3 241.5 511.6 244.2L511.6 244.2L506.3 250.3Q504.6 248.5 502.0 247.2Q499.4 246.0 495.8 246.0L495.8 246.0Q489.6 246.0 489.6 249.8L489.6 249.8Q489.6 251.4 490.8 252.0Q492.0 252.6 494.2 253.0L494.2 253.0L500.1 253.9Q502.6 254.3 504.8 255.1Q506.9 255.8 508.6 257.1Q510.2 258.4 511.1 260.3Q512.0 262.2 512.0 264.8L512.0 264.8Q512.0 270.6 507.5 274.0Q503.0 277.4 494.8 277.4Z M564.2 276.6L564.2 223.3L574.9 223.3L574.9 246.2L575.4 246.2Q576.8 242.9 579.4 240.7Q582.0 238.5 586.4 238.5L586.4 238.5Q589.5 238.5 592.1 239.7Q594.6 240.8 596.5 243.2Q598.3 245.6 599.3 249.3Q600.4 252.9 600.4 258.0L600.4 258.0Q600.4 263.0 599.3 266.7Q598.3 270.4 596.5 272.7Q594.6 275.1 592.1 276.3Q589.5 277.4 586.4 277.4L586.4 277.4Q582.0 277.4 579.4 275.3Q576.8 273.2 575.4 269.8L575.4 269.8L574.9 269.8L574.9 276.6L564.2 276.6ZM581.8 269.1L581.8 269.1Q585.4 269.1 587.4 266.9Q589.3 264.7 589.3 260.9L589.3 260.9L589.3 255.1Q589.3 251.2 587.4 249.0Q585.4 246.8 581.8 246.8L581.8 246.8Q579.0 246.8 577.0 248.2Q574.9 249.6 574.9 252.5L574.9 252.5L574.9 263.4Q574.9 266.4 577.0 267.8Q579.0 269.1 581.8 269.1ZM608.1 276.6L608.1 268.3L619.5 268.3L619.5 231.6L608.1 231.6L608.1 223.3L630.1 223.3L630.1 268.3L641.5 268.3L641.5 276.6L608.1 276.6ZM668.0 277.4L668.0 277.4Q663.7 277.4 660.2 276.1Q656.8 274.8 654.4 272.2Q651.9 269.7 650.6 266.1Q649.4 262.5 649.4 258.0L649.4 258.0Q649.4 253.4 650.6 249.8Q651.9 246.2 654.4 243.7Q656.8 241.2 660.2 239.9Q663.7 238.5 668.0 238.5L668.0 238.5Q672.3 238.5 675.8 239.9Q679.2 241.2 681.6 243.7Q684.1 246.2 685.4 249.8Q686.6 253.4 686.6 258.0L686.6 258.0Q686.6 262.5 685.4 266.1Q684.1 269.7 681.6 272.2Q679.2 274.8 675.8 276.1Q672.3 277.4 668.0 277.4ZM668.0 269.5L668.0 269.5Q671.6 269.5 673.6 267.3Q675.6 265.0 675.6 260.9L675.6 260.9L675.6 255.0Q675.6 250.9 673.6 248.7Q671.6 246.5 668.0 246.5L668.0 246.5Q664.4 246.5 662.4 248.7Q660.4 250.9 660.4 255.0L660.4 255.0L660.4 260.9Q660.4 265.0 662.4 267.3Q664.4 269.5 668.0 269.5ZM731.6 280.3L731.6 280.3Q731.6 286.2 726.6 289.0Q721.6 291.8 711.0 291.8L711.0 291.8Q705.7 291.8 702.2 291.2Q698.7 290.6 696.7 289.4Q694.6 288.3 693.8 286.7Q693.0 285.1 693.0 283.2L693.0 283.2Q693.0 280.1 694.9 278.5Q696.7 276.8 700.1 276.0L700.1 276.0L700.1 275.5Q697.7 274.8 696.3 273.5Q694.9 272.2 694.9 269.7L694.9 269.7Q694.9 267.0 696.8 265.7Q698.6 264.4 701.6 263.7L701.6 263.7L701.6 263.2Q698.3 261.6 696.5 258.8Q694.6 255.9 694.6 251.8L694.6 251.8Q694.6 248.5 695.8 246.1Q696.9 243.6 699.1 241.9Q701.2 240.3 704.1 239.4Q707.1 238.5 710.8 238.5L710.8 238.5Q714.3 238.5 717.3 239.3L717.3 239.3L717.3 237.3Q717.3 235.2 718.8 233.7Q720.3 232.3 723.0 232.3L723.0 232.3L729.6 232.3L729.6 240.0L720.6 240.0L720.6 240.7Q723.7 242.3 725.3 245.1Q727.0 247.8 727.0 251.8L727.0 251.8Q727.0 255.0 725.9 257.5Q724.7 259.9 722.6 261.6Q720.4 263.3 717.4 264.2Q714.4 265.0 710.8 265.0L710.8 265.0Q709.1 265.0 707.6 264.9Q706.1 264.7 704.7 264.3L704.7 264.3Q703.9 264.7 703.4 265.4Q702.8 266.0 702.8 267.0L702.8 267.0Q702.8 267.9 703.3 268.4Q703.7 268.9 704.5 269.2Q705.2 269.4 706.2 269.5Q707.2 269.6 708.3 269.6L708.3 269.6L716.8 269.6Q720.8 269.6 723.6 270.4Q726.4 271.2 728.2 272.6Q730.0 274.0 730.8 276.0Q731.6 277.9 731.6 280.3ZM721.5 281.1L721.5 281.1Q721.5 279.6 720.3 278.8Q719.2 278.0 716.0 278.0L716.0 278.0L703.2 278.0Q701.8 279.2 701.8 281.0L701.8 281.0Q701.8 282.7 703.2 283.9Q704.7 285.0 708.2 285.0L708.2 285.0L714.5 285.0Q718.2 285.0 719.8 284.0Q721.5 283.0 721.5 281.1ZM710.8 258.3L710.8 258.3Q714.0 258.3 715.5 256.7Q717.0 255.1 717.0 252.6L717.0 252.6L717.0 250.9Q717.0 248.5 715.5 246.9Q714.0 245.3 710.8 245.3L710.8 245.3Q707.6 245.3 706.2 246.9Q704.7 248.5 704.7 250.9L704.7 250.9L704.7 252.6Q704.7 255.1 706.2 256.7Q707.6 258.3 710.8 258.3Z M814.2 276.6L800.5 276.6Q794.7 276.6 791.9 273.5Q789.1 270.5 789.1 265.8L789.1 265.8L789.1 247.7L779.0 247.7L779.0 239.4L785.6 239.4Q788.0 239.4 789.0 238.5Q790.0 237.5 790.0 235.0L790.0 235.0L790.0 226.3L799.8 226.3L799.8 239.4L814.2 239.4L814.2 247.7L799.8 247.7L799.8 268.3L814.2 268.3L814.2 276.6ZM840.8 277.4L840.8 277.4Q836.5 277.4 833.0 276.1Q829.6 274.8 827.2 272.2Q824.7 269.7 823.4 266.1Q822.2 262.5 822.2 258.0L822.2 258.0Q822.2 253.4 823.4 249.8Q824.7 246.2 827.2 243.7Q829.6 241.2 833.0 239.9Q836.5 238.5 840.8 238.5L840.8 238.5Q845.1 238.5 848.6 239.9Q852.0 241.2 854.4 243.7Q856.9 246.2 858.2 249.8Q859.4 253.4 859.4 258.0L859.4 258.0Q859.4 262.5 858.2 266.1Q856.9 269.7 854.4 272.2Q852.0 274.8 848.6 276.1Q845.1 277.4 840.8 277.4ZM840.8 269.5L840.8 269.5Q844.4 269.5 846.4 267.3Q848.4 265.0 848.4 260.9L848.4 260.9L848.4 255.0Q848.4 250.9 846.4 248.7Q844.4 246.5 840.8 246.5L840.8 246.5Q837.2 246.5 835.2 248.7Q833.2 250.9 833.2 255.0L833.2 255.0L833.2 260.9Q833.2 265.0 835.2 267.3Q837.2 269.5 840.8 269.5Z M170.8 370.2L159.3 370.2L156.2 358.1L142.4 358.1L139.3 370.2L128.4 370.2L142.0 319.9L157.2 319.9L170.8 370.2ZM154.5 349.3L149.6 330.3L149.0 330.3L144.1 349.3L154.5 349.3ZM192.4 371.0L192.4 371.0Q186.2 371.0 181.6 369.1Q177.0 367.3 174.7 364.0L174.7 364.0L180.7 358.5Q182.9 360.9 185.8 362.2Q188.7 363.5 192.4 363.5L192.4 363.5Q195.6 363.5 197.4 362.6Q199.2 361.6 199.2 359.6L199.2 359.6Q199.2 358.0 198.0 357.4Q196.8 356.8 194.6 356.4L194.6 356.4L188.6 355.5Q186.1 355.1 183.9 354.3Q181.8 353.6 180.2 352.3Q178.6 351.0 177.7 349.1Q176.7 347.3 176.7 344.6L176.7 344.6Q176.7 338.8 181.2 335.4Q185.7 332.1 193.7 332.1L193.7 332.1Q199.2 332.1 203.1 333.6Q206.9 335.1 209.2 337.8L209.2 337.8L203.9 343.9Q202.2 342.1 199.6 340.8Q197.0 339.6 193.4 339.6L193.4 339.6Q187.2 339.6 187.2 343.4L187.2 343.4Q187.2 345.0 188.4 345.6Q189.6 346.2 191.8 346.6L191.8 346.6L197.7 347.5Q200.2 347.9 202.4 348.7Q204.5 349.4 206.2 350.7Q207.8 352.0 208.7 353.9Q209.6 355.8 209.6 358.4L209.6 358.4Q209.6 364.2 205.1 367.6Q200.6 371.0 192.4 371.0ZM252.6 370.2L238.9 370.2Q233.1 370.2 230.3 367.1Q227.5 364.1 227.5 359.4L227.5 359.4L227.5 341.3L217.4 341.3L217.4 333.0L224.0 333.0Q226.4 333.0 227.4 332.1Q228.4 331.1 228.4 328.6L228.4 328.6L228.4 319.9L238.2 319.9L238.2 333.0L252.6 333.0L252.6 341.3L238.2 341.3L238.2 361.9L252.6 361.9L252.6 370.2ZM262.9 370.2L262.9 361.9L271.5 361.9L271.5 341.3L262.9 341.3L262.9 333.0L282.2 333.0L282.2 343.5L282.7 343.5Q283.2 341.5 284.1 339.6Q285.0 337.7 286.4 336.2Q287.8 334.7 289.8 333.9Q291.8 333.0 294.5 333.0L294.5 333.0L298.1 333.0L298.1 342.8L290.1 342.8Q286.2 342.8 284.2 345.1Q282.2 347.5 282.2 350.9L282.2 350.9L282.2 361.9L294.4 361.9L294.4 370.2L262.9 370.2ZM322.4 371.0L322.4 371.0Q318.1 371.0 314.6 369.7Q311.2 368.4 308.8 365.8Q306.3 363.3 305.0 359.7Q303.8 356.1 303.8 351.6L303.8 351.6Q303.8 347.0 305.0 343.4Q306.3 339.8 308.8 337.3Q311.2 334.8 314.6 333.5Q318.1 332.1 322.4 332.1L322.4 332.1Q326.7 332.1 330.2 333.5Q333.6 334.8 336.0 337.3Q338.5 339.8 339.8 343.4Q341.0 347.0 341.0 351.6L341.0 351.6Q341.0 356.1 339.8 359.7Q338.5 363.3 336.0 365.8Q333.6 368.4 330.2 369.7Q326.7 371.0 322.4 371.0ZM322.4 363.1L322.4 363.1Q326.0 363.1 328.0 360.9Q330.0 358.6 330.0 354.5L330.0 354.5L330.0 348.6Q330.0 344.5 328.0 342.3Q326.0 340.1 322.4 340.1L322.4 340.1Q318.8 340.1 316.8 342.3Q314.8 344.5 314.8 348.6L314.8 348.6L314.8 354.5Q314.8 358.6 316.8 360.9Q318.8 363.1 322.4 363.1Z " clip-path="url(#satori_cp-id-1-0-0)" mask="url(#satori_om-id-1-0-0)"/><mask id="satori_om-id-1-0-1"><rect x="128" y="489" width="944" height="36" fill="#fff"/></mask><mask id="satori_om-id-1-0-1-0"><rect x="128" y="489" width="219" height="36" fill="#fff"/></mask><path fill="black" d="M130.7 520.3L130.7 499.6L132.9 499.6L132.9 508.2L133.0 508.2Q134.4 505.5 137.5 505.5L137.5 505.5Q140.1 505.5 141.6 507.5Q143.1 509.5 143.1 513.0L143.1 513.0Q143.1 516.6 141.6 518.6Q140.1 520.6 137.5 520.6L137.5 520.6Q134.4 520.6 133.0 517.9L133.0 517.9L132.9 517.9L132.9 520.3L130.7 520.3ZM136.6 518.6L136.6 518.6Q138.6 518.6 139.6 517.4Q140.7 516.2 140.7 514.3L140.7 514.3L140.7 511.8Q140.7 509.9 139.6 508.7Q138.6 507.5 136.6 507.5L136.6 507.5Q135.8 507.5 135.2 507.7Q134.5 507.9 134.0 508.2Q133.5 508.6 133.2 509.2Q132.9 509.7 132.9 510.4L132.9 510.4L132.9 515.7Q132.9 516.4 133.2 516.9Q133.5 517.5 134.0 517.8Q134.5 518.2 135.2 518.4Q135.8 518.6 136.6 518.6ZM155.4 511.9L157.9 505.8L160.1 505.8L152.9 523.4Q152.7 524.1 152.4 524.5Q152.1 525.0 151.7 525.3Q151.2 525.6 150.7 525.7Q150.1 525.9 149.3 525.9L149.3 525.9L147.1 525.9L147.1 524.0L150.5 524.0L152.1 520.0L146.3 505.8L148.6 505.8L151.0 511.9L153.2 517.4L153.3 517.4L155.4 511.9Z "/><mask id="satori_om-id-1-0-1-0-1"><rect x="162" y="489" width="17" height="36" fill="#fff"/></mask><clipPath id="satori_cp-id-1-0-1-0-2"><rect x="178" y="489" width="168" height="36"/></clipPath><mask id="satori_om-id-1-0-1-0-2"><rect x="178" y="489" width="168" height="36" fill="#fff"/></mask><path fill="black" d="M194.1 504.0L188.5 504.0L188.5 520.1L184.3 520.1L184.3 504.0L178.7 504.0L178.7 500.5L194.1 500.5L194.1 504.0ZM204.1 503.8L204.1 503.8Q202.7 503.8 202.2 503.2Q201.6 502.6 201.6 501.8L201.6 501.8L201.6 501.0Q201.6 500.2 202.2 499.6Q202.7 499.1 204.1 499.1L204.1 499.1Q205.5 499.1 206.0 499.6Q206.6 500.2 206.6 501.0L206.6 501.0L206.6 501.8Q206.6 502.6 206.0 503.2Q205.5 503.8 204.1 503.8ZM197.4 520.1L197.4 516.9L202.0 516.9L202.0 508.9L197.4 508.9L197.4 505.6L206.2 505.6L206.2 516.9L210.4 516.9L210.4 520.1L197.4 520.1ZM215.8 520.1L212.4 520.1L212.4 505.6L215.8 505.6L215.8 507.8L216.0 507.8Q216.3 506.8 216.9 506.0Q217.6 505.3 218.7 505.3L218.7 505.3Q220.8 505.3 221.3 507.8L221.3 507.8L221.5 507.8Q221.6 507.3 221.9 506.8Q222.1 506.4 222.5 506.0Q222.9 505.7 223.4 505.5Q223.9 505.3 224.5 505.3L224.5 505.3Q227.6 505.3 227.6 509.8L227.6 509.8L227.6 520.1L224.2 520.1L224.2 510.2Q224.2 509.2 223.9 508.8Q223.5 508.4 223.0 508.4L223.0 508.4Q222.4 508.4 222.1 508.7Q221.7 509.1 221.7 509.8L221.7 509.8L221.7 520.1L218.3 520.1L218.3 510.2Q218.3 509.2 218.0 508.8Q217.7 508.4 217.1 508.4L217.1 508.4Q216.6 508.4 216.2 508.7Q215.8 509.1 215.8 509.8L215.8 509.8L215.8 520.1Z M252.0 520.1L246.7 520.1L245.5 500.5L249.1 500.5L249.7 512.3L249.8 515.9L250.1 515.9L251.8 504.8L255.6 504.8L257.2 515.9L257.5 515.9L257.7 512.4L258.2 500.5L261.7 500.5L260.5 520.1L255.2 520.1L253.7 509.3L253.5 509.3L252.0 520.1ZM278.0 520.1L275.6 520.1Q274.3 520.1 273.6 519.4Q272.8 518.8 272.6 517.5L272.6 517.5L272.5 517.5Q272.1 519.0 270.9 519.7Q269.8 520.4 268.1 520.4L268.1 520.4Q266.0 520.4 264.7 519.3Q263.5 518.2 263.5 516.1L263.5 516.1Q263.5 513.8 265.1 512.8Q266.8 511.7 270.0 511.7L270.0 511.7L272.3 511.7L272.3 510.9Q272.3 509.6 271.7 509.0Q271.1 508.3 269.6 508.3L269.6 508.3Q268.3 508.3 267.5 508.8Q266.7 509.3 266.1 510.2L266.1 510.2L263.8 508.1Q264.6 506.9 266.1 506.1Q267.7 505.3 270.1 505.3L270.1 505.3Q273.1 505.3 274.8 506.7Q276.4 508.0 276.4 510.8L276.4 510.8L276.4 517.1L278.0 517.1L278.0 520.1ZM269.7 517.7L269.7 517.7Q270.8 517.7 271.5 517.2Q272.3 516.6 272.3 515.6L272.3 515.6L272.3 513.9L270.1 513.9Q267.5 513.9 267.5 515.6L267.5 515.6L267.5 516.2Q267.5 516.9 268.1 517.3Q268.7 517.7 269.7 517.7ZM293.7 520.1L288.3 520.1Q286.1 520.1 285.0 518.9Q283.9 517.7 283.9 515.9L283.9 515.9L283.9 508.9L280.0 508.9L280.0 505.6L282.5 505.6Q283.4 505.6 283.8 505.3Q284.2 504.9 284.2 503.9L284.2 503.9L284.2 500.5L288.0 500.5L288.0 505.6L293.7 505.6L293.7 508.9L288.0 508.9L288.0 516.9L293.7 516.9L293.7 520.1ZM303.8 520.4L303.8 520.4Q301.4 520.4 299.6 519.7Q297.9 519.0 297.0 517.7L297.0 517.7L299.3 515.6Q300.1 516.5 301.3 517.0Q302.4 517.5 303.9 517.5L303.9 517.5Q305.1 517.5 305.8 517.1Q306.5 516.8 306.5 516.0L306.5 516.0Q306.5 515.4 306.0 515.1Q305.5 514.9 304.7 514.7L304.7 514.7L302.4 514.4Q301.4 514.2 300.6 513.9Q299.7 513.7 299.1 513.1Q298.5 512.6 298.1 511.9Q297.8 511.2 297.8 510.2L297.8 510.2Q297.8 507.9 299.5 506.6Q301.2 505.3 304.4 505.3L304.4 505.3Q306.5 505.3 308.0 505.9Q309.5 506.5 310.4 507.5L310.4 507.5L308.3 509.9Q307.7 509.2 306.7 508.7Q305.7 508.2 304.2 508.2L304.2 508.2Q301.8 508.2 301.8 509.7L301.8 509.7Q301.8 510.3 302.3 510.6Q302.8 510.8 303.6 510.9L303.6 510.9L305.9 511.3Q306.9 511.4 307.7 511.7Q308.6 512.0 309.2 512.5Q309.8 513.0 310.2 513.8Q310.6 514.5 310.6 515.5L310.6 515.5Q310.6 517.8 308.8 519.1Q307.1 520.4 303.8 520.4ZM320.8 520.4L320.8 520.4Q319.1 520.4 317.8 519.9Q316.4 519.4 315.5 518.4Q314.6 517.4 314.1 516.0Q313.5 514.6 313.5 512.9L313.5 512.9Q313.5 511.1 314.1 509.7Q314.6 508.3 315.5 507.3Q316.4 506.3 317.8 505.8Q319.1 505.3 320.8 505.3L320.8 505.3Q322.5 505.3 323.8 505.8Q325.2 506.3 326.1 507.3Q327.0 508.3 327.5 509.7Q328.1 511.1 328.1 512.9L328.1 512.9Q328.1 514.6 327.5 516.0Q327.0 517.4 326.1 518.4Q325.2 519.4 323.8 519.9Q322.5 520.4 320.8 520.4ZM320.8 517.3L320.8 517.3Q322.2 517.3 323.0 516.5Q323.8 515.6 323.8 514.0L323.8 514.0L323.8 511.7Q323.8 510.1 323.0 509.3Q322.2 508.4 320.8 508.4L320.8 508.4Q319.4 508.4 318.6 509.3Q317.8 510.1 317.8 511.7L317.8 511.7L317.8 514.0Q317.8 515.6 318.6 516.5Q319.4 517.3 320.8 517.3ZM335.2 520.1L331.0 520.1L331.0 505.6L335.2 505.6L335.2 508.3L335.3 508.3Q335.6 507.7 335.9 507.1Q336.3 506.6 336.8 506.2Q337.3 505.8 338.0 505.5Q338.7 505.3 339.6 505.3L339.6 505.3Q340.6 505.3 341.5 505.7Q342.4 506.0 343.0 506.7Q343.6 507.4 343.9 508.4Q344.3 509.4 344.3 510.7L344.3 510.7L344.3 520.1L340.1 520.1L340.1 511.3Q340.1 508.5 337.7 508.5L337.7 508.5Q337.2 508.5 336.8 508.6Q336.3 508.8 335.9 509.0Q335.6 509.3 335.4 509.7Q335.2 510.1 335.2 510.6L335.2 510.6L335.2 520.1Z " clip-path="url(#satori_cp-id-1-0-1-0-2)" mask="url(#satori_om-id-1-0-1-0-2)"/><clipPath id="satori_cp-id-1-0-1-1"><rect x="786" y="489" width="286" height="36"/></clipPath><mask id="satori_om-id-1-0-1-1"><rect x="786" y="489" width="286" height="36" fill="#fff"/></mask><path fill="black" d="M802.1 504.0L796.5 504.0L796.5 520.1L792.3 520.1L792.3 504.0L786.7 504.0L786.7 500.5L802.1 500.5L802.1 504.0ZM812.1 503.8L812.1 503.8Q810.7 503.8 810.1 503.2Q809.6 502.6 809.6 501.8L809.6 501.8L809.6 501.0Q809.6 500.2 810.1 499.6Q810.7 499.1 812.1 499.1L812.1 499.1Q813.5 499.1 814.0 499.6Q814.6 500.2 814.6 501.0L814.6 501.0L814.6 501.8Q814.6 502.6 814.0 503.2Q813.5 503.8 812.1 503.8ZM805.4 520.1L805.4 516.9L810.0 516.9L810.0 508.9L805.4 508.9L805.4 505.6L814.2 505.6L814.2 516.9L818.4 516.9L818.4 520.1L805.4 520.1ZM823.8 520.1L820.4 520.1L820.4 505.6L823.8 505.6L823.8 507.8L824.0 507.8Q824.3 506.8 824.9 506.0Q825.6 505.3 826.7 505.3L826.7 505.3Q828.8 505.3 829.3 507.8L829.3 507.8L829.5 507.8Q829.6 507.3 829.9 506.8Q830.1 506.4 830.5 506.0Q830.9 505.7 831.4 505.5Q831.9 505.3 832.5 505.3L832.5 505.3Q835.6 505.3 835.6 509.8L835.6 509.8L835.6 520.1L832.2 520.1L832.2 510.2Q832.2 509.2 831.9 508.8Q831.5 508.4 831.0 508.4L831.0 508.4Q830.4 508.4 830.1 508.7Q829.7 509.1 829.7 509.8L829.7 509.8L829.7 520.1L826.3 520.1L826.3 510.2Q826.3 509.2 826.0 508.8Q825.7 508.4 825.1 508.4L825.1 508.4Q824.6 508.4 824.2 508.7Q823.8 509.1 823.8 509.8L823.8 509.8L823.8 520.1Z M860.0 520.1L854.7 520.1L853.5 500.5L857.1 500.5L857.7 512.3L857.8 515.9L858.1 515.9L859.8 504.8L863.6 504.8L865.2 515.9L865.5 515.9L865.7 512.4L866.2 500.5L869.7 500.5L868.5 520.1L863.2 520.1L861.7 509.3L861.5 509.3L860.0 520.1ZM886.0 520.1L883.6 520.1Q882.3 520.1 881.6 519.4Q880.8 518.8 880.6 517.5L880.6 517.5L880.5 517.5Q880.1 519.0 878.9 519.7Q877.8 520.4 876.1 520.4L876.1 520.4Q874.0 520.4 872.7 519.3Q871.5 518.2 871.5 516.1L871.5 516.1Q871.5 513.8 873.1 512.8Q874.8 511.7 878.0 511.7L878.0 511.7L880.3 511.7L880.3 510.9Q880.3 509.6 879.7 509.0Q879.1 508.3 877.6 508.3L877.6 508.3Q876.3 508.3 875.5 508.8Q874.7 509.3 874.1 510.2L874.1 510.2L871.8 508.1Q872.6 506.9 874.1 506.1Q875.7 505.3 878.1 505.3L878.1 505.3Q881.1 505.3 882.8 506.7Q884.4 508.0 884.4 510.8L884.4 510.8L884.4 517.1L886.0 517.1L886.0 520.1ZM877.7 517.7L877.7 517.7Q878.8 517.7 879.5 517.2Q880.3 516.6 880.3 515.6L880.3 515.6L880.3 513.9L878.1 513.9Q875.5 513.9 875.5 515.6L875.5 515.6L875.5 516.2Q875.5 516.9 876.1 517.3Q876.7 517.7 877.7 517.7ZM901.7 520.1L896.3 520.1Q894.1 520.1 893.0 518.9Q891.9 517.7 891.9 515.9L891.9 515.9L891.9 508.9L888.0 508.9L888.0 505.6L890.5 505.6Q891.4 505.6 891.8 505.3Q892.2 504.9 892.2 503.9L892.2 503.9L892.2 500.5L896.0 500.5L896.0 505.6L901.7 505.6L901.7 508.9L896.0 508.9L896.0 516.9L901.7 516.9L901.7 520.1ZM911.8 520.4L911.8 520.4Q909.4 520.4 907.6 519.7Q905.9 519.0 905.0 517.7L905.0 517.7L907.3 515.6Q908.1 516.5 909.3 517.0Q910.4 517.5 911.9 517.5L911.9 517.5Q913.1 517.5 913.8 517.1Q914.5 516.8 914.5 516.0L914.5 516.0Q914.5 515.4 914.0 515.1Q913.5 514.9 912.7 514.7L912.7 514.7L910.4 514.4Q909.4 514.2 908.6 513.9Q907.7 513.7 907.1 513.1Q906.5 512.6 906.1 511.9Q905.8 511.2 905.8 510.2L905.8 510.2Q905.8 507.9 907.5 506.6Q909.2 505.3 912.4 505.3L912.4 505.3Q914.5 505.3 916.0 505.9Q917.5 506.5 918.4 507.5L918.4 507.5L916.3 509.9Q915.7 509.2 914.7 508.7Q913.7 508.2 912.2 508.2L912.2 508.2Q909.8 508.2 909.8 509.7L909.8 509.7Q909.8 510.3 910.3 510.6Q910.8 510.8 911.6 510.9L911.6 510.9L913.9 511.3Q914.9 511.4 915.7 511.7Q916.6 512.0 917.2 512.5Q917.8 513.0 918.2 513.8Q918.6 514.5 918.6 515.5L918.6 515.5Q918.6 517.8 916.8 519.1Q915.1 520.4 911.8 520.4ZM928.8 520.4L928.8 520.4Q927.1 520.4 925.8 519.9Q924.4 519.4 923.5 518.4Q922.6 517.4 922.1 516.0Q921.5 514.6 921.5 512.9L921.5 512.9Q921.5 511.1 922.1 509.7Q922.6 508.3 923.5 507.3Q924.4 506.3 925.8 505.8Q927.1 505.3 928.8 505.3L928.8 505.3Q930.5 505.3 931.8 505.8Q933.2 506.3 934.1 507.3Q935.0 508.3 935.5 509.7Q936.1 511.1 936.1 512.9L936.1 512.9Q936.1 514.6 935.5 516.0Q935.0 517.4 934.1 518.4Q933.2 519.4 931.8 519.9Q930.5 520.4 928.8 520.4ZM928.8 517.3L928.8 517.3Q930.2 517.3 931.0 516.5Q931.8 515.6 931.8 514.0L931.8 514.0L931.8 511.7Q931.8 510.1 931.0 509.3Q930.2 508.4 928.8 508.4L928.8 508.4Q927.4 508.4 926.6 509.3Q925.8 510.1 925.8 511.7L925.8 511.7L925.8 514.0Q925.8 515.6 926.6 516.5Q927.4 517.3 928.8 517.3ZM943.2 520.1L939.0 520.1L939.0 505.6L943.2 505.6L943.2 508.3L943.3 508.3Q943.6 507.7 943.9 507.1Q944.3 506.6 944.8 506.2Q945.3 505.8 946.0 505.5Q946.7 505.3 947.6 505.3L947.6 505.3Q948.6 505.3 949.5 505.7Q950.4 506.0 951.0 506.7Q951.6 507.4 951.9 508.4Q952.3 509.4 952.3 510.7L952.3 510.7L952.3 520.1L948.1 520.1L948.1 511.3Q948.1 508.5 945.7 508.5L945.7 508.5Q945.2 508.5 944.8 508.6Q944.3 508.8 943.9 509.0Q943.6 509.3 943.4 509.7Q943.2 510.1 943.2 510.6L943.2 510.6L943.2 520.1ZM964.2 508.5L960.6 508.5L960.6 499.4L964.2 499.4L964.2 508.5ZM979.0 520.4L979.0 520.4Q976.6 520.4 974.8 519.7Q973.1 519.0 972.2 517.7L972.2 517.7L974.5 515.6Q975.3 516.5 976.5 517.0Q977.6 517.5 979.1 517.5L979.1 517.5Q980.3 517.5 981.0 517.1Q981.7 516.8 981.7 516.0L981.7 516.0Q981.7 515.4 981.2 515.1Q980.7 514.9 979.9 514.7L979.9 514.7L977.6 514.4Q976.6 514.2 975.8 513.9Q974.9 513.7 974.3 513.1Q973.7 512.6 973.3 511.9Q973.0 511.2 973.0 510.2L973.0 510.2Q973.0 507.9 974.7 506.6Q976.4 505.3 979.6 505.3L979.6 505.3Q981.7 505.3 983.2 505.9Q984.7 506.5 985.6 507.5L985.6 507.5L983.5 509.9Q982.9 509.2 981.9 508.7Q980.9 508.2 979.4 508.2L979.4 508.2Q977.0 508.2 977.0 509.7L977.0 509.7Q977.0 510.3 977.5 510.6Q978.0 510.8 978.8 510.9L978.8 510.9L981.1 511.3Q982.1 511.4 982.9 511.7Q983.8 512.0 984.4 512.5Q985.0 513.0 985.4 513.8Q985.8 514.5 985.8 515.5L985.8 515.5Q985.8 517.8 984.0 519.1Q982.3 520.4 979.0 520.4Z M1006.6 520.1L1006.6 500.5L1013.4 500.5Q1016.3 500.5 1017.8 501.9Q1019.4 503.3 1019.4 505.8L1019.4 505.8Q1019.4 507.4 1018.5 508.4Q1017.7 509.4 1016.2 509.9L1016.2 509.9L1016.2 510.0Q1018.0 510.5 1019.0 511.6Q1020.0 512.7 1020.0 514.7L1020.0 514.7Q1020.0 517.2 1018.4 518.6Q1016.9 520.1 1014.1 520.1L1014.1 520.1L1006.6 520.1ZM1010.6 517.2L1012.8 517.2Q1014.3 517.2 1015.0 516.6Q1015.7 516.1 1015.7 514.8L1015.7 514.8L1015.7 514.0Q1015.7 512.6 1015.0 512.1Q1014.3 511.6 1012.8 511.6L1012.8 511.6L1010.6 511.6L1010.6 517.2ZM1010.6 508.8L1012.2 508.8Q1013.7 508.8 1014.4 508.3Q1015.1 507.9 1015.1 506.6L1015.1 506.6L1015.1 505.7Q1015.1 504.4 1014.4 504.0Q1013.7 503.5 1012.2 503.5L1012.2 503.5L1010.6 503.5L1010.6 508.8ZM1023.1 520.1L1023.1 516.9L1027.5 516.9L1027.5 502.6L1023.1 502.6L1023.1 499.4L1031.7 499.4L1031.7 516.9L1036.1 516.9L1036.1 520.1L1023.1 520.1ZM1046.4 520.4L1046.4 520.4Q1044.7 520.4 1043.4 519.9Q1042.0 519.4 1041.1 518.4Q1040.2 517.4 1039.7 516.0Q1039.1 514.6 1039.1 512.9L1039.1 512.9Q1039.1 511.1 1039.7 509.7Q1040.2 508.3 1041.1 507.3Q1042.0 506.3 1043.4 505.8Q1044.7 505.3 1046.4 505.3L1046.4 505.3Q1048.1 505.3 1049.4 505.8Q1050.8 506.3 1051.7 507.3Q1052.6 508.3 1053.1 509.7Q1053.7 511.1 1053.7 512.9L1053.7 512.9Q1053.7 514.6 1053.1 516.0Q1052.6 517.4 1051.7 518.4Q1050.8 519.4 1049.4 519.9Q1048.1 520.4 1046.4 520.4ZM1046.4 517.3L1046.4 517.3Q1047.8 517.3 1048.6 516.5Q1049.4 515.6 1049.4 514.0L1049.4 514.0L1049.4 511.7Q1049.4 510.1 1048.6 509.3Q1047.8 508.4 1046.4 508.4L1046.4 508.4Q1045 508.4 1044.2 509.3Q1043.4 510.1 1043.4 511.7L1043.4 511.7L1043.4 514.0Q1043.4 515.6 1044.2 516.5Q1045 517.3 1046.4 517.3ZM1071.1 521.5L1071.1 521.5Q1071.1 523.8 1069.2 524.9Q1067.3 526.0 1063.1 526.0L1063.1 526.0Q1061.0 526.0 1059.7 525.8Q1058.4 525.6 1057.6 525.1Q1056.8 524.7 1056.4 524.0Q1056.1 523.4 1056.1 522.7L1056.1 522.7Q1056.1 521.5 1056.8 520.8Q1057.6 520.2 1058.9 519.9L1058.9 519.9L1058.9 519.7Q1058.0 519.4 1057.4 518.9Q1056.9 518.4 1056.9 517.4L1056.9 517.4Q1056.9 516.4 1057.6 515.9Q1058.3 515.4 1059.5 515.1L1059.5 515.1L1059.5 514.9Q1058.2 514.3 1057.5 513.2Q1056.8 512.1 1056.8 510.5L1056.8 510.5Q1056.8 509.2 1057.2 508.2Q1057.7 507.3 1058.5 506.6Q1059.3 506.0 1060.5 505.6Q1061.6 505.3 1063.0 505.3L1063.0 505.3Q1064.4 505.3 1065.6 505.6L1065.6 505.6L1065.6 504.8Q1065.6 504.0 1066.2 503.4Q1066.8 502.9 1067.8 502.9L1067.8 502.9L1070.3 502.9L1070.3 505.9L1066.9 505.9L1066.9 506.1Q1068.0 506.8 1068.7 507.8Q1069.4 508.9 1069.4 510.5L1069.4 510.5Q1069.4 511.7 1068.9 512.7Q1068.5 513.6 1067.6 514.3Q1066.8 514.9 1065.6 515.3Q1064.5 515.6 1063.0 515.6L1063.0 515.6Q1062.4 515.6 1061.8 515.5Q1061.2 515.5 1060.7 515.3L1060.7 515.3Q1060.4 515.5 1060.2 515.8Q1060.0 516.0 1060.0 516.4L1060.0 516.4Q1060.0 516.7 1060.1 516.9Q1060.3 517.1 1060.6 517.2Q1060.9 517.3 1061.3 517.3Q1061.7 517.4 1062.1 517.4L1062.1 517.4L1065.4 517.4Q1066.9 517.4 1068.0 517.7Q1069.1 518.0 1069.8 518.6Q1070.5 519.1 1070.8 519.9Q1071.1 520.6 1071.1 521.5ZM1067.2 521.9L1067.2 521.9Q1067.2 521.3 1066.8 521.0Q1066.3 520.7 1065.0 520.7L1065.0 520.7L1060.1 520.7Q1059.5 521.1 1059.5 521.8L1059.5 521.8Q1059.5 522.5 1060.1 522.9Q1060.7 523.4 1062.1 523.4L1062.1 523.4L1064.5 523.4Q1065.9 523.4 1066.6 523.0Q1067.2 522.6 1067.2 521.9ZM1063.0 513.0L1063.0 513.0Q1064.3 513.0 1064.9 512.4Q1065.4 511.7 1065.4 510.8L1065.4 510.8L1065.4 510.1Q1065.4 509.2 1064.9 508.6Q1064.3 507.9 1063.0 507.9L1063.0 507.9Q1061.8 507.9 1061.2 508.6Q1060.7 509.2 1060.7 510.1L1060.7 510.1L1060.7 510.8Q1060.7 511.7 1061.2 512.4Q1061.8 513.0 1063.0 513.0Z " clip-path="url(#satori_cp-id-1-0-1-1)" mask="url(#satori_om-id-1-0-1-1)"/></svg>