<svg width="1200" height="630" viewBox="0 0 1200 630" xmlns="http://www.w3.org/2000/svg"><mask id="satori_om-id"><rect x="0" y="0" width="1200" height="630" fill="#fff"/></mask><rect x="0" y="0" width="1200" height="630" fill="#fefbfb"/><defs><clipPath id="satori_bc-id-0"><path x="105" y="39" width="1056" height="504" d="M109,39 h1048 a4,4 0 0 1 4,4 v496 a4,4 0 0 1 -4,4 h-1048 a4,4 0 0 1 -4,-4 v-496 a4,4 0 0 1 4,-4"/></clipPath></defs><mask id="satori_om-id-0"><rect x="109" y="43" width="1048" height="496" fill="#fff"/><path width="1056" height="504" fill="none" stroke="#000" stroke-width="8" d="M106.172,40.172 A4,4 0 0 1 109,39 h1048 a4,4 0 0 1 4,4 v496 a4,4 0 0 1 -4,4 h-1048 a4,4 0 0 1 -4,-4 v-496 A4,4 0 0 1 106.172,40.172"/></mask><g opacity="0.9"><path x="105" y="39" width="1056" height="504" fill="#ecebeb" d="M109,39 h1048 a4,4 0 0 1 4,4 v496 a4,4 0 0 1 -4,4 h-1048 a4,4 0 0 1 -4,-4 v-496 a4,4 0 0 1 4,-4"/><path width="1056" height="504" clip-path="url(#satori_bc-id-0)" fill="none" stroke="#000" stroke-width="8" d="M106.172,40.172 A4,4 0 0 1 109,39 h1048 a4,4 0 0 1 4,4 v496 a4,4 0 0 1 -4,4 h-1048 a4,4 0 0 1 -4,-4 v-496 A4,4 0 0 1 106.172,40.172"/></g><defs><clipPath id="satori_bc-id-1"><path x="72" y="63" width="1056" height="504" d="M76,63 h1048 a4,4 0 0 1 4,4 v496 a4,4 0 0 1 -4,4 h-1048 a4,4 0 0 1 -4,-4 v-496 a4,4 0 0 1 4,-4"/></clipPath></defs><mask id="satori_om-id-1"><rect x="76" y="67" width="1048" height="496" fill="#fff"/><path width="1056" height="504" fill="none" stroke="#000" stroke-width="8" d="M73.172,64.172 A4,4 0 0 1 76,63 h1048 a4,4 0 0 1 4,4 v496 a4,4 0 0 1 -4,4 h-1048 a4,4 0 0 1 -4,-4 v-496 A4,4 0 0 1 73.172,64.172"/></mask><path x="72" y="63" width="1056" height="504" fill="#fefbfb" d="M76,63 h1048 a4,4 0 0 1 4,4 v496 a4,4 0 0 1 -4,4 h-1048 a4,4 0 0 1 -4,-4 v-496 a4,4 0 0 1 4,-4"/><path width="1056" height="504" clip-path="url(#satori_bc-id-1)" fill="none" stroke="#000" stroke-width="8" d="M73.172,64.172 A4,4 0 0 1 76,63 h1048 a4,4 0 0 1 4,4 v496 a4,4 0 0 1 -4,4 h-1048 a4,4 0 0 1 -4,-4 v-496 A4,4 0 0 1 73.172,64.172"/><mask id="satori_om-id-1-0"><rect x="128" y="87" width="944" height="446" fill="#fff"/></mask><clipPath id="satori_cp-id-1-0-0"><rect x="128" y="103" width="944" height="187"/></clipPath><mask id="satori_om-id-1-0-0"><rect x="128" y="103" width="944" height="187" fill="#fff"/></mask><path fill="black" d="M144.3 183.0L133.5 183.0L133.5 132.7L152.9 132.7Q156.6 132.7 159.5 133.8Q162.3 134.9 164.3 137.0Q166.3 139.1 167.3 142.1Q168.3 145.0 168.3 148.7L168.3 148.7Q168.3 152.4 167.3 155.3Q166.3 158.3 164.3 160.3Q162.3 162.4 159.5 163.5Q156.6 164.7 152.9 164.7L152.9 164.7L144.3 164.7L144.3 183.0ZM144.3 141.4L144.3 156.0L150.2 156.0Q154.0 156.0 155.5 154.5Q156.9 153.1 156.9 149.8L156.9 149.8L156.9 147.6Q156.9 144.3 155.5 142.8Q154.0 141.4 150.2 141.4L150.2 141.4L144.3 141.4ZM176.5 183.0L176.5 174.7L185.1 174.7L185.1 154.1L176.5 154.1L176.5 145.8L195.8 145.8L195.8 156.3L196.3 156.3Q196.8 154.3 197.7 152.4Q198.6 150.5 200.0 149.0Q201.4 147.5 203.4 146.7Q205.4 145.8 208.1 145.8L208.1 145.8L211.7 145.8L211.7 155.6L203.7 155.6Q199.8 155.6 197.8 157.9Q195.8 160.3 195.8 163.7L195.8 163.7L195.8 174.7L208.0 174.7L208.0 183.0L176.5 183.0ZM237.0 183.8L237.0 183.8Q227.6 183.8 222.8 178.6Q218.0 173.4 218.0 164.5L218.0 164.5Q218.0 160.0 219.3 156.3Q220.5 152.7 222.9 150.2Q225.2 147.6 228.5 146.3Q231.9 144.9 236.1 144.9L236.1 144.9Q240.2 144.9 243.6 146.3Q246.9 147.6 249.2 150.0Q251.5 152.5 252.7 156.0Q254.0 159.5 254.0 163.8L254.0 163.8L254.0 167.0L228.6 167.0L228.6 167.6Q228.6 171.2 230.8 173.4Q233.0 175.6 237.4 175.6L237.4 175.6Q240.7 175.6 243.1 174.3Q245.4 173.1 247.2 171.0L247.2 171.0L252.9 177.3Q250.8 179.9 246.9 181.9Q243.0 183.8 237.0 183.8ZM236.1 152.6L236.1 152.6Q232.7 152.6 230.6 154.7Q228.6 156.8 228.6 160.4L228.6 160.4L228.6 161.0L243.6 161.0L243.6 160.4Q243.6 156.7 241.6 154.7Q239.6 152.6 236.1 152.6ZM285.9 183.0L285.9 176.2L285.4 176.2Q284.0 179.6 281.4 181.7Q278.8 183.8 274.4 183.8L274.4 183.8Q271.3 183.8 268.7 182.7Q266.2 181.5 264.3 179.1Q262.5 176.8 261.5 173.1Q260.4 169.4 260.4 164.4L260.4 164.4Q260.4 159.3 261.5 155.7Q262.5 152.0 264.3 149.6Q266.2 147.2 268.7 146.1Q271.3 144.9 274.4 144.9L274.4 144.9Q276.6 144.9 278.3 145.5Q280.1 146.1 281.4 147.1Q282.7 148.1 283.7 149.5Q284.7 150.9 285.4 152.6L285.4 152.6L285.9 152.6L285.9 129.7L296.6 129.7L296.6 183.0L285.9 183.0ZM279.0 175.5L279.0 175.5Q281.8 175.5 283.8 174.2Q285.9 172.8 285.9 169.8L285.9 169.8L285.9 158.9Q285.9 156.0 283.8 154.6Q281.8 153.2 279.0 153.2L279.0 153.2Q275.4 153.2 273.4 155.4Q271.5 157.6 271.5 161.5L271.5 161.5L271.5 167.3Q271.5 171.1 273.4 173.3Q275.4 175.5 279.0 175.5ZM324.7 141.0L324.7 141.0Q321.1 141.0 319.7 139.6Q318.3 138.1 318.3 136.0L318.3 136.0L318.3 133.9Q318.3 131.8 319.7 130.3Q321.1 128.9 324.7 128.9L324.7 128.9Q328.3 128.9 329.7 130.3Q331.1 131.8 331.1 133.9L331.1 133.9L331.1 136.0Q331.1 138.1 329.7 139.6Q328.3 141.0 324.7 141.0ZM307.6 183.0L307.6 174.7L319.4 174.7L319.4 154.1L307.6 154.1L307.6 145.8L330.0 145.8L330.0 174.7L341.0 174.7L341.0 183.0L307.6 183.0ZM367.1 183.8L367.1 183.8Q362.7 183.8 359.2 182.5Q355.7 181.2 353.3 178.6Q350.9 176.1 349.6 172.5Q348.3 168.9 348.3 164.4L348.3 164.4Q348.3 159.8 349.6 156.2Q350.9 152.6 353.3 150.1Q355.7 147.6 359.2 146.3Q362.7 144.9 367.0 144.9L367.0 144.9Q373.2 144.9 376.9 147.4Q380.6 149.9 382.5 154.0L382.5 154.0L374.3 158.5Q373.3 156.3 371.7 154.9Q370.1 153.4 367.0 153.4L367.0 153.4Q363.4 153.4 361.4 155.6Q359.4 157.7 359.4 161.4L359.4 161.4L359.4 167.4Q359.4 171.1 361.4 173.2Q363.4 175.3 367.2 175.3L367.2 175.3Q370.3 175.3 372.0 173.9Q373.8 172.4 375.0 170.1L375.0 170.1L383.1 174.7Q381.1 178.8 377.2 181.3Q373.4 183.8 367.1 183.8ZM425.4 183.0L411.7 183.0Q405.9 183.0 403.1 179.9Q400.3 176.9 400.3 172.2L400.3 172.2L400.3 154.1L390.2 154.1L390.2 145.8L396.8 145.8Q399.2 145.8 400.2 144.9Q401.2 143.9 401.2 141.4L401.2 141.4L401.2 132.7L411.0 132.7L411.0 145.8L425.4 145.8L425.4 154.1L411.0 154.1L411.0 174.7L425.4 174.7L425.4 183.0ZM454.3 141.0L454.3 141.0Q450.7 141.0 449.3 139.6Q447.9 138.1 447.9 136.0L447.9 136.0L447.9 133.9Q447.9 131.8 449.3 130.3Q450.7 128.9 454.3 128.9L454.3 128.9Q457.9 128.9 459.3 130.3Q460.7 131.8 460.7 133.9L460.7 133.9L460.7 136.0Q460.7 138.1 459.3 139.6Q457.9 141.0 454.3 141.0ZM437.2 183.0L437.2 174.7L449.0 174.7L449.0 154.1L437.2 154.1L437.2 145.8L459.6 145.8L459.6 174.7L470.6 174.7L470.6 183.0L437.2 183.0ZM488.9 183.0L478.3 183.0L478.3 145.8L488.9 145.8L488.9 152.6L489.4 152.6Q490.0 151.0 491.0 149.6Q491.9 148.2 493.2 147.2Q494.6 146.2 496.3 145.5Q498.1 144.9 500.3 144.9L500.3 144.9Q503.0 144.9 505.2 145.8Q507.4 146.7 509.0 148.5Q510.6 150.3 511.5 152.9Q512.4 155.5 512.4 158.9L512.4 158.9L512.4 183.0L501.8 183.0L501.8 160.3Q501.8 153.1 495.5 153.1L495.5 153.1Q494.3 153.1 493.1 153.5Q491.9 153.8 491.0 154.5Q490.0 155.2 489.5 156.2Q488.9 157.2 488.9 158.5L488.9 158.5L488.9 183.0ZM558.8 186.7L558.8 186.7Q558.8 192.6 553.8 195.4Q548.8 198.2 538.2 198.2L538.2 198.2Q532.9 198.2 529.4 197.6Q525.9 197.0 523.9 195.8Q521.8 194.7 521.0 193.1Q520.2 191.5 520.2 189.6L520.2 189.6Q520.2 186.5 522.1 184.9Q523.9 183.2 527.3 182.4L527.3 182.4L527.3 181.9Q524.9 181.2 523.5 179.9Q522.1 178.6 522.1 176.1L522.1 176.1Q522.1 173.4 524.0 172.1Q525.8 170.8 528.8 170.1L528.8 170.1L528.8 169.6Q525.5 168.0 523.7 165.2Q521.8 162.3 521.8 158.2L521.8 158.2Q521.8 154.9 523.0 152.5Q524.1 150.0 526.3 148.3Q528.4 146.7 531.3 145.8Q534.3 144.9 538.0 144.9L538.0 144.9Q541.5 144.9 544.5 145.7L544.5 145.7L544.5 143.7Q544.5 141.6 546.0 140.1Q547.5 138.7 550.2 138.7L550.2 138.7L556.8 138.7L556.8 146.4L547.8 146.4L547.8 147.1Q550.9 148.7 552.5 151.5Q554.2 154.2 554.2 158.2L554.2 158.2Q554.2 161.4 553.1 163.9Q551.9 166.3 549.8 168.0Q547.6 169.7 544.6 170.6Q541.6 171.4 538.0 171.4L538.0 171.4Q536.3 171.4 534.8 171.3Q533.3 171.1 531.9 170.7L531.9 170.7Q531.1 171.1 530.6 171.8Q530.0 172.4 530.0 173.4L530.0 173.4Q530.0 174.3 530.5 174.8Q530.9 175.3 531.7 175.6Q532.4 175.8 533.4 175.9Q534.4 176.0 535.5 176.0L535.5 176.0L544.0 176.0Q548.0 176.0 550.8 176.8Q553.6 177.6 555.4 179.0Q557.2 180.4 558.0 182.4Q558.8 184.3 558.8 186.7ZM548.7 187.5L548.7 187.5Q548.7 186.0 547.5 185.2Q546.4 184.4 543.2 184.4L543.2 184.4L530.4 184.4Q529.0 185.6 529.0 187.4L529.0 187.4Q529.0 189.1 530.4 190.3Q531.9 191.4 535.4 191.4L535.4 191.4L541.7 191.4Q545.4 191.4 547.0 190.4Q548.7 189.4 548.7 187.5ZM538.0 164.7L538.0 164.7Q541.2 164.7 542.7 163.1Q544.2 161.5 544.2 159.0L544.2 159.0L544.2 157.3Q544.2 154.9 542.7 153.3Q541.2 151.7 538.0 151.7L538.0 151.7Q534.8 151.7 533.4 153.3Q531.9 154.9 531.9 157.3L531.9 157.3L531.9 159.0Q531.9 161.5 533.4 163.1Q534.8 164.7 538.0 164.7Z M641.4 183.0L627.7 183.0Q621.9 183.0 619.1 179.9Q616.3 176.9 616.3 172.2L616.3 172.2L616.3 154.1L606.2 154.1L606.2 145.8L612.8 145.8Q615.2 145.8 616.2 144.9Q617.2 143.9 617.2 141.4L617.2 141.4L617.2 132.7L627.0 132.7L627.0 145.8L641.4 145.8L641.4 154.1L627.0 154.1L627.0 174.7L641.4 174.7L641.4 183.0ZM651.1 183.0L651.1 129.7L661.7 129.7L661.7 152.6L662.2 152.6Q662.8 151.0 663.8 149.6Q664.7 148.2 666.0 147.2Q667.4 146.2 669.1 145.5Q670.9 144.9 673.1 144.9L673.1 144.9Q675.8 144.9 678.0 145.8Q680.2 146.7 681.8 148.5Q683.4 150.3 684.3 152.9Q685.2 155.5 685.2 158.9L685.2 158.9L685.2 183.0L674.6 183.0L674.6 160.3Q674.6 153.1 668.3 153.1L668.3 153.1Q667.1 153.1 665.9 153.5Q664.7 153.8 663.8 154.5Q662.8 155.2 662.3 156.2Q661.7 157.2 661.7 158.5L661.7 158.5L661.7 183.0L651.1 183.0ZM712.2 183.8L712.2 183.8Q702.8 183.8 698.0 178.6Q693.2 173.4 693.2 164.5L693.2 164.5Q693.2 160.0 694.5 156.3Q695.7 152.7 698.1 150.2Q700.4 147.6 703.7 146.3Q707.1 144.9 711.3 144.9L711.3 144.9Q715.4 144.9 718.8 146.3Q722.1 147.6 724.4 150.0Q726.7 152.5 727.9 156.0Q729.2 159.5 729.2 163.8L729.2 163.8L729.2 167.0L703.8 167.0L703.8 167.6Q703.8 171.2 706.0 173.4Q708.2 175.6 712.6 175.6L712.6 175.6Q715.9 175.6 718.3 174.3Q720.6 173.1 722.4 171.0L722.4 171.0L728.1 177.3Q726.0 179.9 722.1 181.9Q718.2 183.8 712.2 183.8ZM711.3 152.6L711.3 152.6Q707.9 152.6 705.8 154.7Q703.8 156.8 703.8 160.4L703.8 160.4L703.8 161.0L718.8 161.0L718.8 160.4Q718.8 156.7 716.8 154.7Q714.8 152.6 711.3 152.6Z M167.1 276.6L134.6 276.6L134.6 226.3L145.5 226.3L145.5 267.7L167.1 267.7L167.1 276.6ZM192.8 277.4L192.8 277.4Q188.5 277.4 185.0 276.1Q181.6 274.8 179.2 272.2Q176.7 269.7 175.4 266.1Q174.2 262.5 174.2 258.0L174.2 258.0Q174.2 253.4 175.4 249.8Q176.7 246.2 179.2 243.7Q181.6 241.2 185.0 239.9Q188.5 238.5 192.8 238.5L192.8 238.5Q197.1 238.5 200.6 239.9Q204.0 241.2 206.4 243.7Q208.9 246.2 210.2 249.8Q211.4 253.4 211.4 258.0L211.4 258.0Q211.4 262.5 210.2 266.1Q208.9 269.7 206.4 272.2Q204.0 274.8 200.6 276.1Q197.1 277.4 192.8 277.4ZM192.8 269.5L192.8 269.5Q196.4 269.5 198.4 267.3Q200.4 265.0 200.4 260.9L200.4 260.9L200.4 255.0Q200.4 250.9 198.4 248.7Q196.4 246.5 192.8 246.5L192.8 246.5Q189.2 246.5 187.2 248.7Q185.2 250.9 185.2 255.0L185.2 255.0L185.2 260.9Q185.2 265.0 187.2 267.3Q189.2 269.5 192.8 269.5ZM252.6 276.6L238.9 276.6Q233.1 276.6 230.3 273.5Q227.5 270.5 227.5 265.8L227.5 265.8L227.5 247.7L217.4 247.7L217.4 239.4L224.0 239.4Q226.4 239.4 227.4 238.5Q228.4 237.5 228.4 235.0L228.4 235.0L228.4 226.3L238.2 226.3L238.2 239.4L252.6 239.4L252.6 247.7L238.2 247.7L238.2 268.3L252.6 268.3L252.6 276.6ZM295.8 276.6L282.1 276.6Q276.3 276.6 273.5 273.5Q270.7 270.5 270.7 265.8L270.7 265.8L270.7 247.7L260.6 247.7L260.6 239.4L267.2 239.4Q269.6 239.4 270.6 238.5Q271.6 237.5 271.6 235.0L271.6 235.0L271.6 226.3L281.4 226.3L281.4 239.4L295.8 239.4L295.8 247.7L281.4 247.7L281.4 268.3L295.8 268.3L295.8 276.6ZM323.4 277.4L323.4 277.4Q314.0 277.4 309.2 272.2Q304.4 267.0 304.4 258.1L304.4 258.1Q304.4 253.6 305.7 249.9Q306.9 246.3 309.3 243.8Q311.6 241.2 314.9 239.9Q318.3 238.5 322.5 238.5L322.5 238.5Q326.6 238.5 330.0 239.9Q333.3 241.2 335.6 243.6Q337.9 246.1 339.1 249.6Q340.4 253.1 340.4 257.4L340.4 257.4L340.4 260.6L315.0 260.6L315.0 261.2Q315.0 264.8 317.2 267.0Q319.4 269.2 323.8 269.2L323.8 269.2Q327.1 269.2 329.5 267.9Q331.8 266.7 333.6 264.6L333.6 264.6L339.3 270.9Q337.2 273.5 333.3 275.5Q329.4 277.4 323.4 277.4ZM322.5 246.2L322.5 246.2Q319.1 246.2 317.0 248.3Q315.0 250.4 315.0 254.0L315.0 254.0L315.0 254.6L330.0 254.6L330.0 254.0Q330.0 250.3 328.0 248.3Q326.0 246.2 322.5 246.2ZM349.3 276.6L349.3 268.3L357.9 268.3L357.9 247.7L349.3 247.7L349.3 239.4L368.6 239.4L368.6 249.9L369.1 249.9Q369.6 247.9 370.5 246.0Q371.4 244.1 372.8 242.6Q374.2 241.1 376.2 240.3Q378.2 239.4 380.9 239.4L380.9 239.4L384.5 239.4L384.5 249.2L376.5 249.2Q372.6 249.2 370.6 251.5Q368.6 253.9 368.6 257.3L368.6 257.3L368.6 268.3L380.8 268.3L380.8 276.6L349.3 276.6ZM412.6 255.0L418.2 239.4L429.0 239.4L411.5 282.5Q409.9 286.6 407.1 288.8Q404.4 291.0 399.7 291.0L399.7 291.0L392.3 291.0L392.3 282.7L401.2 282.7L403.5 276.3L388.6 239.4L400.0 239.4L405.4 255.0L408.8 265.8L409.4 265.8L412.6 255.0Z M513.6 267.5L513.6 276.6L477.4 276.6L477.4 266.7L493.3 253.5Q497.4 250.0 499.2 247.4Q501.0 244.8 501.0 241.9L501.0 241.9L501.0 241.2Q501.0 238.0 499.1 236.4Q497.2 234.8 494.0 234.8L494.0 234.8Q490.4 234.8 488.5 236.9Q486.6 239.0 485.8 241.8L485.8 241.8L476.3 238.2Q477.2 235.7 478.7 233.3Q480.2 231.0 482.6 229.2Q484.9 227.5 488.0 226.5Q491.1 225.4 495.1 225.4L495.1 225.4Q499.2 225.4 502.5 226.6Q505.7 227.7 507.9 229.8Q510.2 231.8 511.3 234.5Q512.5 237.3 512.5 240.6L512.5 240.6Q512.5 243.7 511.4 246.3Q510.4 249.0 508.6 251.3Q506.7 253.6 504.2 255.7Q501.8 257.9 498.9 260.1L498.9 260.1L489.4 267.5L513.6 267.5Z " clip-path="url(#satori_cp-id-1-0-0)" mask="url(#satori_om-id-1-0-0)"/><mask id="satori_om-id-1-0-1"><rect x="128" y="489" width="944" height="36" fill="#fff"/></mask><mask id="satori_om-id-1-0-1-0"><rect x="128" y="489" width="219" height="36" fill="#fff"/></mask><path fill="black" d="M130.7 520.3L130.7 499.6L132.9 499.6L132.9 508.2L133.0 508.2Q134.4 505.5 137.5 505.5L137.5 505.5Q140.1 505.5 141.6 507.5Q143.1 509.5 143.1 513.0L143.1 513.0Q143.1 516.6 141.6 518.6Q140.1 520.6 137.5 520.6L137.5 520.6Q134.4 520.6 133.0 517.9L133.0 517.9L132.9 517.9L132.9 520.3L130.7 520.3ZM136.6 518.6L136.6 518.6Q138.6 518.6 139.6 517.4Q140.7 516.2 140.7 514.3L140.7 514.3L140.7 511.8Q140.7 509.9 139.6 508.7Q138.6 507.5 136.6 507.5L136.6 507.5Q135.8 507.5 135.2 507.7Q134.5 507.9 134.0 508.2Q133.5 508.6 133.2 509.2Q132.9 509.7 132.9 510.4L132.9 510.4L132.9 515.7Q132.9 516.4 133.2 516.9Q133.5 517.5 134.0 517.8Q134.5 518.2 135.2 518.4Q135.8 518.6 136.6 518.6ZM155.4 511.9L157.9 505.8L160.1 505.8L152.9 523.4Q152.7 524.1 152.4 524.5Q152.1 525.0 151.7 525.3Q151.2 525.6 150.7 525.7Q150.1 525.9 149.3 525.9L149.3 525.9L147.1 525.9L147.1 524.0L150.5 524.0L152.1 520.0L146.3 505.8L148.6 505.8L151.0 511.9L153.2 517.4L153.3 517.4L155.4 511.9Z "/><mask id="satori_om-id-1-0-1-0-1"><rect x="162" y="489" width="17" height="36" fill="#fff"/></mask><clipPath id="satori_cp-id-1-0-1-0-2"><rect x="178" y="489" width="168" height="36"/></clipPath><mask id="satori_om-id-1-0-1-0-2"><rect x="178" y="489" width="168" height="36" fill="#fff"/></mask><path fill="black" d="M194.1 504.0L188.5 504.0L188.5 520.1L184.3 520.1L184.3 504.0L178.7 504.0L178.7 500.5L194.1 500.5L194.1 504.0ZM204.1 503.8L204.1 503.8Q202.7 503.8 202.2 503.2Q201.6 502.6 201.6 501.8L201.6 501.8L201.6 501.0Q201.6 500.2 202.2 499.6Q202.7 499.1 204.1 499.1L204.1 499.1Q205.5 499.1 206.0 499.6Q206.6 500.2 206.6 501.0L206.6 501.0L206.6 501.8Q206.6 502.6 206.0 503.2Q205.5 503.8 204.1 503.8ZM197.4 520.1L197.4 516.9L202.0 516.9L202.0 508.9L197.4 508.9L197.4 505.6L206.2 505.6L206.2 516.9L210.4 516.9L210.4 520.1L197.4 520.1ZM215.8 520.1L212.4 520.1L212.4 505.6L215.8 505.6L215.8 507.8L216.0 507.8Q216.3 506.8 216.9 506.0Q217.6 505.3 218.7 505.3L218.7 505.3Q220.8 505.3 221.3 507.8L221.3 507.8L221.5 507.8Q221.6 507.3 221.9 506.8Q222.1 506.4 222.5 506.0Q222.9 505.7 223.4 505.5Q223.9 505.3 224.5 505.3L224.5 505.3Q227.6 505.3 227.6 509.8L227.6 509.8L227.6 520.1L224.2 520.1L224.2 510.2Q224.2 509.2 223.9 508.8Q223.5 508.4 223.0 508.4L223.0 508.4Q222.4 508.4 222.1 508.7Q221.7 509.1 221.7 509.8L221.7 509.8L221.7 520.1L218.3 520.1L218.3 510.2Q218.3 509.2 218.0 508.8Q217.7 508.4 217.1 508.4L217.1 508.4Q216.6 508.4 216.2 508.7Q215.8 509.1 215.8 509.8L215.8 509.8L215.8 520.1Z M252.0 520.1L246.7 520.1L245.5 500.5L249.1 500.5L249.7 512.3L249.8 515.9L250.1 515.9L251.8 504.8L255.6 504.8L257.2 515.9L257.5 515.9L257.7 512.4L258.2 500.5L261.7 500.5L260.5 520.1L255.2 520.1L253.7 509.3L253.5 509.3L252.0 520.1ZM278.0 520.1L275.6 520.1Q274.3 520.1 273.6 519.4Q272.8 518.8 272.6 517.5L272.6 517.5L272.5 517.5Q272.1 519.0 270.9 519.7Q269.8 520.4 268.1 520.4L268.1 520.4Q266.0 520.4 264.7 519.3Q263.5 518.2 263.5 516.1L263.5 516.1Q263.5 513.8 265.1 512.8Q266.8 511.7 270.0 511.7L270.0 511.7L272.3 511.7L272.3 510.9Q272.3 509.6 271.7 509.0Q271.1 508.3 269.6 508.3L269.6 508.3Q268.3 508.3 267.5 508.8Q266.7 509.3 266.1 510.2L266.1 510.2L263.8 508.1Q264.6 506.9 266.1 506.1Q267.7 505.3 270.1 505.3L270.1 505.3Q273.1 505.3 274.8 506.7Q276.4 508.0 276.4 510.8L276.4 510.8L276.4 517.1L278.0 517.1L278.0 520.1ZM269.7 517.7L269.7 517.7Q270.8 517.7 271.5 517.2Q272.3 516.6 272.3 515.6L272.3 515.6L272.3 513.9L270.1 513.9Q267.5 513.9 267.5 515.6L267.5 515.6L267.5 516.2Q267.5 516.9 268.1 517.3Q268.7 517.7 269.7 517.7ZM293.7 520.1L288.3 520.1Q286.1 520.1 285.0 518.9Q283.9 517.7 283.9 515.9L283.9 515.9L283.9 508.9L280.0 508.9L280.0 505.6L282.5 505.6Q283.4 505.6 283.8 505.3Q284.2 504.9 284.2 503.9L284.2 503.9L284.2 500.5L288.0 500.5L288.0 505.6L293.7 505.6L293.7 508.9L288.0 508.9L288.0 516.9L293.7 516.9L293.7 520.1ZM303.8 520.4L303.8 520.4Q301.4 520.4 299.6 519.7Q297.9 519.0 297.0 517.7L297.0 517.7L299.3 515.6Q300.1 516.5 301.3 517.0Q302.4 517.5 303.9 517.5L303.9 517.5Q305.1 517.5 305.8 517.1Q306.5 516.8 306.5 516.0L306.5 516.0Q306.5 515.4 306.0 515.1Q305.5 514.9 304.7 514.7L304.7 514.7L302.4 514.4Q301.4 514.2 300.6 513.9Q299.7 513.7 299.1 513.1Q298.5 512.6 298.1 511.9Q297.8 511.2 297.8 510.2L297.8 510.2Q297.8 507.9 299.5 506.6Q301.2 505.3 304.4 505.3L304.4 505.3Q306.5 505.3 308.0 505.9Q309.5 506.5 310.4 507.5L310.4 507.5L308.3 509.9Q307.7 509.2 306.7 508.7Q305.7 508.2 304.2 508.2L304.2 508.2Q301.8 508.2 301.8 509.7L301.8 509.7Q301.8 510.3 302.3 510.6Q302.8 510.8 303.6 510.9L303.6 510.9L305.9 511.3Q306.9 511.4 307.7 511.7Q308.6 512.0 309.2 512.5Q309.8 513.0 310.2 513.8Q310.6 514.5 310.6 515.5L310.6 515.5Q310.6 517.8 308.8 519.1Q307.1 520.4 303.8 520.4ZM320.8 520.4L320.8 520.4Q319.1 520.4 317.8 519.9Q316.4 519.4 315.5 518.4Q314.6 517.4 314.1 516.0Q313.5 514.6 313.5 512.9L313.5 512.9Q313.5 511.1 314.1 509.7Q314.6 508.3 315.5 507.3Q316.4 506.3 317.8 505.8Q319.1 505.3 320.8 505.3L320.8 505.3Q322.5 505.3 323.8 505.8Q325.2 506.3 326.1 507.3Q327.0 508.3 327.5 509.7Q328.1 511.1 328.1 512.9L328.1 512.9Q328.1 514.6 327.5 516.0Q327.0 517.4 326.1 518.4Q325.2 519.4 323.8 519.9Q322.5 520.4 320.8 520.4ZM320.8 517.3L320.8 517.3Q322.2 517.3 323.0 516.5Q323.8 515.6 323.8 514.0L323.8 514.0L323.8 511.7Q323.8 510.1 323.0 509.3Q322.2 508.4 320.8 508.4L320.8 508.4Q319.4 508.4 318.6 509.3Q317.8 510.1 317.8 511.7L317.8 511.7L317.8 514.0Q317.8 515.6 318.6 516.5Q319.4 517.3 320.8 517.3ZM335.2 520.1L331.0 520.1L331.0 505.6L335.2 505.6L335.2 508.3L335.3 508.3Q335.6 507.7 335.9 507.1Q336.3 506.6 336.8 506.2Q337.3 505.8 338.0 505.5Q338.7 505.3 339.6 505.3L339.6 505.3Q340.6 505.3 341.5 505.7Q342.4 506.0 343.0 506.7Q343.6 507.4 343.9 508.4Q344.3 509.4 344.3 510.7L344.3 510.7L344.3 520.1L340.1 520.1L340.1 511.3Q340.1 508.5 337.7 508.5L337.7 508.5Q337.2 508.5 336.8 508.6Q336.3 508.8 335.9 509.0Q335.6 509.3 335.4 509.7Q335.2 510.1 335.2 510.6L335.2 510.6L335.2 520.1Z " clip-path="url(#satori_cp-id-1-0-1-0-2)" mask="url(#satori_om-id-1-0-1-0-2)"/><clipPath id="satori_cp-id-1-0-1-1"><rect x="786" y="489" width="286" height="36"/></clipPath><mask id="satori_om-id-1-0-1-1"><rect x="786" y="489" width="286" height="36" fill="#fff"/></mask><path fill="black" d="M802.1 504.0L796.5 504.0L796.5 520.1L792.3 520.1L792.3 504.0L786.7 504.0L786.7 500.5L802.1 500.5L802.1 504.0ZM812.1 503.8L812.1 503.8Q810.7 503.8 810.1 503.2Q809.6 502.6 809.6 501.8L809.6 501.8L809.6 501.0Q809.6 500.2 810.1 499.6Q810.7 499.1 812.1 499.1L812.1 499.1Q813.5 499.1 814.0 499.6Q814.6 500.2 814.6 501.0L814.6 501.0L814.6 501.8Q814.6 502.6 814.0 503.2Q813.5 503.8 812.1 503.8ZM805.4 520.1L805.4 516.9L810.0 516.9L810.0 508.9L805.4 508.9L805.4 505.6L814.2 505.6L814.2 516.9L818.4 516.9L818.4 520.1L805.4 520.1ZM823.8 520.1L820.4 520.1L820.4 505.6L823.8 505.6L823.8 507.8L824.0 507.8Q824.3 506.8 824.9 506.0Q825.6 505.3 826.7 505.3L826.7 505.3Q828.8 505.3 829.3 507.8L829.3 507.8L829.5 507.8Q829.6 507.3 829.9 506.8Q830.1 506.4 830.5 506.0Q830.9 505.7 831.4 505.5Q831.9 505.3 832.5 505.3L832.5 505.3Q835.6 505.3 835.6 509.8L835.6 509.8L835.6 520.1L832.2 520.1L832.2 510.2Q832.2 509.2 831.9 508.8Q831.5 508.4 831.0 508.4L831.0 508.4Q830.4 508.4 830.1 508.7Q829.7 509.1 829.7 509.8L829.7 509.8L829.7 520.1L826.3 520.1L826.3 510.2Q826.3 509.2 826.0 508.8Q825.7 508.4 825.1 508.4L825.1 508.4Q824.6 508.4 824.2 508.7Q823.8 509.1 823.8 509.8L823.8 509.8L823.8 520.1Z M860.0 520.1L854.7 520.1L853.5 500.5L857.1 500.5L857.7 512.3L857.8 515.9L858.1 515.9L859.8 504.8L863.6 504.8L865.2 515.9L865.5 515.9L865.7 512.4L866.2 500.5L869.7 500.5L868.5 520.1L863.2 520.1L861.7 509.3L861.5 509.3L860.0 520.1ZM886.0 520.1L883.6 520.1Q882.3 520.1 881.6 519.4Q880.8 518.8 880.6 517.5L880.6 517.5L880.5 517.5Q880.1 519.0 878.9 519.7Q877.8 520.4 876.1 520.4L876.1 520.4Q874.0 520.4 872.7 519.3Q871.5 518.2 871.5 516.1L871.5 516.1Q871.5 513.8 873.1 512.8Q874.8 511.7 878.0 511.7L878.0 511.7L880.3 511.7L880.3 510.9Q880.3 509.6 879.7 509.0Q879.1 508.3 877.6 508.3L877.6 508.3Q876.3 508.3 875.5 508.8Q874.7 509.3 874.1 510.2L874.1 510.2L871.8 508.1Q872.6 506.9 874.1 506.1Q875.7 505.3 878.1 505.3L878.1 505.3Q881.1 505.3 882.8 506.7Q884.4 508.0 884.4 510.8L884.4 510.8L884.4 517.1L886.0 517.1L886.0 520.1ZM877.7 517.7L877.7 517.7Q878.8 517.7 879.5 517.2Q880.3 516.6 880.3 515.6L880.3 515.6L880.3 513.9L878.1 513.9Q875.5 513.9 875.5 515.6L875.5 515.6L875.5 516.2Q875.5 516.9 876.1 517.3Q876.7 517.7 877.7 517.7ZM901.7 520.1L896.3 520.1Q894.1 520.1 893.0 518.9Q891.9 517.7 891.9 515.9L891.9 515.9L891.9 508.9L888.0 508.9L888.0 505.6L890.5 505.6Q891.4 505.6 891.8 505.3Q892.2 504.9 892.2 503.9L892.2 503.9L892.2 500.5L896.0 500.5L896.0 505.6L901.7 505.6L901.7 508.9L896.0 508.9L896.0 516.9L901.7 516.9L901.7 520.1ZM911.8 520.4L911.8 520.4Q909.4 520.4 907.6 519.7Q905.9 519.0 905.0 517.7L905.0 517.7L907.3 515.6Q908.1 516.5 909.3 517.0Q910.4 517.5 911.9 517.5L911.9 517.5Q913.1 517.5 913.8 517.1Q914.5 516.8 914.5 516.0L914.5 516.0Q914.5 515.4 914.0 515.1Q913.5 514.9 912.7 514.7L912.7 514.7L910.4 514.4Q909.4 514.2 908.6 513.9Q907.7 513.7 907.1 513.1Q906.5 512.6 906.1 511.9Q905.8 511.2 905.8 510.2L905.8 510.2Q905.8 507.9 907.5 506.6Q909.2 505.3 912.4 505.3L912.4 505.3Q914.5 505.3 916.0 505.9Q917.5 506.5 918.4 507.5L918.4 507.5L916.3 509.9Q915.7 509.2 914.7 508.7Q913.7 508.2 912.2 508.2L912.2 508.2Q909.8 508.2 909.8 509.7L909.8 509.7Q909.8 510.3 910.3 510.6Q910.8 510.8 911.6 510.9L911.6 510.9L913.9 511.3Q914.9 511.4 915.7 511.7Q916.6 512.0 917.2 512.5Q917.8 513.0 918.2 513.8Q918.6 514.5 918.6 515.5L918.6 515.5Q918.6 517.8 916.8 519.1Q915.1 520.4 911.8 520.4ZM928.8 520.4L928.8 520.4Q927.1 520.4 925.8 519.9Q924.4 519.4 923.5 518.4Q922.6 517.4 922.1 516.0Q921.5 514.6 921.5 512.9L921.5 512.9Q921.5 511.1 922.1 509.7Q922.6 508.3 923.5 507.3Q924.4 506.3 925.8 505.8Q927.1 505.3 928.8 505.3L928.8 505.3Q930.5 505.3 931.8 505.8Q933.2 506.3 934.1 507.3Q935.0 508.3 935.5 509.7Q936.1 511.1 936.1 512.9L936.1 512.9Q936.1 514.6 935.5 516.0Q935.0 517.4 934.1 518.4Q933.2 519.4 931.8 519.9Q930.5 520.4 928.8 520.4ZM928.8 517.3L928.8 517.3Q930.2 517.3 931.0 516.5Q931.8 515.6 931.8 514.0L931.8 514.0L931.8 511.7Q931.8 510.1 931.0 509.3Q930.2 508.4 928.8 508.4L928.8 508.4Q927.4 508.4 926.6 509.3Q925.8 510.1 925.8 511.7L925.8 511.7L925.8 514.0Q925.8 515.6 926.6 516.5Q927.4 517.3 928.8 517.3ZM943.2 520.1L939.0 520.1L939.0 505.6L943.2 505.6L943.2 508.3L943.3 508.3Q943.6 507.7 943.9 507.1Q944.3 506.6 944.8 506.2Q945.3 505.8 946.0 505.5Q946.7 505.3 947.6 505.3L947.6 505.3Q948.6 505.3 949.5 505.7Q950.4 506.0 951.0 506.7Q951.6 507.4 951.9 508.4Q952.3 509.4 952.3 510.7L952.3 510.7L952.3 520.1L948.1 520.1L948.1 511.3Q948.1 508.5 945.7 508.5L945.7 508.5Q945.2 508.5 944.8 508.6Q944.3 508.8 943.9 509.0Q943.6 509.3 943.4 509.7Q943.2 510.1 943.2 510.6L943.2 510.6L943.2 520.1ZM964.2 508.5L960.6 508.5L960.6 499.4L964.2 499.4L964.2 508.5ZM979.0 520.4L979.0 520.4Q976.6 520.4 974.8 519.7Q973.1 519.0 972.2 517.7L972.2 517.7L974.5 515.6Q975.3 516.5 976.5 517.0Q977.6 517.5 979.1 517.5L979.1 517.5Q980.3 517.5 981.0 517.1Q981.7 516.8 981.7 516.0L981.7 516.0Q981.7 515.4 981.2 515.1Q980.7 514.9 979.9 514.7L979.9 514.7L977.6 514.4Q976.6 514.2 975.8 513.9Q974.9 513.7 974.3 513.1Q973.7 512.6 973.3 511.9Q973.0 511.2 973.0 510.2L973.0 510.2Q973.0 507.9 974.7 506.6Q976.4 505.3 979.6 505.3L979.6 505.3Q981.7 505.3 983.2 505.9Q984.7 506.5 985.6 507.5L985.6 507.5L983.5 509.9Q982.9 509.2 981.9 508.7Q980.9 508.2 979.4 508.2L979.4 508.2Q977.0 508.2 977.0 509.7L977.0 509.7Q977.0 510.3 977.5 510.6Q978.0 510.8 978.8 510.9L978.8 510.9L981.1 511.3Q982.1 511.4 982.9 511.7Q983.8 512.0 984.4 512.5Q985.0 513.0 985.4 513.8Q985.8 514.5 985.8 515.5L985.8 515.5Q985.8 517.8 984.0 519.1Q982.3 520.4 979.0 520.4Z M1006.6 520.1L1006.6 500.5L1013.4 500.5Q1016.3 500.5 1017.8 501.9Q1019.4 503.3 1019.4 505.8L1019.4 505.8Q1019.4 507.4 1018.5 508.4Q1017.7 509.4 1016.2 509.9L1016.2 509.9L1016.2 510.0Q1018.0 510.5 1019.0 511.6Q1020.0 512.7 1020.0 514.7L1020.0 514.7Q1020.0 517.2 1018.4 518.6Q1016.9 520.1 1014.1 520.1L1014.1 520.1L1006.6 520.1ZM1010.6 517.2L1012.8 517.2Q1014.3 517.2 1015.0 516.6Q1015.7 516.1 1015.7 514.8L1015.7 514.8L1015.7 514.0Q1015.7 512.6 1015.0 512.1Q1014.3 511.6 1012.8 511.6L1012.8 511.6L1010.6 511.6L1010.6 517.2ZM1010.6 508.8L1012.2 508.8Q1013.7 508.8 1014.4 508.3Q1015.1 507.9 1015.1 506.6L1015.1 506.6L1015.1 505.7Q1015.1 504.4 1014.4 504.0Q1013.7 503.5 1012.2 503.5L1012.2 503.5L1010.6 503.5L1010.6 508.8ZM1023.1 520.1L1023.1 516.9L1027.5 516.9L1027.5 502.6L1023.1 502.6L1023.1 499.4L1031.7 499.4L1031.7 516.9L1036.1 516.9L1036.1 520.1L1023.1 520.1ZM1046.4 520.4L1046.4 520.4Q1044.7 520.4 1043.4 519.9Q1042.0 519.4 1041.1 518.4Q1040.2 517.4 1039.7 516.0Q1039.1 514.6 1039.1 512.9L1039.1 512.9Q1039.1 511.1 1039.7 509.7Q1040.2 508.3 1041.1 507.3Q1042.0 506.3 1043.4 505.8Q1044.7 505.3 1046.4 505.3L1046.4 505.3Q1048.1 505.3 1049.4 505.8Q1050.8 506.3 1051.7 507.3Q1052.6 508.3 1053.1 509.7Q1053.7 511.1 1053.7 512.9L1053.7 512.9Q1053.7 514.6 1053.1 516.0Q1052.6 517.4 1051.7 518.4Q1050.8 519.4 1049.4 519.9Q1048.1 520.4 1046.4 520.4ZM1046.4 517.3L1046.4 517.3Q1047.8 517.3 1048.6 516.5Q1049.4 515.6 1049.4 514.0L1049.4 514.0L1049.4 511.7Q1049.4 510.1 1048.6 509.3Q1047.8 508.4 1046.4 508.4L1046.4 508.4Q1045 508.4 1044.2 509.3Q1043.4 510.1 1043.4 511.7L1043.4 511.7L1043.4 514.0Q1043.4 515.6 1044.2 516.5Q1045 517.3 1046.4 517.3ZM1071.1 521.5L1071.1 521.5Q1071.1 523.8 1069.2 524.9Q1067.3 526.0 1063.1 526.0L1063.1 526.0Q1061.0 526.0 1059.7 525.8Q1058.4 525.6 1057.6 525.1Q1056.8 524.7 1056.4 524.0Q1056.1 523.4 1056.1 522.7L1056.1 522.7Q1056.1 521.5 1056.8 520.8Q1057.6 520.2 1058.9 519.9L1058.9 519.9L1058.9 519.7Q1058.0 519.4 1057.4 518.9Q1056.9 518.4 1056.9 517.4L1056.9 517.4Q1056.9 516.4 1057.6 515.9Q1058.3 515.4 1059.5 515.1L1059.5 515.1L1059.5 514.9Q1058.2 514.3 1057.5 513.2Q1056.8 512.1 1056.8 510.5L1056.8 510.5Q1056.8 509.2 1057.2 508.2Q1057.7 507.3 1058.5 506.6Q1059.3 506.0 1060.5 505.6Q1061.6 505.3 1063.0 505.3L1063.0 505.3Q1064.4 505.3 1065.6 505.6L1065.6 505.6L1065.6 504.8Q1065.6 504.0 1066.2 503.4Q1066.8 502.9 1067.8 502.9L1067.8 502.9L1070.3 502.9L1070.3 505.9L1066.9 505.9L1066.9 506.1Q1068.0 506.8 1068.7 507.8Q1069.4 508.9 1069.4 510.5L1069.4 510.5Q1069.4 511.7 1068.9 512.7Q1068.5 513.6 1067.6 514.3Q1066.8 514.9 1065.6 515.3Q1064.5 515.6 1063.0 515.6L1063.0 515.6Q1062.4 515.6 1061.8 515.5Q1061.2 515.5 1060.7 515.3L1060.7 515.3Q1060.4 515.5 1060.2 515.8Q1060.0 516.0 1060.0 516.4L1060.0 516.4Q1060.0 516.7 1060.1 516.9Q1060.3 517.1 1060.6 517.2Q1060.9 517.3 1061.3 517.3Q1061.7 517.4 1062.1 517.4L1062.1 517.4L1065.4 517.4Q1066.9 517.4 1068.0 517.7Q1069.1 518.0 1069.8 518.6Q1070.5 519.1 1070.8 519.9Q1071.1 520.6 1071.1 521.5ZM1067.2 521.9L1067.2 521.9Q1067.2 521.3 1066.8 521.0Q1066.3 520.7 1065.0 520.7L1065.0 520.7L1060.1 520.7Q1059.5 521.1 1059.5 521.8L1059.5 521.8Q1059.5 522.5 1060.1 522.9Q1060.7 523.4 1062.1 523.4L1062.1 523.4L1064.5 523.4Q1065.9 523.4 1066.6 523.0Q1067.2 522.6 1067.2 521.9ZM1063.0 513.0L1063.0 513.0Q1064.3 513.0 1064.9 512.4Q1065.4 511.7 1065.4 510.8L1065.4 510.8L1065.4 510.1Q1065.4 509.2 1064.9 508.6Q1064.3 507.9 1063.0 507.9L1063.0 507.9Q1061.8 507.9 1061.2 508.6Q1060.7 509.2 1060.7 510.1L1060.7 510.1L1060.7 510.8Q1060.7 511.7 1061.2 512.4Q1061.8 513.0 1063.0 513.0Z " clip-path="url(#satori_cp-id-1-0-1-1)" mask="url(#satori_om-id-1-0-1-1)"/></svg>