<svg width="1200" height="630" viewBox="0 0 1200 630" xmlns="http://www.w3.org/2000/svg"><mask id="satori_om-id"><rect x="0" y="0" width="1200" height="630" fill="#fff"/></mask><rect x="0" y="0" width="1200" height="630" fill="#fefbfb"/><defs><clipPath id="satori_bc-id-0"><path x="105" y="39" width="1056" height="504" d="M109,39 h1048 a4,4 0 0 1 4,4 v496 a4,4 0 0 1 -4,4 h-1048 a4,4 0 0 1 -4,-4 v-496 a4,4 0 0 1 4,-4"/></clipPath></defs><mask id="satori_om-id-0"><rect x="109" y="43" width="1048" height="496" fill="#fff"/><path width="1056" height="504" fill="none" stroke="#000" stroke-width="8" d="M106.172,40.172 A4,4 0 0 1 109,39 h1048 a4,4 0 0 1 4,4 v496 a4,4 0 0 1 -4,4 h-1048 a4,4 0 0 1 -4,-4 v-496 A4,4 0 0 1 106.172,40.172"/></mask><g opacity="0.9"><path x="105" y="39" width="1056" height="504" fill="#ecebeb" d="M109,39 h1048 a4,4 0 0 1 4,4 v496 a4,4 0 0 1 -4,4 h-1048 a4,4 0 0 1 -4,-4 v-496 a4,4 0 0 1 4,-4"/><path width="1056" height="504" clip-path="url(#satori_bc-id-0)" fill="none" stroke="#000" stroke-width="8" d="M106.172,40.172 A4,4 0 0 1 109,39 h1048 a4,4 0 0 1 4,4 v496 a4,4 0 0 1 -4,4 h-1048 a4,4 0 0 1 -4,-4 v-496 A4,4 0 0 1 106.172,40.172"/></g><defs><clipPath id="satori_bc-id-1"><path x="72" y="63" width="1056" height="504" d="M76,63 h1048 a4,4 0 0 1 4,4 v496 a4,4 0 0 1 -4,4 h-1048 a4,4 0 0 1 -4,-4 v-496 a4,4 0 0 1 4,-4"/></clipPath></defs><mask id="satori_om-id-1"><rect x="76" y="67" width="1048" height="496" fill="#fff"/><path width="1056" height="504" fill="none" stroke="#000" stroke-width="8" d="M73.172,64.172 A4,4 0 0 1 76,63 h1048 a4,4 0 0 1 4,4 v496 a4,4 0 0 1 -4,4 h-1048 a4,4 0 0 1 -4,-4 v-496 A4,4 0 0 1 73.172,64.172"/></mask><path x="72" y="63" width="1056" height="504" fill="#fefbfb" d="M76,63 h1048 a4,4 0 0 1 4,4 v496 a4,4 0 0 1 -4,4 h-1048 a4,4 0 0 1 -4,-4 v-496 a4,4 0 0 1 4,-4"/><path width="1056" height="504" clip-path="url(#satori_bc-id-1)" fill="none" stroke="#000" stroke-width="8" d="M73.172,64.172 A4,4 0 0 1 76,63 h1048 a4,4 0 0 1 4,4 v496 a4,4 0 0 1 -4,4 h-1048 a4,4 0 0 1 -4,-4 v-496 A4,4 0 0 1 73.172,64.172"/><mask id="satori_om-id-1-0"><rect x="128" y="87" width="944" height="446" fill="#fff"/></mask><clipPath id="satori_cp-id-1-0-0"><rect x="128" y="103" width="944" height="187"/></clipPath><mask id="satori_om-id-1-0-0"><rect x="128" y="103" width="944" height="187" fill="#fff"/></mask><path fill="black" d="M132.0 132.7L142.8 132.7L142.8 164.5Q142.8 166.9 142.9 168.9Q143.1 170.9 143.8 172.2Q144.5 173.6 145.9 174.3Q147.2 175.1 149.6 175.1L149.6 175.1Q152.0 175.1 153.3 174.3Q154.7 173.6 155.4 172.2Q156.1 170.9 156.3 168.9Q156.4 166.9 156.4 164.5L156.4 164.5L156.4 132.7L167.2 132.7L167.2 163.1Q167.2 168.3 166.6 172.2Q165.9 176.0 163.9 178.6Q162.0 181.2 158.5 182.5Q155.1 183.8 149.6 183.8L149.6 183.8Q144.1 183.8 140.7 182.5Q137.2 181.2 135.3 178.6Q133.3 176.0 132.6 172.2Q132.0 168.3 132.0 163.1L132.0 163.1L132.0 132.7ZM175.4 197.4L175.4 145.8L186.1 145.8L186.1 152.6L186.6 152.6Q188.0 149.3 190.6 147.1Q193.2 144.9 197.6 144.9L197.6 144.9Q200.7 144.9 203.3 146.1Q205.8 147.2 207.7 149.6Q209.5 152.0 210.5 155.7Q211.6 159.3 211.6 164.4L211.6 164.4Q211.6 169.4 210.5 173.1Q209.5 176.8 207.7 179.1Q205.8 181.5 203.3 182.7Q200.7 183.8 197.6 183.8L197.6 183.8Q193.2 183.8 190.6 181.7Q188.0 179.6 186.6 176.2L186.6 176.2L186.1 176.2L186.1 197.4L175.4 197.4ZM193.0 175.5L193.0 175.5Q196.6 175.5 198.6 173.3Q200.5 171.1 200.5 167.3L200.5 167.3L200.5 161.5Q200.5 157.6 198.6 155.4Q196.6 153.2 193.0 153.2L193.0 153.2Q190.2 153.2 188.2 154.6Q186.1 156.0 186.1 158.9L186.1 158.9L186.1 169.8Q186.1 172.8 188.2 174.2Q190.2 175.5 193.0 175.5ZM256.4 186.7L256.4 186.7Q256.4 192.6 251.4 195.4Q246.4 198.2 235.8 198.2L235.8 198.2Q230.5 198.2 227.0 197.6Q223.5 197.0 221.5 195.8Q219.4 194.7 218.6 193.1Q217.8 191.5 217.8 189.6L217.8 189.6Q217.8 186.5 219.7 184.9Q221.5 183.2 224.9 182.4L224.9 182.4L224.9 181.9Q222.5 181.2 221.1 179.9Q219.7 178.6 219.7 176.1L219.7 176.1Q219.7 173.4 221.6 172.1Q223.4 170.8 226.4 170.1L226.4 170.1L226.4 169.6Q223.1 168.0 221.3 165.2Q219.4 162.3 219.4 158.2L219.4 158.2Q219.4 154.9 220.6 152.5Q221.7 150.0 223.9 148.3Q226.0 146.7 228.9 145.8Q231.9 144.9 235.6 144.9L235.6 144.9Q239.1 144.9 242.1 145.7L242.1 145.7L242.1 143.7Q242.1 141.6 243.6 140.1Q245.1 138.7 247.8 138.7L247.8 138.7L254.4 138.7L254.4 146.4L245.4 146.4L245.4 147.1Q248.5 148.7 250.1 151.5Q251.8 154.2 251.8 158.2L251.8 158.2Q251.8 161.4 250.7 163.9Q249.5 166.3 247.4 168.0Q245.2 169.7 242.2 170.6Q239.2 171.4 235.6 171.4L235.6 171.4Q233.9 171.4 232.4 171.3Q230.9 171.1 229.5 170.7L229.5 170.7Q228.7 171.1 228.2 171.8Q227.6 172.4 227.6 173.4L227.6 173.4Q227.6 174.3 228.1 174.8Q228.5 175.3 229.3 175.6Q230.0 175.8 231.0 175.9Q232.0 176.0 233.1 176.0L233.1 176.0L241.6 176.0Q245.6 176.0 248.4 176.8Q251.2 177.6 253.0 179.0Q254.8 180.4 255.6 182.4Q256.4 184.3 256.4 186.7ZM246.3 187.5L246.3 187.5Q246.3 186.0 245.1 185.2Q244.0 184.4 240.8 184.4L240.8 184.4L228.0 184.4Q226.6 185.6 226.6 187.4L226.6 187.4Q226.6 189.1 228.0 190.3Q229.5 191.4 233.0 191.4L233.0 191.4L239.3 191.4Q243.0 191.4 244.6 190.4Q246.3 189.4 246.3 187.5ZM235.6 164.7L235.6 164.7Q238.8 164.7 240.3 163.1Q241.8 161.5 241.8 159.0L241.8 159.0L241.8 157.3Q241.8 154.9 240.3 153.3Q238.8 151.7 235.6 151.7L235.6 151.7Q232.4 151.7 231.0 153.3Q229.5 154.9 229.5 157.3L229.5 157.3L229.5 159.0Q229.5 161.5 231.0 163.1Q232.4 164.7 235.6 164.7ZM262.9 183.0L262.9 174.7L271.5 174.7L271.5 154.1L262.9 154.1L262.9 145.8L282.2 145.8L282.2 156.3L282.7 156.3Q283.2 154.3 284.1 152.4Q285.0 150.5 286.4 149.0Q287.8 147.5 289.8 146.7Q291.8 145.8 294.5 145.8L294.5 145.8L298.1 145.8L298.1 155.6L290.1 155.6Q286.2 155.6 284.2 157.9Q282.2 160.3 282.2 163.7L282.2 163.7L282.2 174.7L294.4 174.7L294.4 183.0L262.9 183.0ZM342.0 183.0L335.9 183.0Q332.6 183.0 330.5 181.3Q328.5 179.6 328.2 176.4L328.2 176.4L327.8 176.4Q326.8 180.1 323.8 181.9Q320.8 183.8 316.5 183.8L316.5 183.8Q311.1 183.8 307.8 180.9Q304.5 178.0 304.5 172.7L304.5 172.7Q304.5 166.9 308.8 164.1Q313.0 161.3 321.2 161.3L321.2 161.3L327.2 161.3L327.2 159.4Q327.2 156.1 325.7 154.4Q324.1 152.7 320.5 152.7L320.5 152.7Q317.1 152.7 315.0 154.0Q312.9 155.3 311.4 157.4L311.4 157.4L305.6 152.2Q307.4 149.0 311.4 147.0Q315.4 144.9 321.7 144.9L321.7 144.9Q329.3 144.9 333.6 148.4Q337.9 151.9 337.9 159.0L337.9 159.0L337.9 175.2L342.0 175.2L342.0 183.0ZM320.5 176.8L320.5 176.8Q323.3 176.8 325.3 175.5Q327.2 174.1 327.2 171.5L327.2 171.5L327.2 167.0L321.5 167.0Q315.0 167.0 315.0 171.4L315.0 171.4L315.0 172.9Q315.0 174.8 316.5 175.8Q318.0 176.8 320.5 176.8ZM372.3 183.0L372.3 176.2L371.8 176.2Q370.4 179.6 367.8 181.7Q365.2 183.8 360.8 183.8L360.8 183.8Q357.7 183.8 355.1 182.7Q352.6 181.5 350.7 179.1Q348.9 176.8 347.9 173.1Q346.8 169.4 346.8 164.4L346.8 164.4Q346.8 159.3 347.9 155.7Q348.9 152.0 350.7 149.6Q352.6 147.2 355.1 146.1Q357.7 144.9 360.8 144.9L360.8 144.9Q363.0 144.9 364.7 145.5Q366.5 146.1 367.8 147.1Q369.1 148.1 370.1 149.5Q371.1 150.9 371.8 152.6L371.8 152.6L372.3 152.6L372.3 129.7L383.0 129.7L383.0 183.0L372.3 183.0ZM365.4 175.5L365.4 175.5Q368.2 175.5 370.2 174.2Q372.3 172.8 372.3 169.8L372.3 169.8L372.3 158.9Q372.3 156.0 370.2 154.6Q368.2 153.2 365.4 153.2L365.4 153.2Q361.8 153.2 359.8 155.4Q357.9 157.6 357.9 161.5L357.9 161.5L357.9 167.3Q357.9 171.1 359.8 173.3Q361.8 175.5 365.4 175.5ZM411.1 141.0L411.1 141.0Q407.5 141.0 406.1 139.6Q404.7 138.1 404.7 136.0L404.7 136.0L404.7 133.9Q404.7 131.8 406.1 130.3Q407.5 128.9 411.1 128.9L411.1 128.9Q414.7 128.9 416.1 130.3Q417.5 131.8 417.5 133.9L417.5 133.9L417.5 136.0Q417.5 138.1 416.1 139.6Q414.7 141.0 411.1 141.0ZM394.0 183.0L394.0 174.7L405.8 174.7L405.8 154.1L394.0 154.1L394.0 145.8L416.4 145.8L416.4 174.7L427.4 174.7L427.4 183.0L394.0 183.0ZM445.7 183.0L435.1 183.0L435.1 145.8L445.7 145.8L445.7 152.6L446.2 152.6Q446.8 151.0 447.8 149.6Q448.7 148.2 450.0 147.2Q451.4 146.2 453.1 145.5Q454.9 144.9 457.1 144.9L457.1 144.9Q459.8 144.9 462.0 145.8Q464.2 146.7 465.8 148.5Q467.4 150.3 468.3 152.9Q469.2 155.5 469.2 158.9L469.2 158.9L469.2 183.0L458.6 183.0L458.6 160.3Q458.6 153.1 452.3 153.1L452.3 153.1Q451.1 153.1 449.9 153.5Q448.7 153.8 447.8 154.5Q446.8 155.2 446.3 156.2Q445.7 157.2 445.7 158.5L445.7 158.5L445.7 183.0ZM515.6 186.7L515.6 186.7Q515.6 192.6 510.6 195.4Q505.6 198.2 495.0 198.2L495.0 198.2Q489.7 198.2 486.2 197.6Q482.7 197.0 480.7 195.8Q478.6 194.7 477.8 193.1Q477.0 191.5 477.0 189.6L477.0 189.6Q477.0 186.5 478.9 184.9Q480.7 183.2 484.1 182.4L484.1 182.4L484.1 181.9Q481.7 181.2 480.3 179.9Q478.9 178.6 478.9 176.1L478.9 176.1Q478.9 173.4 480.8 172.1Q482.6 170.8 485.6 170.1L485.6 170.1L485.6 169.6Q482.3 168.0 480.5 165.2Q478.6 162.3 478.6 158.2L478.6 158.2Q478.6 154.9 479.8 152.5Q480.9 150.0 483.1 148.3Q485.2 146.7 488.1 145.8Q491.1 144.9 494.8 144.9L494.8 144.9Q498.3 144.9 501.3 145.7L501.3 145.7L501.3 143.7Q501.3 141.6 502.8 140.1Q504.3 138.7 507.0 138.7L507.0 138.7L513.6 138.7L513.6 146.4L504.6 146.4L504.6 147.1Q507.7 148.7 509.3 151.5Q511.0 154.2 511.0 158.2L511.0 158.2Q511.0 161.4 509.9 163.9Q508.7 166.3 506.6 168.0Q504.4 169.7 501.4 170.6Q498.4 171.4 494.8 171.4L494.8 171.4Q493.1 171.4 491.6 171.3Q490.1 171.1 488.7 170.7L488.7 170.7Q487.9 171.1 487.4 171.8Q486.8 172.4 486.8 173.4L486.8 173.4Q486.8 174.3 487.3 174.8Q487.7 175.3 488.5 175.6Q489.2 175.8 490.2 175.9Q491.2 176.0 492.3 176.0L492.3 176.0L500.8 176.0Q504.8 176.0 507.6 176.8Q510.4 177.6 512.2 179.0Q514.0 180.4 514.8 182.4Q515.6 184.3 515.6 186.7ZM505.5 187.5L505.5 187.5Q505.5 186.0 504.3 185.2Q503.2 184.4 500.0 184.4L500.0 184.4L487.2 184.4Q485.8 185.6 485.8 187.4L485.8 187.4Q485.8 189.1 487.2 190.3Q488.7 191.4 492.2 191.4L492.2 191.4L498.5 191.4Q502.2 191.4 503.8 190.4Q505.5 189.4 505.5 187.5ZM494.8 164.7L494.8 164.7Q498.0 164.7 499.5 163.1Q501.0 161.5 501.0 159.0L501.0 159.0L501.0 157.3Q501.0 154.9 499.5 153.3Q498.0 151.7 494.8 151.7L494.8 151.7Q491.6 151.7 490.2 153.3Q488.7 154.9 488.7 157.3L488.7 157.3L488.7 159.0Q488.7 161.5 490.2 163.1Q491.6 164.7 494.8 164.7Z M598.2 183.0L584.5 183.0Q578.7 183.0 575.9 179.9Q573.1 176.9 573.1 172.2L573.1 172.2L573.1 154.1L563.0 154.1L563.0 145.8L569.6 145.8Q572.0 145.8 573.0 144.9Q574.0 143.9 574.0 141.4L574.0 141.4L574.0 132.7L583.8 132.7L583.8 145.8L598.2 145.8L598.2 154.1L583.8 154.1L583.8 174.7L598.2 174.7L598.2 183.0ZM624.8 183.8L624.8 183.8Q620.5 183.8 617.0 182.5Q613.6 181.2 611.2 178.6Q608.7 176.1 607.4 172.5Q606.2 168.9 606.2 164.4L606.2 164.4Q606.2 159.8 607.4 156.2Q608.7 152.6 611.2 150.1Q613.6 147.6 617.0 146.3Q620.5 144.9 624.8 144.9L624.8 144.9Q629.1 144.9 632.6 146.3Q636.0 147.6 638.4 150.1Q640.9 152.6 642.2 156.2Q643.4 159.8 643.4 164.4L643.4 164.4Q643.4 168.9 642.2 172.5Q640.9 176.1 638.4 178.6Q636.0 181.2 632.6 182.5Q629.1 183.8 624.8 183.8ZM624.8 175.9L624.8 175.9Q628.4 175.9 630.4 173.7Q632.4 171.4 632.4 167.3L632.4 167.3L632.4 161.4Q632.4 157.3 630.4 155.1Q628.4 152.9 624.8 152.9L624.8 152.9Q621.2 152.9 619.2 155.1Q617.2 157.3 617.2 161.4L617.2 161.4L617.2 167.3Q617.2 171.4 619.2 173.7Q621.2 175.9 624.8 175.9Z M732.4 183.0L720.9 183.0L717.8 170.9L704.0 170.9L700.9 183.0L690.0 183.0L703.6 132.7L718.8 132.7L732.4 183.0ZM716.1 162.1L711.2 143.1L710.6 143.1L705.7 162.1L716.1 162.1ZM754.0 183.8L754.0 183.8Q747.8 183.8 743.2 181.9Q738.6 180.1 736.3 176.8L736.3 176.8L742.3 171.3Q744.5 173.7 747.4 175.0Q750.3 176.3 754.0 176.3L754.0 176.3Q757.2 176.3 759.0 175.4Q760.8 174.4 760.8 172.4L760.8 172.4Q760.8 170.8 759.6 170.2Q758.4 169.6 756.2 169.2L756.2 169.2L750.2 168.3Q747.7 167.9 745.5 167.1Q743.4 166.4 741.8 165.1Q740.2 163.8 739.3 161.9Q738.3 160.1 738.3 157.4L738.3 157.4Q738.3 151.6 742.8 148.2Q747.3 144.9 755.3 144.9L755.3 144.9Q760.8 144.9 764.7 146.4Q768.5 147.9 770.8 150.6L770.8 150.6L765.5 156.7Q763.8 154.9 761.2 153.6Q758.6 152.4 755.0 152.4L755.0 152.4Q748.8 152.4 748.8 156.2L748.8 156.2Q748.8 157.8 750.0 158.4Q751.2 159.0 753.4 159.4L753.4 159.4L759.3 160.3Q761.8 160.7 764.0 161.5Q766.1 162.2 767.8 163.5Q769.4 164.8 770.3 166.7Q771.2 168.6 771.2 171.2L771.2 171.2Q771.2 177.0 766.7 180.4Q762.2 183.8 754.0 183.8ZM814.2 183.0L800.5 183.0Q794.7 183.0 791.9 179.9Q789.1 176.9 789.1 172.2L789.1 172.2L789.1 154.1L779.0 154.1L779.0 145.8L785.6 145.8Q788.0 145.8 789.0 144.9Q790.0 143.9 790.0 141.4L790.0 141.4L790.0 132.7L799.8 132.7L799.8 145.8L814.2 145.8L814.2 154.1L799.8 154.1L799.8 174.7L814.2 174.7L814.2 183.0ZM824.5 183.0L824.5 174.7L833.1 174.7L833.1 154.1L824.5 154.1L824.5 145.8L843.8 145.8L843.8 156.3L844.3 156.3Q844.8 154.3 845.7 152.4Q846.6 150.5 848.0 149.0Q849.4 147.5 851.4 146.7Q853.4 145.8 856.1 145.8L856.1 145.8L859.7 145.8L859.7 155.6L851.7 155.6Q847.8 155.6 845.8 157.9Q843.8 160.3 843.8 163.7L843.8 163.7L843.8 174.7L856.0 174.7L856.0 183.0L824.5 183.0ZM884.0 183.8L884.0 183.8Q879.7 183.8 876.2 182.5Q872.8 181.2 870.4 178.6Q867.9 176.1 866.6 172.5Q865.4 168.9 865.4 164.4L865.4 164.4Q865.4 159.8 866.6 156.2Q867.9 152.6 870.4 150.1Q872.8 147.6 876.2 146.3Q879.7 144.9 884.0 144.9L884.0 144.9Q888.3 144.9 891.8 146.3Q895.2 147.6 897.6 150.1Q900.1 152.6 901.4 156.2Q902.6 159.8 902.6 164.4L902.6 164.4Q902.6 168.9 901.4 172.5Q900.1 176.1 897.6 178.6Q895.2 181.2 891.8 182.5Q888.3 183.8 884.0 183.8ZM884.0 175.9L884.0 175.9Q887.6 175.9 889.6 173.7Q891.6 171.4 891.6 167.3L891.6 167.3L891.6 161.4Q891.6 157.3 889.6 155.1Q887.6 152.9 884.0 152.9L884.0 152.9Q880.4 152.9 878.4 155.1Q876.4 157.3 876.4 161.4L876.4 161.4L876.4 167.3Q876.4 171.4 878.4 173.7Q880.4 175.9 884.0 175.9Z M142.9 246.2L147.7 246.2Q151.8 246.2 153.7 244.6Q155.6 243.0 155.6 240.7L155.6 240.7L155.6 240.2Q155.6 237.5 153.8 235.8Q152.0 234.2 148.6 234.2L148.6 234.2Q145.5 234.2 142.8 235.8Q140.1 237.3 138.2 240.2L138.2 240.2L131.4 233.9Q132.8 232.0 134.6 230.4Q136.3 228.9 138.4 227.8Q140.5 226.7 143.1 226.0Q145.7 225.4 149.0 225.4L149.0 225.4Q153.1 225.4 156.4 226.4Q159.8 227.3 162.1 229.1Q164.4 230.8 165.7 233.3Q167.0 235.7 167.0 238.8L167.0 238.8Q167.0 241.1 166.2 243.1Q165.4 245.0 164.1 246.5Q162.8 247.9 161.0 248.8Q159.2 249.7 157.2 250.1L157.2 250.1L157.2 250.5Q161.8 251.3 164.9 254.3Q168.0 257.4 168.0 262.6L168.0 262.6Q168.0 266.0 166.6 268.7Q165.2 271.4 162.6 273.4Q160.0 275.3 156.4 276.4Q152.8 277.4 148.3 277.4L148.3 277.4Q144.5 277.4 141.6 276.6Q138.7 275.8 136.4 274.5Q134.2 273.2 132.6 271.4Q131.0 269.6 129.7 267.8L129.7 267.8L137.7 261.6Q139.4 264.7 141.9 266.7Q144.3 268.6 148.5 268.6L148.5 268.6Q152.4 268.6 154.5 266.8Q156.6 265.0 156.6 261.9L156.6 261.9L156.6 261.4Q156.6 258.3 154.2 256.7Q151.8 255.2 147.6 255.2L147.6 255.2L142.9 255.2L142.9 246.2ZM192.8 277.4L192.8 277.4Q188.8 277.4 187.0 275.7Q185.2 273.9 185.2 271.4L185.2 271.4L185.2 268.9Q185.2 266.5 187.0 264.7Q188.8 262.9 192.8 262.9L192.8 262.9Q196.8 262.9 198.6 264.7Q200.4 266.5 200.4 268.9L200.4 268.9L200.4 271.4Q200.4 273.9 198.6 275.7Q196.8 277.4 192.8 277.4ZM236.0 277.4L236.0 277.4Q225.9 277.4 221.1 270.6Q216.3 263.7 216.3 251.4L216.3 251.4Q216.3 239.1 221.1 232.3Q225.9 225.4 236.0 225.4L236.0 225.4Q246.1 225.4 250.9 232.3Q255.7 239.1 255.7 251.4L255.7 251.4Q255.7 263.7 250.9 270.6Q246.1 277.4 236.0 277.4ZM236.0 268.9L236.0 268.9Q240.8 268.9 242.7 265.5Q244.6 262.2 244.6 256.1L244.6 256.1L244.6 246.7Q244.6 240.7 242.7 237.3Q240.8 233.9 236.0 233.9L236.0 233.9Q231.2 233.9 229.3 237.3Q227.4 240.7 227.4 246.7L227.4 246.7L227.4 256.1Q227.4 262.2 229.3 265.5Q231.2 268.9 236.0 268.9ZM236.0 255.7L236.0 255.7Q233.5 255.7 232.5 254.7Q231.5 253.7 231.5 252.2L231.5 252.2L231.5 250.6Q231.5 249.2 232.5 248.2Q233.5 247.2 236.0 247.2L236.0 247.2Q238.5 247.2 239.5 248.2Q240.5 249.2 240.5 250.6L240.5 250.6L240.5 252.2Q240.5 253.7 239.5 254.7Q238.5 255.7 236.0 255.7Z " clip-path="url(#satori_cp-id-1-0-0)" mask="url(#satori_om-id-1-0-0)"/><mask id="satori_om-id-1-0-1"><rect x="128" y="489" width="944" height="36" fill="#fff"/></mask><mask id="satori_om-id-1-0-1-0"><rect x="128" y="489" width="219" height="36" fill="#fff"/></mask><path fill="black" d="M130.7 520.3L130.7 499.6L132.9 499.6L132.9 508.2L133.0 508.2Q134.4 505.5 137.5 505.5L137.5 505.5Q140.1 505.5 141.6 507.5Q143.1 509.5 143.1 513.0L143.1 513.0Q143.1 516.6 141.6 518.6Q140.1 520.6 137.5 520.6L137.5 520.6Q134.4 520.6 133.0 517.9L133.0 517.9L132.9 517.9L132.9 520.3L130.7 520.3ZM136.6 518.6L136.6 518.6Q138.6 518.6 139.6 517.4Q140.7 516.2 140.7 514.3L140.7 514.3L140.7 511.8Q140.7 509.9 139.6 508.7Q138.6 507.5 136.6 507.5L136.6 507.5Q135.8 507.5 135.2 507.7Q134.5 507.9 134.0 508.2Q133.5 508.6 133.2 509.2Q132.9 509.7 132.9 510.4L132.9 510.4L132.9 515.7Q132.9 516.4 133.2 516.9Q133.5 517.5 134.0 517.8Q134.5 518.2 135.2 518.4Q135.8 518.6 136.6 518.6ZM155.4 511.9L157.9 505.8L160.1 505.8L152.9 523.4Q152.7 524.1 152.4 524.5Q152.1 525.0 151.7 525.3Q151.2 525.6 150.7 525.7Q150.1 525.9 149.3 525.9L149.3 525.9L147.1 525.9L147.1 524.0L150.5 524.0L152.1 520.0L146.3 505.8L148.6 505.8L151.0 511.9L153.2 517.4L153.3 517.4L155.4 511.9Z "/><mask id="satori_om-id-1-0-1-0-1"><rect x="162" y="489" width="17" height="36" fill="#fff"/></mask><clipPath id="satori_cp-id-1-0-1-0-2"><rect x="178" y="489" width="168" height="36"/></clipPath><mask id="satori_om-id-1-0-1-0-2"><rect x="178" y="489" width="168" height="36" fill="#fff"/></mask><path fill="black" d="M194.1 504.0L188.5 504.0L188.5 520.1L184.3 520.1L184.3 504.0L178.7 504.0L178.7 500.5L194.1 500.5L194.1 504.0ZM204.1 503.8L204.1 503.8Q202.7 503.8 202.2 503.2Q201.6 502.6 201.6 501.8L201.6 501.8L201.6 501.0Q201.6 500.2 202.2 499.6Q202.7 499.1 204.1 499.1L204.1 499.1Q205.5 499.1 206.0 499.6Q206.6 500.2 206.6 501.0L206.6 501.0L206.6 501.8Q206.6 502.6 206.0 503.2Q205.5 503.8 204.1 503.8ZM197.4 520.1L197.4 516.9L202.0 516.9L202.0 508.9L197.4 508.9L197.4 505.6L206.2 505.6L206.2 516.9L210.4 516.9L210.4 520.1L197.4 520.1ZM215.8 520.1L212.4 520.1L212.4 505.6L215.8 505.6L215.8 507.8L216.0 507.8Q216.3 506.8 216.9 506.0Q217.6 505.3 218.7 505.3L218.7 505.3Q220.8 505.3 221.3 507.8L221.3 507.8L221.5 507.8Q221.6 507.3 221.9 506.8Q222.1 506.4 222.5 506.0Q222.9 505.7 223.4 505.5Q223.9 505.3 224.5 505.3L224.5 505.3Q227.6 505.3 227.6 509.8L227.6 509.8L227.6 520.1L224.2 520.1L224.2 510.2Q224.2 509.2 223.9 508.8Q223.5 508.4 223.0 508.4L223.0 508.4Q222.4 508.4 222.1 508.7Q221.7 509.1 221.7 509.8L221.7 509.8L221.7 520.1L218.3 520.1L218.3 510.2Q218.3 509.2 218.0 508.8Q217.7 508.4 217.1 508.4L217.1 508.4Q216.6 508.4 216.2 508.7Q215.8 509.1 215.8 509.8L215.8 509.8L215.8 520.1Z M252.0 520.1L246.7 520.1L245.5 500.5L249.1 500.5L249.7 512.3L249.8 515.9L250.1 515.9L251.8 504.8L255.6 504.8L257.2 515.9L257.5 515.9L257.7 512.4L258.2 500.5L261.7 500.5L260.5 520.1L255.2 520.1L253.7 509.3L253.5 509.3L252.0 520.1ZM278.0 520.1L275.6 520.1Q274.3 520.1 273.6 519.4Q272.8 518.8 272.6 517.5L272.6 517.5L272.5 517.5Q272.1 519.0 270.9 519.7Q269.8 520.4 268.1 520.4L268.1 520.4Q266.0 520.4 264.7 519.3Q263.5 518.2 263.5 516.1L263.5 516.1Q263.5 513.8 265.1 512.8Q266.8 511.7 270.0 511.7L270.0 511.7L272.3 511.7L272.3 510.9Q272.3 509.6 271.7 509.0Q271.1 508.3 269.6 508.3L269.6 508.3Q268.3 508.3 267.5 508.8Q266.7 509.3 266.1 510.2L266.1 510.2L263.8 508.1Q264.6 506.9 266.1 506.1Q267.7 505.3 270.1 505.3L270.1 505.3Q273.1 505.3 274.8 506.7Q276.4 508.0 276.4 510.8L276.4 510.8L276.4 517.1L278.0 517.1L278.0 520.1ZM269.7 517.7L269.7 517.7Q270.8 517.7 271.5 517.2Q272.3 516.6 272.3 515.6L272.3 515.6L272.3 513.9L270.1 513.9Q267.5 513.9 267.5 515.6L267.5 515.6L267.5 516.2Q267.5 516.9 268.1 517.3Q268.7 517.7 269.7 517.7ZM293.7 520.1L288.3 520.1Q286.1 520.1 285.0 518.9Q283.9 517.7 283.9 515.9L283.9 515.9L283.9 508.9L280.0 508.9L280.0 505.6L282.5 505.6Q283.4 505.6 283.8 505.3Q284.2 504.9 284.2 503.9L284.2 503.9L284.2 500.5L288.0 500.5L288.0 505.6L293.7 505.6L293.7 508.9L288.0 508.9L288.0 516.9L293.7 516.9L293.7 520.1ZM303.8 520.4L303.8 520.4Q301.4 520.4 299.6 519.7Q297.9 519.0 297.0 517.7L297.0 517.7L299.3 515.6Q300.1 516.5 301.3 517.0Q302.4 517.5 303.9 517.5L303.9 517.5Q305.1 517.5 305.8 517.1Q306.5 516.8 306.5 516.0L306.5 516.0Q306.5 515.4 306.0 515.1Q305.5 514.9 304.7 514.7L304.7 514.7L302.4 514.4Q301.4 514.2 300.6 513.9Q299.7 513.7 299.1 513.1Q298.5 512.6 298.1 511.9Q297.8 511.2 297.8 510.2L297.8 510.2Q297.8 507.9 299.5 506.6Q301.2 505.3 304.4 505.3L304.4 505.3Q306.5 505.3 308.0 505.9Q309.5 506.5 310.4 507.5L310.4 507.5L308.3 509.9Q307.7 509.2 306.7 508.7Q305.7 508.2 304.2 508.2L304.2 508.2Q301.8 508.2 301.8 509.7L301.8 509.7Q301.8 510.3 302.3 510.6Q302.8 510.8 303.6 510.9L303.6 510.9L305.9 511.3Q306.9 511.4 307.7 511.7Q308.6 512.0 309.2 512.5Q309.8 513.0 310.2 513.8Q310.6 514.5 310.6 515.5L310.6 515.5Q310.6 517.8 308.8 519.1Q307.1 520.4 303.8 520.4ZM320.8 520.4L320.8 520.4Q319.1 520.4 317.8 519.9Q316.4 519.4 315.5 518.4Q314.6 517.4 314.1 516.0Q313.5 514.6 313.5 512.9L313.5 512.9Q313.5 511.1 314.1 509.7Q314.6 508.3 315.5 507.3Q316.4 506.3 317.8 505.8Q319.1 505.3 320.8 505.3L320.8 505.3Q322.5 505.3 323.8 505.8Q325.2 506.3 326.1 507.3Q327.0 508.3 327.5 509.7Q328.1 511.1 328.1 512.9L328.1 512.9Q328.1 514.6 327.5 516.0Q327.0 517.4 326.1 518.4Q325.2 519.4 323.8 519.9Q322.5 520.4 320.8 520.4ZM320.8 517.3L320.8 517.3Q322.2 517.3 323.0 516.5Q323.8 515.6 323.8 514.0L323.8 514.0L323.8 511.7Q323.8 510.1 323.0 509.3Q322.2 508.4 320.8 508.4L320.8 508.4Q319.4 508.4 318.6 509.3Q317.8 510.1 317.8 511.7L317.8 511.7L317.8 514.0Q317.8 515.6 318.6 516.5Q319.4 517.3 320.8 517.3ZM335.2 520.1L331.0 520.1L331.0 505.6L335.2 505.6L335.2 508.3L335.3 508.3Q335.6 507.7 335.9 507.1Q336.3 506.6 336.8 506.2Q337.3 505.8 338.0 505.5Q338.7 505.3 339.6 505.3L339.6 505.3Q340.6 505.3 341.5 505.7Q342.4 506.0 343.0 506.7Q343.6 507.4 343.9 508.4Q344.3 509.4 344.3 510.7L344.3 510.7L344.3 520.1L340.1 520.1L340.1 511.3Q340.1 508.5 337.7 508.5L337.7 508.5Q337.2 508.5 336.8 508.6Q336.3 508.8 335.9 509.0Q335.6 509.3 335.4 509.7Q335.2 510.1 335.2 510.6L335.2 510.6L335.2 520.1Z " clip-path="url(#satori_cp-id-1-0-1-0-2)" mask="url(#satori_om-id-1-0-1-0-2)"/><clipPath id="satori_cp-id-1-0-1-1"><rect x="786" y="489" width="286" height="36"/></clipPath><mask id="satori_om-id-1-0-1-1"><rect x="786" y="489" width="286" height="36" fill="#fff"/></mask><path fill="black" d="M802.1 504.0L796.5 504.0L796.5 520.1L792.3 520.1L792.3 504.0L786.7 504.0L786.7 500.5L802.1 500.5L802.1 504.0ZM812.1 503.8L812.1 503.8Q810.7 503.8 810.1 503.2Q809.6 502.6 809.6 501.8L809.6 501.8L809.6 501.0Q809.6 500.2 810.1 499.6Q810.7 499.1 812.1 499.1L812.1 499.1Q813.5 499.1 814.0 499.6Q814.6 500.2 814.6 501.0L814.6 501.0L814.6 501.8Q814.6 502.6 814.0 503.2Q813.5 503.8 812.1 503.8ZM805.4 520.1L805.4 516.9L810.0 516.9L810.0 508.9L805.4 508.9L805.4 505.6L814.2 505.6L814.2 516.9L818.4 516.9L818.4 520.1L805.4 520.1ZM823.8 520.1L820.4 520.1L820.4 505.6L823.8 505.6L823.8 507.8L824.0 507.8Q824.3 506.8 824.9 506.0Q825.6 505.3 826.7 505.3L826.7 505.3Q828.8 505.3 829.3 507.8L829.3 507.8L829.5 507.8Q829.6 507.3 829.9 506.8Q830.1 506.4 830.5 506.0Q830.9 505.7 831.4 505.5Q831.9 505.3 832.5 505.3L832.5 505.3Q835.6 505.3 835.6 509.8L835.6 509.8L835.6 520.1L832.2 520.1L832.2 510.2Q832.2 509.2 831.9 508.8Q831.5 508.4 831.0 508.4L831.0 508.4Q830.4 508.4 830.1 508.7Q829.7 509.1 829.7 509.8L829.7 509.8L829.7 520.1L826.3 520.1L826.3 510.2Q826.3 509.2 826.0 508.8Q825.7 508.4 825.1 508.4L825.1 508.4Q824.6 508.4 824.2 508.7Q823.8 509.1 823.8 509.8L823.8 509.8L823.8 520.1Z M860.0 520.1L854.7 520.1L853.5 500.5L857.1 500.5L857.7 512.3L857.8 515.9L858.1 515.9L859.8 504.8L863.6 504.8L865.2 515.9L865.5 515.9L865.7 512.4L866.2 500.5L869.7 500.5L868.5 520.1L863.2 520.1L861.7 509.3L861.5 509.3L860.0 520.1ZM886.0 520.1L883.6 520.1Q882.3 520.1 881.6 519.4Q880.8 518.8 880.6 517.5L880.6 517.5L880.5 517.5Q880.1 519.0 878.9 519.7Q877.8 520.4 876.1 520.4L876.1 520.4Q874.0 520.4 872.7 519.3Q871.5 518.2 871.5 516.1L871.5 516.1Q871.5 513.8 873.1 512.8Q874.8 511.7 878.0 511.7L878.0 511.7L880.3 511.7L880.3 510.9Q880.3 509.6 879.7 509.0Q879.1 508.3 877.6 508.3L877.6 508.3Q876.3 508.3 875.5 508.8Q874.7 509.3 874.1 510.2L874.1 510.2L871.8 508.1Q872.6 506.9 874.1 506.1Q875.7 505.3 878.1 505.3L878.1 505.3Q881.1 505.3 882.8 506.7Q884.4 508.0 884.4 510.8L884.4 510.8L884.4 517.1L886.0 517.1L886.0 520.1ZM877.7 517.7L877.7 517.7Q878.8 517.7 879.5 517.2Q880.3 516.6 880.3 515.6L880.3 515.6L880.3 513.9L878.1 513.9Q875.5 513.9 875.5 515.6L875.5 515.6L875.5 516.2Q875.5 516.9 876.1 517.3Q876.7 517.7 877.7 517.7ZM901.7 520.1L896.3 520.1Q894.1 520.1 893.0 518.9Q891.9 517.7 891.9 515.9L891.9 515.9L891.9 508.9L888.0 508.9L888.0 505.6L890.5 505.6Q891.4 505.6 891.8 505.3Q892.2 504.9 892.2 503.9L892.2 503.9L892.2 500.5L896.0 500.5L896.0 505.6L901.7 505.6L901.7 508.9L896.0 508.9L896.0 516.9L901.7 516.9L901.7 520.1ZM911.8 520.4L911.8 520.4Q909.4 520.4 907.6 519.7Q905.9 519.0 905.0 517.7L905.0 517.7L907.3 515.6Q908.1 516.5 909.3 517.0Q910.4 517.5 911.9 517.5L911.9 517.5Q913.1 517.5 913.8 517.1Q914.5 516.8 914.5 516.0L914.5 516.0Q914.5 515.4 914.0 515.1Q913.5 514.9 912.7 514.7L912.7 514.7L910.4 514.4Q909.4 514.2 908.6 513.9Q907.7 513.7 907.1 513.1Q906.5 512.6 906.1 511.9Q905.8 511.2 905.8 510.2L905.8 510.2Q905.8 507.9 907.5 506.6Q909.2 505.3 912.4 505.3L912.4 505.3Q914.5 505.3 916.0 505.9Q917.5 506.5 918.4 507.5L918.4 507.5L916.3 509.9Q915.7 509.2 914.7 508.7Q913.7 508.2 912.2 508.2L912.2 508.2Q909.8 508.2 909.8 509.7L909.8 509.7Q909.8 510.3 910.3 510.6Q910.8 510.8 911.6 510.9L911.6 510.9L913.9 511.3Q914.9 511.4 915.7 511.7Q916.6 512.0 917.2 512.5Q917.8 513.0 918.2 513.8Q918.6 514.5 918.6 515.5L918.6 515.5Q918.6 517.8 916.8 519.1Q915.1 520.4 911.8 520.4ZM928.8 520.4L928.8 520.4Q927.1 520.4 925.8 519.9Q924.4 519.4 923.5 518.4Q922.6 517.4 922.1 516.0Q921.5 514.6 921.5 512.9L921.5 512.9Q921.5 511.1 922.1 509.7Q922.6 508.3 923.5 507.3Q924.4 506.3 925.8 505.8Q927.1 505.3 928.8 505.3L928.8 505.3Q930.5 505.3 931.8 505.8Q933.2 506.3 934.1 507.3Q935.0 508.3 935.5 509.7Q936.1 511.1 936.1 512.9L936.1 512.9Q936.1 514.6 935.5 516.0Q935.0 517.4 934.1 518.4Q933.2 519.4 931.8 519.9Q930.5 520.4 928.8 520.4ZM928.8 517.3L928.8 517.3Q930.2 517.3 931.0 516.5Q931.8 515.6 931.8 514.0L931.8 514.0L931.8 511.7Q931.8 510.1 931.0 509.3Q930.2 508.4 928.8 508.4L928.8 508.4Q927.4 508.4 926.6 509.3Q925.8 510.1 925.8 511.7L925.8 511.7L925.8 514.0Q925.8 515.6 926.6 516.5Q927.4 517.3 928.8 517.3ZM943.2 520.1L939.0 520.1L939.0 505.6L943.2 505.6L943.2 508.3L943.3 508.3Q943.6 507.7 943.9 507.1Q944.3 506.6 944.8 506.2Q945.3 505.8 946.0 505.5Q946.7 505.3 947.6 505.3L947.6 505.3Q948.6 505.3 949.5 505.7Q950.4 506.0 951.0 506.7Q951.6 507.4 951.9 508.4Q952.3 509.4 952.3 510.7L952.3 510.7L952.3 520.1L948.1 520.1L948.1 511.3Q948.1 508.5 945.7 508.5L945.7 508.5Q945.2 508.5 944.8 508.6Q944.3 508.8 943.9 509.0Q943.6 509.3 943.4 509.7Q943.2 510.1 943.2 510.6L943.2 510.6L943.2 520.1ZM964.2 508.5L960.6 508.5L960.6 499.4L964.2 499.4L964.2 508.5ZM979.0 520.4L979.0 520.4Q976.6 520.4 974.8 519.7Q973.1 519.0 972.2 517.7L972.2 517.7L974.5 515.6Q975.3 516.5 976.5 517.0Q977.6 517.5 979.1 517.5L979.1 517.5Q980.3 517.5 981.0 517.1Q981.7 516.8 981.7 516.0L981.7 516.0Q981.7 515.4 981.2 515.1Q980.7 514.9 979.9 514.7L979.9 514.7L977.6 514.4Q976.6 514.2 975.8 513.9Q974.9 513.7 974.3 513.1Q973.7 512.6 973.3 511.9Q973.0 511.2 973.0 510.2L973.0 510.2Q973.0 507.9 974.7 506.6Q976.4 505.3 979.6 505.3L979.6 505.3Q981.7 505.3 983.2 505.9Q984.7 506.5 985.6 507.5L985.6 507.5L983.5 509.9Q982.9 509.2 981.9 508.7Q980.9 508.2 979.4 508.2L979.4 508.2Q977.0 508.2 977.0 509.7L977.0 509.7Q977.0 510.3 977.5 510.6Q978.0 510.8 978.8 510.9L978.8 510.9L981.1 511.3Q982.1 511.4 982.9 511.7Q983.8 512.0 984.4 512.5Q985.0 513.0 985.4 513.8Q985.8 514.5 985.8 515.5L985.8 515.5Q985.8 517.8 984.0 519.1Q982.3 520.4 979.0 520.4Z M1006.6 520.1L1006.6 500.5L1013.4 500.5Q1016.3 500.5 1017.8 501.9Q1019.4 503.3 1019.4 505.8L1019.4 505.8Q1019.4 507.4 1018.5 508.4Q1017.7 509.4 1016.2 509.9L1016.2 509.9L1016.2 510.0Q1018.0 510.5 1019.0 511.6Q1020.0 512.7 1020.0 514.7L1020.0 514.7Q1020.0 517.2 1018.4 518.6Q1016.9 520.1 1014.1 520.1L1014.1 520.1L1006.6 520.1ZM1010.6 517.2L1012.8 517.2Q1014.3 517.2 1015.0 516.6Q1015.7 516.1 1015.7 514.8L1015.7 514.8L1015.7 514.0Q1015.7 512.6 1015.0 512.1Q1014.3 511.6 1012.8 511.6L1012.8 511.6L1010.6 511.6L1010.6 517.2ZM1010.6 508.8L1012.2 508.8Q1013.7 508.8 1014.4 508.3Q1015.1 507.9 1015.1 506.6L1015.1 506.6L1015.1 505.7Q1015.1 504.4 1014.4 504.0Q1013.7 503.5 1012.2 503.5L1012.2 503.5L1010.6 503.5L1010.6 508.8ZM1023.1 520.1L1023.1 516.9L1027.5 516.9L1027.5 502.6L1023.1 502.6L1023.1 499.4L1031.7 499.4L1031.7 516.9L1036.1 516.9L1036.1 520.1L1023.1 520.1ZM1046.4 520.4L1046.4 520.4Q1044.7 520.4 1043.4 519.9Q1042.0 519.4 1041.1 518.4Q1040.2 517.4 1039.7 516.0Q1039.1 514.6 1039.1 512.9L1039.1 512.9Q1039.1 511.1 1039.7 509.7Q1040.2 508.3 1041.1 507.3Q1042.0 506.3 1043.4 505.8Q1044.7 505.3 1046.4 505.3L1046.4 505.3Q1048.1 505.3 1049.4 505.8Q1050.8 506.3 1051.7 507.3Q1052.6 508.3 1053.1 509.7Q1053.7 511.1 1053.7 512.9L1053.7 512.9Q1053.7 514.6 1053.1 516.0Q1052.6 517.4 1051.7 518.4Q1050.8 519.4 1049.4 519.9Q1048.1 520.4 1046.4 520.4ZM1046.4 517.3L1046.4 517.3Q1047.8 517.3 1048.6 516.5Q1049.4 515.6 1049.4 514.0L1049.4 514.0L1049.4 511.7Q1049.4 510.1 1048.6 509.3Q1047.8 508.4 1046.4 508.4L1046.4 508.4Q1045 508.4 1044.2 509.3Q1043.4 510.1 1043.4 511.7L1043.4 511.7L1043.4 514.0Q1043.4 515.6 1044.2 516.5Q1045 517.3 1046.4 517.3ZM1071.1 521.5L1071.1 521.5Q1071.1 523.8 1069.2 524.9Q1067.3 526.0 1063.1 526.0L1063.1 526.0Q1061.0 526.0 1059.7 525.8Q1058.4 525.6 1057.6 525.1Q1056.8 524.7 1056.4 524.0Q1056.1 523.4 1056.1 522.7L1056.1 522.7Q1056.1 521.5 1056.8 520.8Q1057.6 520.2 1058.9 519.9L1058.9 519.9L1058.9 519.7Q1058.0 519.4 1057.4 518.9Q1056.9 518.4 1056.9 517.4L1056.9 517.4Q1056.9 516.4 1057.6 515.9Q1058.3 515.4 1059.5 515.1L1059.5 515.1L1059.5 514.9Q1058.2 514.3 1057.5 513.2Q1056.8 512.1 1056.8 510.5L1056.8 510.5Q1056.8 509.2 1057.2 508.2Q1057.7 507.3 1058.5 506.6Q1059.3 506.0 1060.5 505.6Q1061.6 505.3 1063.0 505.3L1063.0 505.3Q1064.4 505.3 1065.6 505.6L1065.6 505.6L1065.6 504.8Q1065.6 504.0 1066.2 503.4Q1066.8 502.9 1067.8 502.9L1067.8 502.9L1070.3 502.9L1070.3 505.9L1066.9 505.9L1066.9 506.1Q1068.0 506.8 1068.7 507.8Q1069.4 508.9 1069.4 510.5L1069.4 510.5Q1069.4 511.7 1068.9 512.7Q1068.5 513.6 1067.6 514.3Q1066.8 514.9 1065.6 515.3Q1064.5 515.6 1063.0 515.6L1063.0 515.6Q1062.4 515.6 1061.8 515.5Q1061.2 515.5 1060.7 515.3L1060.7 515.3Q1060.4 515.5 1060.2 515.8Q1060.0 516.0 1060.0 516.4L1060.0 516.4Q1060.0 516.7 1060.1 516.9Q1060.3 517.1 1060.6 517.2Q1060.9 517.3 1061.3 517.3Q1061.7 517.4 1062.1 517.4L1062.1 517.4L1065.4 517.4Q1066.9 517.4 1068.0 517.7Q1069.1 518.0 1069.8 518.6Q1070.5 519.1 1070.8 519.9Q1071.1 520.6 1071.1 521.5ZM1067.2 521.9L1067.2 521.9Q1067.2 521.3 1066.8 521.0Q1066.3 520.7 1065.0 520.7L1065.0 520.7L1060.1 520.7Q1059.5 521.1 1059.5 521.8L1059.5 521.8Q1059.5 522.5 1060.1 522.9Q1060.7 523.4 1062.1 523.4L1062.1 523.4L1064.5 523.4Q1065.9 523.4 1066.6 523.0Q1067.2 522.6 1067.2 521.9ZM1063.0 513.0L1063.0 513.0Q1064.3 513.0 1064.9 512.4Q1065.4 511.7 1065.4 510.8L1065.4 510.8L1065.4 510.1Q1065.4 509.2 1064.9 508.6Q1064.3 507.9 1063.0 507.9L1063.0 507.9Q1061.8 507.9 1061.2 508.6Q1060.7 509.2 1060.7 510.1L1060.7 510.1L1060.7 510.8Q1060.7 511.7 1061.2 512.4Q1061.8 513.0 1063.0 513.0Z " clip-path="url(#satori_cp-id-1-0-1-1)" mask="url(#satori_om-id-1-0-1-1)"/></svg>